<svg width="34" height="48" viewBox="0 0 34 48" fill="none" xmlns="http://www.w3.org/2000/svg">
<path d="M0.362349 12.3604C0.430629 12.2004 0.657797 12.3002 0.85102 12.4599C0.911403 12.5094 0.978154 12.794 1.02559 12.8399C1.11942 12.9288 1.12337 12.7763 1.21463 12.8868C1.24604 12.9244 1.38493 13.3654 1.41591 13.3943C1.58726 13.5491 1.62294 13.403 1.65666 13.4951C1.67312 13.5424 1.66753 13.5946 1.60171 13.6911C2.18644 13.6805 3.00378 13.2235 3.67013 12.8393C3.63533 12.908 3.71249 12.8722 3.78805 12.827C3.99456 12.7014 4.60125 12.6186 4.6895 12.2124C4.69931 12.165 4.36584 11.9331 4.34479 11.9059C4.02498 11.4861 4.63938 12.0283 4.77798 12.0283C5.32711 12.0259 5.59948 11.7389 5.68553 11.3761C5.72226 11.2196 4.99928 10.8366 5.44441 11.0016C5.47467 11.0125 5.79044 11.3073 5.85107 11.3045C5.98847 11.2967 6.03397 11.1144 6.10366 11.0811C6.24092 11.0166 6.25073 10.9971 6.33433 10.8991C6.38148 10.8461 6.45689 10.8106 6.53454 10.7714C6.63542 10.7314 6.73848 10.6843 6.74817 10.5742C6.75036 10.5344 6.37132 10.3045 6.34176 10.2185C6.31224 10.133 6.42192 10.046 6.53376 10.0681C6.64559 10.0905 6.9168 10.3075 6.98648 10.3467C7.57661 10.6752 6.91244 10.0017 6.90338 9.97384C6.79545 9.43683 7.4201 9.43696 7.61976 9.09889C7.76854 8.84427 7.77389 8.48062 7.93323 8.2406C8.12465 7.95524 8.47521 7.80521 8.59899 7.47983C8.61248 7.44574 8.13288 7.24331 8.1483 7.20141C8.25135 6.92188 8.39537 6.6597 8.62175 6.43395C8.7316 6.3471 8.87099 6.26322 9.04851 6.18508C9.097 6.16379 9.49191 6.39662 9.56585 6.38499C10.0072 6.32028 11.0184 6.20303 9.20809 5.37485C9.34019 5.24027 9.48452 5.06733 9.91495 5.03752C10.1922 5.01725 10.6323 5.26914 10.4717 5.07719C10.4359 5.03432 10.0103 4.93852 9.98753 4.88515C9.89168 4.66209 10.0855 4.50885 9.92032 4.27036C9.88569 4.22171 9.50844 4.12457 9.44384 4.09541C8.92083 3.85921 9.86301 3.97377 9.93781 3.95831C10.4931 3.85389 10.3453 3.62312 10.411 3.40304C10.4263 3.35208 9.90315 3.29114 9.89934 3.23889C9.88759 2.99356 9.96919 2.76594 10.1867 2.58999C10.2049 2.52572 10.2127 2.48924 10.2698 2.31585C10.3129 2.20297 10.3214 2.12936 10.5 1.81704C10.6403 1.60739 10.8511 1.2166 11.5585 0.88066C11.8674 0.728954 12.4787 0.617784 12.9485 0.72568C13.4298 0.821992 13.7645 1.03877 13.9755 1.21228C14.0826 1.30093 14.1642 1.3837 14.2305 1.45801C14.2723 1.50547 14.2938 1.53229 14.3207 1.56663C14.3715 1.63181 14.4111 1.6896 14.4442 1.74138C14.51 1.84488 14.5507 1.92487 14.5822 1.99155C14.6524 2.14539 14.6468 2.14929 14.668 2.2094C14.6986 2.30632 14.7094 2.36346 14.7141 2.39777C14.733 2.6737 14.2432 2.56299 14.2198 2.66592C14.0716 2.95008 14.8922 2.78275 14.7418 2.96591C14.7104 3.00128 14.3321 3.05285 14.2918 3.06552C13.659 3.26161 14.5883 3.16641 14.6119 3.18155C14.9332 3.38509 14.0025 3.71018 14.1801 3.92358C14.2021 3.9481 14.6664 3.8018 14.6994 3.87623C14.9239 4.38138 14.8956 4.96924 14.6122 5.56033C14.569 5.65327 14.2017 5.66053 14.1587 5.67379C13.4878 5.8861 14.418 5.77063 14.4574 5.78969C14.7457 5.95311 14.0107 6.29161 15.1336 6.23273C15.0465 6.62186 15.1251 6.98017 15.1954 7.34506C15.2964 7.8702 15.3776 8.39839 14.8992 9.03557C14.8901 9.04918 14.4338 9.11722 14.4176 9.144C14.2169 9.46578 14.909 9.27315 15.8038 9.28442C16.0284 9.28692 15.0182 9.63059 14.9442 9.65622C14.6725 9.75496 13.9909 9.84189 13.9395 9.86718C13.5371 10.0725 15.7578 9.61481 15.7911 9.78011C15.7884 9.78603 15.3746 9.84485 15.3367 9.86679C15.2174 9.93524 15.3886 9.9463 15.256 10.0168C14.9491 10.1784 13.8746 10.4238 14.5328 10.4473C14.6181 10.4499 15.8741 10.172 15.8438 10.332C15.831 10.3976 15.9035 10.6507 15.8363 10.7404C15.7691 10.8295 15.3526 10.8599 15.336 10.8686C14.8375 11.1722 14.6 11.142 13.8237 11.3986C13.0502 11.6533 14.9359 11.2515 15.1548 11.2495C15.3732 11.2476 14.9582 11.4794 14.8111 11.5457C14.6639 11.6118 14.3968 11.6187 14.3158 11.6677C13.7872 11.9908 15.2727 11.5736 15.5865 11.5831C16.329 11.6024 14.9518 12.0072 14.8441 12.1837C14.815 12.2315 15.1278 12.135 15.1649 12.1651C15.3072 12.2843 14.8863 12.4551 15.3196 12.5367C15.3902 12.5499 16.2594 12.5132 15.6575 12.7204C15.5706 12.7501 15.2145 12.786 15.1482 12.8616C15.0486 12.9747 15.0046 13.1522 15.1409 13.2262C15.2416 13.2807 15.8008 13.0835 15.6401 13.2096C15.5682 13.2658 15.2166 13.2585 15.1097 13.3584C15.0027 13.4571 15.0556 13.645 15.0818 13.7155C15.1082 13.7859 15.5369 13.6588 15.5675 13.6588C15.7431 13.6606 15.9817 13.7584 15.9836 13.7708C16.161 14.3805 15.5399 15.101 15.9049 15.6571C15.9329 15.7008 16.387 15.5768 16.396 15.5825C16.6215 15.7062 15.3717 15.8239 14.9848 16.0197C15.9158 15.8157 15.7601 15.9167 15.8855 16.0105C15.9467 16.0555 16.3024 15.9528 16.3405 15.9504C16.9064 15.9217 16.2081 16.1214 16.0659 16.1652C15.5428 16.3268 16.1856 16.2589 15.8361 16.3676C15.4892 16.4756 14.9469 16.4964 14.9757 16.6048C15.3163 16.5684 16.1739 16.3112 16.3323 16.3661C16.9311 16.5723 16.3636 17.2974 16.3434 17.5648C16.3228 17.8304 16.4012 17.9008 16.3099 18.072C16.1449 18.3814 16.7734 18.1525 17.1036 18.2582C17.4338 18.3644 15.8223 18.6053 15.4842 18.6983C15.1461 18.7908 15.5041 18.7452 15.3215 18.8122C15.139 18.8791 14.8932 18.8635 14.8362 18.9458C14.7793 19.0284 15.4264 19.0904 15.7898 19.0424C16.5598 18.9405 17.3401 18.6955 17.0965 18.9329C17.0819 18.9467 16.6557 18.9976 16.6213 19.0459C16.3618 19.4254 16.4082 19.7584 16.1859 20.1296C16.1548 20.1812 15.6803 20.2365 15.6569 20.2676C15.4117 20.5912 16.1794 20.3381 17.0823 20.3049C15.9128 20.5083 15.2167 20.7282 15.2506 20.9315C15.2703 21.0526 15.7741 20.9292 16.1477 20.9342C16.2603 20.9356 15.9285 21.0901 16.1704 21.057C16.9616 20.9501 17.8192 20.6916 17.5131 20.9697C17.4984 20.9822 17.0651 21.0396 17.0456 21.0762C16.9171 21.3132 17.738 21.1687 17.8812 21.3678C17.9937 21.5247 17.5563 21.9256 17.5148 22.1376C16.2066 22.3988 16.5419 22.5162 17.4592 22.4118C17.4482 22.5473 17.5263 22.6718 17.426 22.8169C17.3921 22.8683 17.0079 22.9166 16.968 22.9303C16.343 23.1425 17.2312 23.0202 17.2711 23.0406C17.5736 23.2114 17.2793 23.4818 17.4488 23.6551C17.5001 23.7106 17.5928 23.7579 17.7551 23.7924C17.7805 23.7976 18.6922 23.6307 18.0439 23.8388C17.9992 23.8528 17.5675 23.8449 17.5618 23.9814C17.5569 24.1223 17.1188 24.4626 17.5781 24.5676C17.6887 24.593 18.4477 24.5509 17.8903 24.7602C17.8146 24.7883 17.5514 24.8276 17.41 24.8746C16.9597 25.025 17.8839 24.8703 17.1172 25.0932C16.3499 25.3131 15.795 25.5757 16.3695 25.6468C16.3861 25.6483 17.123 25.5471 17.1234 25.6083C17.1235 25.7063 16.998 25.8657 17.0228 25.9641C17.0347 26.0099 17.4805 25.8888 17.4904 25.8951C17.8069 26.1567 17.4489 26.4592 17.3421 26.8302C17.3215 26.8976 17.9731 26.9481 17.5103 27.1671C17.0033 27.4043 14.7584 27.7205 15.3472 27.9125C15.5824 27.9875 18.4283 27.5753 17.0135 28.0859C17.2597 28.2777 17.166 28.5307 17.1215 28.754C17.0887 28.9513 17.1008 29.147 17.3691 29.2964C17.3959 29.3118 18.1937 29.2157 18.1916 29.259C18.1872 29.3254 17.8287 29.4395 17.8149 29.4917C17.7485 29.7148 18.1042 29.8156 18.1068 30.0104C18.1089 30.0852 17.7292 30.1658 17.7331 30.2579C17.7377 30.3502 18.2433 30.2616 18.0413 30.4464C17.8872 30.5872 16.913 30.9677 16.8233 31.0985C17.4342 30.9309 17.6689 30.8971 17.8292 30.9134C17.9295 30.9252 18.0007 30.9547 18.1161 30.9814C18.1743 30.9945 18.5114 30.8707 18.5567 30.8718C18.7485 30.8737 18.476 31.0006 18.6831 30.9951C18.7328 30.9938 19.0708 30.8987 19.1305 30.8921C19.6504 30.8305 18.9302 31.1831 18.8053 31.2458C18.3299 31.4816 18.7809 31.3968 18.6036 31.5239C18.4263 31.6507 18.1493 31.6185 18.0529 31.7341C17.8536 31.9734 17.9676 32.1682 17.9951 32.3385C18.0081 32.4058 18.4502 32.2436 18.4626 32.2505C18.5303 32.3006 18.4786 32.3816 18.4821 32.4422C18.4734 32.5102 18.5583 32.5736 19.0767 32.552C16.695 32.9549 19.3175 32.6079 18.8715 32.8584C18.8355 32.8784 17.7189 33.1185 17.54 33.0718C17.361 33.0221 17.6952 32.8531 17.4231 32.7802C17.3593 32.7693 16.2781 32.7187 16.2113 32.6931C16.1274 32.6697 16.101 32.6446 16.1163 32.6202L16.1768 33C16.2487 32.9184 17.4229 32.6112 17.498 32.587C18.4609 32.2691 17.309 32.4203 17.2238 32.4109C16.8297 32.3514 17.0221 32.1525 16.7317 32.086C16.5437 32.0422 15.4682 32.3453 15.4797 32.2622C15.5149 31.9774 16.9901 31.4689 15.6178 31.5734C15.4325 31.5858 14.8996 31.7391 14.752 31.735C14.669 31.744 14.7203 31.7121 15.0481 31.5714C15.1054 31.551 15.9197 31.2035 15.3651 31.288C15.2953 31.2991 14.9541 31.4005 14.922 31.3973C14.7132 31.3735 14.9676 31.2345 14.8069 31.169C14.6463 31.1037 14.4111 31.0168 14.4911 30.8479C14.5382 30.7447 15.1543 30.4764 15.3028 30.4006C15.7311 30.1852 14.9585 30.2476 15.4961 30.0565C16.038 29.8713 16.9064 29.7957 17.2332 29.569C16.3282 29.7587 15.3973 29.9442 14.4855 30.1271C14.442 29.7951 14.5901 29.4546 14.5941 29.1511C14.5988 29.1077 14.5979 29.0791 14.5838 29.0424C14.5733 29.0176 14.0888 29.1323 14.0649 29.1084C13.9654 29.0035 14.2821 28.7795 14.1094 28.6353C13.9732 28.5212 13.4269 28.4747 13.2678 28.3567C14.2866 28.0564 13.8915 27.9149 13.9544 27.7387C13.9761 27.6772 14.2537 27.6246 14.336 27.5661C14.6408 27.3533 13.7381 27.6068 13.5857 27.5959C12.9346 27.5445 15.006 27.1103 14.9137 26.9179C14.9098 26.909 13.7761 26.9946 13.7041 26.9934C13.2321 26.9705 14.0852 26.897 14.1524 26.8084C14.2739 26.6413 14.5209 26.5036 14.1644 26.4079C14.0596 26.3832 13.3489 26.4162 13.8636 26.2177C13.931 26.1917 14.2978 26.1244 14.3173 26.1105C14.6402 25.8707 13.4911 26.0998 13.0823 26.0802C12.6732 26.0588 13.4371 25.7556 13.659 25.6771C14.2339 25.4772 13.9241 25.6875 13.9829 25.6796C14.6833 25.5903 14.5427 25.5067 14.5837 25.4093C15.7069 25.1674 15.6166 25.0691 14.6224 25.3125C14.5138 25.3394 14.6315 25.3807 14.5837 25.4093C13.4639 25.5584 13.2978 25.4651 14.3008 25.1111C14.7709 24.9449 15.3483 24.8962 15.1017 24.7388C14.9901 24.6665 14.2219 24.8585 13.994 24.8195C13.6159 24.7548 13.8712 24.5409 13.9782 24.3556C14.0191 24.2899 14.0394 24.2292 13.9979 24.1842C13.9427 24.1242 13.5318 24.2765 13.4794 24.2384C13.3389 24.1363 13.635 23.9613 13.447 23.8711C13.4294 23.863 12.9907 23.9802 12.9772 23.9427C12.8653 23.6543 13.0984 23.3422 13.0446 23.0353C13.0181 22.8853 12.7195 22.6696 12.7376 22.5057C12.766 22.2197 13.3458 21.7612 13.1432 21.5667C13.0128 21.4388 12.5749 21.5608 12.2593 21.5581C11.6472 21.5518 12.6549 21.1239 12.8117 21.0616C12.817 21.0596 12.9474 21.1658 13.1618 21.0518C13.6292 20.9164 12.8141 21.0626 12.8117 21.0616C12.9131 21.0216 12.9621 20.7442 12.8668 20.7102C12.8149 20.6923 12.397 20.7925 12.3778 20.7816C11.9324 20.5174 11.7562 20.1964 11.8828 19.808C11.8901 19.8003 12.3629 19.7144 12.3741 19.6973C12.5433 19.4555 11.9412 19.4429 11.5655 19.3454C11.1903 19.2489 11.2784 19.095 12.0672 18.8338C11.9401 18.7288 12.2615 18.4778 12.4577 18.3312C12.6538 18.1845 11.7341 18.3546 11.7141 18.3492C11.0767 18.1816 11.5689 17.914 11.5913 17.6029C11.6037 17.4551 11.415 17.205 11.2843 17.0736C11.1795 16.9703 11.3799 16.8552 11.2204 16.7726C11.199 16.7614 10.7938 16.8584 10.7772 16.857C10.264 16.8322 11.2739 16.6908 11.4471 16.6296C12.0768 16.4074 12.4107 16.2814 12.0741 16.1851C11.997 16.1628 10.5386 16.3453 10.4413 16.2959C10.3174 16.2312 10.839 16.1604 10.6962 16.0953C10.6844 16.0897 10.367 16.155 10.3698 16.0966C10.3787 15.8254 10.5075 15.5081 10.4217 15.2449C10.4112 15.2088 9.91653 15.3568 9.89309 15.3063C9.78366 15.0701 9.74755 14.7925 9.93527 14.5037C9.98306 14.4323 10.3435 14.3991 10.4457 14.3652C11.0642 14.1599 10.12 14.2299 10.0987 14.215C9.5673 13.8593 10.3339 13.355 9.84642 12.9793C9.81814 12.9589 8.79279 12.9674 9.62319 12.7136C9.67841 12.6966 10.5286 12.4401 9.92113 12.4835C9.88313 12.4863 9.44716 12.6271 9.47456 12.5269C9.50172 12.426 9.1753 12.3421 9.64043 12.1172C9.787 12.0466 10.6333 11.7811 9.92048 11.7997C9.87076 11.8012 8.27609 11.9293 9.3385 11.6495C9.51347 11.6039 10.6539 11.3898 10.0423 11.3635C9.92384 11.3588 9.6796 11.4579 9.50701 11.4181C9.24116 11.3575 9.51794 11.1548 8.984 11.1185C8.88958 11.1127 8.09716 11.1648 8.66811 10.9702C8.75753 10.9397 9.14226 10.8886 9.17658 10.8384C9.34131 10.5983 9.0455 10.4364 9.26881 10.1819C9.34692 10.0907 9.96881 10.0077 10.1187 9.89977C10.2684 9.79138 10.3978 9.61151 10.1015 9.58752C9.80488 9.56208 8.84225 9.84035 8.74052 9.73582C8.42337 9.41707 8.581 8.99245 8.69014 8.59211C8.73087 8.43096 8.76562 8.27979 8.76155 8.13095C8.75929 8.05061 8.42062 8.18149 8.39233 8.06888C8.28659 7.65556 7.82315 6.9988 8.50212 6.49361C9.04608 6.09037 9.56866 6.37428 9.77126 6.1078C9.86862 5.9845 8.70472 6.07005 8.66438 6.0524C8.25308 5.86483 8.72723 5.59765 8.531 5.39622C8.49037 5.35494 8.03562 5.4837 8.0062 5.44782C7.90157 5.32591 8.08216 5.14212 8.02158 5.0199C7.99339 4.96554 7.64115 5.03646 7.65896 4.97777C7.69809 4.84143 7.82586 4.69596 8.13654 4.51868C8.16485 4.5025 8.6182 4.50056 8.61797 4.40327C8.61801 4.25545 8.90762 3.98486 8.55421 3.9649C8.5019 3.96618 8.27505 4.01037 8.13299 4.05049C8.06243 4.07257 8.01184 4.08867 8.02057 4.12167C8.0254 4.13993 8.04448 4.16024 8.08693 4.19843C8.10986 4.22398 8.13927 4.25617 8.17902 4.30287C8.21765 4.34357 8.26924 4.42027 8.3715 4.59181C8.44092 4.70723 8.52236 4.76223 8.66916 4.90767C8.81376 5.03727 8.94107 5.12956 9.25314 5.43287C9.29389 5.47186 9.33896 5.51503 9.39066 5.56368C9.44851 5.61773 9.47434 5.64186 9.64186 5.80373C9.9359 6.06293 10.3751 6.48682 11.3535 6.78598C12.3186 7.12847 13.8795 6.83745 14.5602 6.32701C15.3398 5.81631 15.6667 5.27849 15.8623 4.92933C16.0952 4.46517 16.1301 4.25434 16.1863 4.05571C16.2167 3.92899 16.2418 3.83143 16.2715 3.75941C16.3033 3.78566 16.3951 3.83086 16.5759 3.90657C16.7102 3.95946 17.7768 4.47791 17.0234 4.45397C16.8255 4.44665 16.0186 4.3593 16.1262 4.45785C16.1436 4.47244 16.5829 4.52957 16.6107 4.60102C16.7013 4.85055 16.6013 5.06379 16.6794 5.31681C16.701 5.38472 17.1656 5.40996 17.1834 5.50837C17.2325 5.78186 17.0368 6.05851 16.8311 6.25647C16.7543 6.32969 16.4087 6.16385 16.3673 6.15899C15.6958 6.0728 16.5453 6.38451 16.5853 6.43473C16.8245 6.73658 16.3684 6.77553 16.413 7.00387C16.4239 7.06738 16.8461 7.16105 16.8792 7.1837C17.199 7.41376 16.491 7.09008 16.3868 7.13467C16.0924 7.25842 16.0505 7.48817 16.029 7.71088C16.0216 7.793 16.5219 7.87727 16.5093 7.95027C16.443 8.38666 16.2238 8.8123 15.7855 9.12179C15.7021 9.17943 15.3731 8.97304 15.2857 8.95358C14.6774 8.80969 15.3645 9.31927 15.4165 9.39567C15.6607 9.73059 15.3191 9.65453 15.2947 9.84246C15.2941 9.84656 15.2936 9.85065 15.293 9.85474C15.3036 10.514 14.752 11.0944 14.336 11.5666C13.7914 12.1885 13.1547 12.5616 12.7856 13.3108C12.7613 13.3586 13.22 13.5912 13.2041 13.6367C12.9754 14.2148 12.4558 14.6085 12.1598 15.2209C12.1597 15.221 12.1597 15.2211 12.1597 15.2212C12.1442 15.2588 12.5594 15.5155 12.5476 15.5858C12.5265 15.7313 12.4066 15.8407 12.2043 15.8474C12.1067 15.8507 11.8321 15.5269 11.7406 15.5355C11.5261 15.5557 11.4004 15.6597 11.3665 15.8289C11.3528 15.9015 11.8038 16.1301 11.7558 16.2005C11.435 16.6879 11.1476 17.1973 10.2227 17.3186C10.1578 17.3285 9.35345 16.7203 9.43887 16.9207C9.65005 17.1043 9.90429 17.3131 10.1329 17.5058C9.89874 17.8737 9.72019 18.1242 8.96557 18.7668C8.47444 19.1115 7.93594 19.3831 7.43921 19.7402C7.40472 19.7651 7.7965 20.1355 7.73088 20.1862C7.39662 20.4426 7.18322 20.7476 6.5173 20.8651C6.30531 20.9457 6.10642 20.9885 5.91985 20.9988C5.80402 21.0042 5.3827 20.1666 5.23186 20.4065C5.20364 20.4525 4.94943 20.7147 4.95856 20.932C4.96008 20.9649 5.19638 21.3399 5.10094 21.3962C4.55213 21.7091 4.01455 21.7815 3.47825 21.6608C3.39194 21.6401 3.33919 21.1691 3.27796 21.15C2.85375 21.0151 2.55078 21.4566 2.08393 21.1177C1.77472 20.8867 1.71818 20.0751 1.46445 19.3129C1.42917 19.2056 1.28229 19.2101 1.21234 18.7527C1.04194 17.6027 0.902355 16.3369 0.710873 15.1125C0.664825 14.8496 0.688059 15.1363 0.614502 14.4955C0.606475 14.4531 0.594273 14.2387 0.567827 14.0213C0.547718 13.8713 0.467669 13.408 0.441751 13.216C0.414047 13.0245 0.491434 13.4111 0.470938 13.1835C0.449606 12.9531 0.335524 12.4306 0.362349 12.3604ZM13.3337 17.6714C13.7548 17.4874 12.1392 17.7979 12.5459 17.8234C12.5674 17.8243 13.313 17.6807 13.3337 17.6714ZM15.8936 29.1099C16.2503 28.9768 16.1412 28.9378 15.8767 28.9496C15.6788 28.9641 15.3932 29.0083 15.152 29.0635C15.0913 29.0795 15.0337 29.0969 14.9811 29.1155C14.4448 29.3077 15.684 29.19 15.8936 29.1099ZM16.7273 30.4399C17.2363 30.135 14.9756 30.7113 15.4824 30.7745C15.5112 30.7785 16.698 30.4582 16.7273 30.4399ZM1.93178 18.9891C1.92595 18.9681 1.8325 18.9671 1.83525 18.9886C1.89728 19.51 2.09195 19.51 1.93178 18.9891ZM17.6428 31.5471C17.9329 31.4148 17.5455 31.385 17.1844 31.5495C16.8943 31.683 17.2821 31.7128 17.6428 31.5471ZM14.0574 12.3445C14.0811 12.3381 14.0917 12.2782 13.956 12.3064C13.519 12.3972 13.658 12.4501 14.0574 12.3445ZM18.1493 33.7204C18.1018 33.1648 20.0634 32.9689 19.8585 33.1591C19.8248 33.1973 19.2422 33.1941 19.0766 33.2616C18.9289 33.3448 19.1606 33.3536 19.3442 33.3327C19.5299 33.3178 19.6652 33.2805 19.3862 33.4538C19.292 33.5397 18.156 33.7795 18.1465 33.7204C18.1474 33.7204 18.1484 33.7204 18.1493 33.7204ZM15.2597 17.2267C15.2806 17.2205 15.2854 17.1399 15.2639 17.1423C14.7436 17.2038 14.7336 17.3663 15.2597 17.2267ZM14.4176 8.91661C14.4622 8.90304 14.4708 8.72061 14.4273 8.72099C13.5711 8.7921 13.5523 9.16703 14.4176 8.91661ZM17.4805 22.1477C18.0124 22.1274 18.0925 22.2114 17.4598 22.4113C17.4767 22.3183 17.4658 22.238 17.4805 22.1477Z" fill="#FB7139"/>
<path d="M19.3895 39.1146C19.4134 39.255 19.2469 39.136 19.0837 38.9652C19.0323 38.9123 18.9664 38.6278 18.925 38.5794C18.8426 38.4858 18.8398 38.6367 18.7495 38.5244C18.7185 38.486 18.5934 38.0409 18.5631 38.0112C18.3944 37.8525 18.3371 37.9988 18.207 37.9454C18.0132 37.8675 17.8354 37.8215 17.6909 37.7879C17.842 37.3974 17.284 37.6738 16.6587 38.1076C16.4939 38.2163 16.2295 38.2771 15.9858 38.3719C15.8456 38.3918 15.721 38.448 15.6919 38.5933C15.6849 38.6302 15.9792 38.9096 15.9982 38.9377C16.2901 39.3669 15.742 38.7585 15.6223 38.7235C15.1476 38.5873 14.912 38.7761 14.8494 39.0703C14.8235 39.1963 15.4847 39.6687 15.0806 39.4387C15.053 39.4234 14.7585 39.1083 14.7042 39.099C14.5819 39.0783 14.5481 39.2276 14.4864 39.244C14.3654 39.2749 14.357 39.2904 14.2858 39.3607C14.1861 39.4539 13.917 39.4317 13.8892 39.6078C13.8842 39.6463 14.2396 39.9111 14.2613 39.999C14.283 40.0867 14.1651 40.1616 14.0573 40.1259C13.9494 40.0902 13.7046 39.8438 13.6401 39.7966C13.0966 39.3975 13.682 40.1364 13.6856 40.1668C13.729 40.7047 13.1185 40.5929 12.8788 40.8602C12.6975 41.0639 12.6265 41.4007 12.4262 41.5809C12.3629 41.6372 12.29 41.6818 12.2147 41.7205C12.0173 41.816 11.7998 41.8713 11.6802 42.0449C11.6629 42.0693 12.0671 42.3964 12.047 42.4265C11.8339 42.7461 11.5404 42.9843 11.095 42.9763C11.0499 42.9754 10.7194 42.6598 10.652 42.6433C10.5108 42.6113 10.3137 42.5502 10.1742 42.5476C10.1446 42.5418 10.113 42.5513 10.1374 42.4833C10.1463 42.4593 10.1552 42.4455 10.2016 42.3384C10.2163 42.259 10.2931 42.27 10.3095 41.759C10.3037 41.5635 10.2379 41.1976 9.93303 40.8874C9.63146 40.5868 9.30443 40.5154 9.08796 40.4996C8.9781 40.4925 8.89068 40.4995 8.81921 40.5094C8.76574 40.5173 8.74161 40.5227 8.70875 40.5301C8.6477 40.5444 8.60074 40.5597 8.56174 40.5739C8.31178 40.6772 8.33758 40.6898 8.29906 40.7106C8.27173 40.7306 8.2652 40.737 8.25641 40.744C8.21749 40.779 8.24267 40.7226 8.21023 40.6495C8.15721 40.4942 7.9769 40.1977 7.56616 39.6954C7.72208 39.6569 7.91713 39.5823 8.29652 39.7728C8.54132 39.8948 8.82034 40.3146 8.75579 40.0833C8.74193 40.0312 8.4168 39.7409 8.41884 39.6865C8.42318 39.6114 8.44527 39.5623 8.4791 39.5142C8.54436 39.4187 8.64351 39.3451 8.61638 39.1595C8.60791 39.1027 8.33063 38.8292 8.28868 38.7722C7.95132 38.3084 8.69954 38.8906 8.76754 38.9196C9.28054 39.1308 9.25666 38.8749 9.4134 38.7399C9.45 38.7086 9.04468 38.3731 9.06686 38.3295C9.186 38.1092 9.39517 37.9684 9.72543 37.9709C9.79968 37.9725 10.076 38.3253 10.1274 38.3424C10.3506 38.4133 9.78097 37.7934 9.98351 37.8501C10.0255 37.8612 10.2824 38.1434 10.3145 38.1706C10.819 38.5973 10.2085 37.8912 10.2059 37.8651C10.1589 37.5188 10.9312 38.1245 10.9787 37.8863C10.9838 37.857 10.6086 37.5487 10.6434 37.4876C10.8717 37.0799 11.3055 36.8438 11.8934 36.8124C11.9844 36.807 12.2009 37.102 12.2351 37.1311C12.7713 37.5839 12.154 36.8794 12.1457 36.8384C12.0977 36.5321 12.7619 36.9817 12.0756 36.0954C12.5917 35.9394 12.8247 35.4907 13.2453 35.2355C13.4875 35.0885 13.7922 35.0051 14.2429 35.0839C14.2578 35.0859 14.5589 35.4352 14.5871 35.4378C14.9318 35.4711 14.4122 34.9763 13.9342 34.2258C13.8153 34.0364 14.617 34.7365 14.6761 34.7875C14.8969 34.9728 15.3289 35.5066 15.3756 35.5389C15.7445 35.7907 14.2071 34.1241 14.3163 34.0246C14.3222 34.0244 14.5874 34.3472 14.6241 34.3699C14.7388 34.442 14.6561 34.2934 14.7795 34.3757C15.0641 34.5672 15.8172 35.3716 15.486 34.8086C15.4432 34.7354 14.5733 33.7876 14.7127 33.7461C14.769 33.7302 14.9316 33.5603 15.0363 33.5809C15.1402 33.6017 15.3745 33.9465 15.3897 33.9571C15.8767 34.2626 15.973 34.4788 16.5582 35.0468C17.138 35.6155 15.8864 34.1492 15.7762 33.961C15.6666 33.773 16.0529 34.0407 16.1752 34.1439C16.2983 34.2464 16.4352 34.4745 16.5122 34.5266C17.0142 34.8681 15.9713 33.7333 15.827 33.4566C15.4903 32.7979 16.4683 33.8476 16.6524 33.8824C16.7029 33.8912 16.4815 33.6507 16.4877 33.6075C16.5161 33.439 16.8434 33.7506 16.7106 33.3392C16.6881 33.2728 16.2712 32.5118 16.7051 32.9759C16.7673 33.0432 16.9542 33.3478 17.0433 33.3815C17.1211 33.4109 17.2066 33.4173 17.2648 33.3887C17.3065 33.3683 17.3336 33.3299 17.3326 33.2692C17.3309 33.1621 16.9321 32.7256 17.1011 32.8289C17.1762 32.8753 17.3246 33.1914 17.4487 33.2556C17.573 33.3194 17.6961 33.2138 17.74 33.1684C17.7838 33.1229 17.5001 32.778 17.4869 32.7506C17.4131 32.5923 17.3887 32.3474 17.3977 32.3418C17.8126 31.9867 18.6376 32.3374 18.9372 31.8494C18.9614 31.8114 18.6849 31.431 18.686 31.4211C18.6997 31.1787 19.2791 32.2901 19.5846 32.5909C19.0609 31.7947 19.2007 31.91 19.2288 31.7687C19.2416 31.7001 19.0229 31.4018 19.0064 31.3676C18.768 30.8554 19.1953 31.4419 19.2845 31.5608C19.613 31.9978 19.3151 31.425 19.5341 31.7176C19.7511 32.0083 19.9731 32.501 20.0477 32.4467C19.8907 32.1427 19.3615 31.4219 19.3473 31.2608C19.2947 30.6498 20.1006 30.9838 20.3237 30.9404C20.5507 30.8938 20.5805 30.8053 20.7535 30.8501C21.0636 30.9336 20.6694 30.3957 20.6571 30.0581C20.6467 29.7202 21.3481 31.1907 21.5309 31.4896C21.7123 31.7891 21.5621 31.4613 21.673 31.6202C21.7834 31.7792 21.8496 32.0132 21.9319 32.0514C22.0133 32.0898 21.8609 31.4686 21.7152 31.1326C21.4049 30.4212 20.9697 29.7293 21.2478 29.9098C21.2639 29.9207 21.4266 30.3177 21.4783 30.3403C21.6477 30.4118 21.793 30.4353 21.9365 30.45C22.1474 30.4632 22.3463 30.4742 22.5527 30.5873C22.6014 30.6151 22.7061 31.0807 22.7343 31.1026C23.0171 31.3385 22.7268 30.587 22.6449 29.6877C22.9034 30.8462 23.1375 31.5351 23.2911 31.5076C23.3873 31.4906 23.2589 30.9884 23.2421 30.6179C23.2367 30.5063 23.3846 30.8377 23.3429 30.5971C23.2029 29.8117 22.9476 28.9561 23.1671 29.2686C23.1773 29.2835 23.2612 29.7119 23.2894 29.7322C23.4205 29.8265 23.358 29.4407 23.3323 29.1673C23.3713 29.0425 23.4342 28.9341 23.5199 28.8863C23.7665 28.7524 24.1379 29.2221 24.3218 29.2881C24.4473 30.616 24.5649 30.2988 24.5651 29.3766C24.681 29.4055 24.8012 29.3458 24.9143 29.4668C24.9536 29.508 24.9507 29.895 24.9577 29.9364C25.0632 30.5862 25.0614 29.6904 25.0842 29.6541C25.3268 29.301 25.5559 29.9718 25.7785 29.3027C25.7863 29.2787 25.7767 28.3519 25.8598 29.0267C25.8648 29.0732 25.7952 29.4966 25.91 29.5265C26.0237 29.5564 26.246 30.049 26.3944 29.6177C26.4304 29.5138 26.5193 28.7604 26.6021 29.3474C26.6132 29.4271 26.6046 29.693 26.6208 29.8407C26.6723 30.3115 26.692 29.3746 26.7529 30.1699C26.8141 30.9651 26.9306 31.5602 27.0821 31.0108C27.0868 30.9949 27.1225 30.2524 27.1714 30.2641C27.2483 30.2833 27.3618 30.438 27.4416 30.4333C27.4805 30.4308 27.4566 29.9698 27.4634 29.9614C27.729 29.7038 27.9145 30.1159 28.1939 30.297C28.2449 30.3311 28.4012 29.7042 28.495 30.2024C28.5976 30.7479 28.456 33.0091 28.7101 32.4736C28.8128 32.2594 28.9886 29.3907 29.1454 30.8814C29.2184 30.8076 29.2899 30.7807 29.3608 30.7805C29.6348 30.7803 29.8218 31.1918 30.1372 30.8187C30.1536 30.7977 30.3408 30.0167 30.3821 30.0356C30.4423 30.065 30.3987 30.4386 30.4314 30.4709C30.5679 30.6162 30.805 30.35 30.9575 30.4574C31.0139 30.4974 30.8566 30.8518 30.9119 30.8969C30.9633 30.9406 31.2184 30.4948 31.2073 30.7629C31.1998 30.9683 30.7602 31.9158 30.7371 32.0437C31.2641 31.1613 31.3034 31.2072 31.5534 31.0493C31.6026 31.0192 31.7843 30.7099 31.8186 30.6808C31.9662 30.5586 31.8321 30.8275 31.989 30.694C32.0272 30.6624 32.2383 30.3818 32.2824 30.3408C32.673 29.9872 32.2942 30.6968 32.2191 30.8132C31.9503 31.2683 32.268 30.9389 32.1818 31.1344C32.0965 31.3304 31.8644 31.4724 31.8401 31.6139C31.818 31.7542 31.8554 31.851 31.9321 31.9288L31.8785 31.8873C31.9148 31.9523 31.9718 31.993 32.007 32.0443C32.0349 32.0816 32.3636 31.7463 32.3756 31.7442C32.5537 31.7662 32.2124 32.1427 33.0208 31.6708C31.0687 33.0937 33.2609 31.6031 32.9586 32.0383C32.9334 32.0727 31.9494 32.6511 31.7857 32.7032C31.624 32.7583 31.8971 32.5217 31.6544 32.6294C31.592 32.6465 30.7035 33.2434 30.6576 33.2906C30.2624 33.6068 31.5782 32.5216 31.6445 32.4547C32.3848 31.7631 31.4583 32.459 31.4048 32.5196C31.3016 32.5892 31.2509 32.6162 31.2177 32.6241L31.3831 32.7523C31.1974 32.6944 31.1374 32.5808 30.9525 32.6538C30.7752 32.7258 30.0558 33.5805 30.0385 33.5218C30.0244 33.3626 30.9056 32.078 30.093 33.1594C29.9269 33.3953 29.2837 34.4336 29.7971 33.6219C29.8374 33.5751 30.2448 32.7965 29.9803 33.2853C29.9482 33.3476 29.7888 33.6658 29.7764 33.6931C29.6991 33.8705 29.8219 33.6149 29.7698 33.7403C29.7191 33.8664 29.662 34.0611 29.7022 33.9472C29.7294 33.88 29.9086 33.2414 29.9419 33.0821C30.0393 32.6238 29.8251 33.3606 29.9382 32.8056C30.0363 32.2444 30.2934 31.4156 30.2734 31.0351C30.0805 31.9395 29.8828 32.8678 29.6963 33.7788C29.6505 33.7357 29.5749 33.4233 29.4296 33.4567C29.4121 33.4618 29.404 33.9591 29.3867 33.9775C29.356 34.0108 29.3295 33.9612 29.2984 33.9068C29.2239 33.8365 29.1498 33.7581 29.0663 33.8359C28.9495 33.9449 28.8179 34.4691 28.697 34.5999C28.6408 33.5408 28.4584 33.8975 28.3328 33.7993C28.2889 33.7654 28.2949 33.4828 28.2638 33.3903C28.1464 33.048 28.1934 33.9836 28.159 34.1304C28.0142 34.7571 28.0191 32.6406 27.8515 32.6917C27.843 32.6937 27.7268 33.8211 27.7124 33.8913C27.6167 34.3489 27.6989 33.4986 27.6407 33.4149C27.5343 33.2622 27.4592 32.9925 27.333 33.3228C27.2955 33.4207 27.2095 34.1238 27.1382 33.5801C27.1286 33.5089 27.1331 33.136 27.1254 33.1142C26.9866 32.7505 26.9891 33.9223 26.9142 34.3194C26.8395 34.7165 26.7185 33.9087 26.6908 33.6758C26.6217 33.0734 26.7374 33.4177 26.7405 33.3585C26.7755 32.6539 26.6881 32.7759 26.6206 32.717C26.5993 31.5684 26.5052 31.6384 26.551 32.6607C26.556 32.7724 26.6065 32.6647 26.6206 32.717C26.5736 33.8447 26.4764 33.9902 26.3498 32.9387C26.2895 32.4459 26.329 31.8694 26.1709 32.0829C26.1 32.1793 26.1427 32.9696 26.0839 33.1866C25.9529 33.6814 25.7468 32.9488 25.6046 33.0702C25.553 33.1142 25.6198 33.5451 25.5857 33.5901C25.4979 33.7109 25.4015 33.3897 25.3173 33.5603C25.3098 33.5763 25.3511 34.0281 25.3235 34.0352C25.1185 34.0978 24.9243 33.8191 24.7475 33.8275C24.6607 33.8313 24.5702 34.0964 24.5911 34.0429C24.5982 34.0161 24.6095 33.9438 24.7132 33.8238C24.3551 33.707 24.0542 33.465 23.9359 33.6088C23.8297 33.7376 23.9598 34.173 23.9801 34.4851C24.0217 35.0892 23.6957 34.0651 23.6386 33.9086C23.6347 33.9038 23.6654 33.7858 23.5779 33.5679C23.4393 33.1027 23.6378 33.9066 23.6386 33.9086C23.6003 33.8072 23.4942 33.7305 23.5163 33.8151C23.526 33.8617 23.6623 34.269 23.6662 34.2852C23.7078 34.4455 23.7668 34.5464 23.8122 34.5925C23.7756 34.6975 23.6672 34.7348 23.5058 34.6885C23.4985 34.6825 23.2856 34.2517 23.2708 34.2431C23.0544 34.1138 23.2465 34.6773 23.3154 35.0365C23.3825 35.3967 23.2527 35.3351 22.7878 34.65C22.7611 34.7838 22.4678 34.5312 22.2895 34.3786C22.112 34.2256 22.5717 35.0403 22.5754 35.0594C22.696 35.6741 22.324 35.2726 22.092 35.3159C21.9804 35.3354 21.8766 35.5589 21.8343 35.7064C21.8038 35.8229 21.6389 35.6678 21.6454 35.8298C21.6461 35.8516 21.8794 36.1967 21.8851 36.2121C22.0769 36.6808 21.5652 35.7996 21.4511 35.6568C21.0349 35.1382 20.8073 34.8658 20.873 35.194C20.8878 35.2693 21.6218 36.5406 21.6284 36.6388C21.6344 36.765 21.3663 36.3125 21.3801 36.4558C21.381 36.4677 21.5607 36.7374 21.5184 36.7483C21.3252 36.8018 21.0436 36.7642 20.8966 36.9046C20.8757 36.9229 21.1958 37.3267 21.1707 37.3598C21.0544 37.5137 20.878 37.6139 20.5922 37.5217C20.5206 37.498 20.3347 37.1885 20.2648 37.107C19.8397 36.6157 20.317 37.4298 20.3164 37.4522C20.3157 37.508 20.3081 37.5529 20.2949 37.5891C20.1937 37.9045 19.6338 37.5068 19.6476 37.9592C19.6474 37.9895 20.1842 38.8493 19.6014 38.2097C19.5633 38.1666 18.9628 37.5153 19.3064 38.0151C19.3282 38.0461 19.642 38.3773 19.5675 38.3783C19.4919 38.3805 19.6156 38.6727 19.2294 38.3446C19.1086 38.2404 18.4861 37.6121 18.8802 38.2002C18.9063 38.2424 19.8548 39.5231 19.1009 38.7259C18.9769 38.5947 18.218 37.7166 18.5338 38.2312C18.5954 38.3306 18.793 38.5015 18.8616 38.6565C18.9693 38.8936 18.6838 38.7318 18.9569 39.1814C19.0053 39.261 19.4803 39.8931 19.0362 39.489C18.9664 39.4259 18.7191 39.1272 18.6667 39.1163C18.4162 39.0629 18.4744 39.3615 18.1768 39.2719C18.0722 39.2404 17.6671 38.7621 17.5094 38.6795C17.3509 38.5978 17.1536 38.5613 17.3033 38.8132C17.4538 39.0645 18.186 39.7462 18.1731 39.8678C18.1551 40.0381 18.0718 40.1372 17.9524 40.2037C17.7037 40.3409 17.303 40.3258 17.0587 40.4795C17.0052 40.5131 17.2895 40.7353 17.2282 40.8035C17.0042 41.055 16.8166 41.7013 16.0768 41.3613C15.4838 41.0893 15.3764 40.5492 15.074 40.4976C14.9291 40.4738 15.6684 41.3731 15.6787 41.414C15.7889 41.8239 15.3282 41.5547 15.3044 41.7976C15.2997 41.8478 15.6543 42.159 15.6466 42.198C15.6237 42.334 15.3929 42.2656 15.3431 42.3674C15.3214 42.414 15.5781 42.6655 15.5272 42.6763C15.4085 42.7049 15.2356 42.6624 14.9275 42.4924C14.8994 42.477 14.6331 42.1126 14.5656 42.1551C14.4566 42.2253 14.1122 42.097 14.2471 42.4443C14.2878 42.5486 14.8588 43.1384 14.3969 42.7968C14.3002 42.7257 13.6313 42.0011 14.1469 42.6878C14.2323 42.8022 14.9028 43.7528 14.322 43.2846C14.1693 43.1613 13.5637 42.625 13.6142 42.7527C13.6232 42.7721 13.9511 43.0684 13.9499 43.1295C13.9417 43.3383 13.792 43.4182 13.7763 43.6259C13.7719 43.6828 14.1355 43.9658 14.1188 44.0401C14.0762 44.2423 13.8378 44.3117 13.6151 44.3283C13.5327 44.3335 13.3012 44.0316 13.2693 44.0052C12.7526 43.5741 13.3463 44.2562 13.3657 44.3107C13.4174 44.4618 13.3605 44.5014 13.2879 44.5111C13.1976 44.5269 13.0813 44.5048 13.0655 44.6041C13.0574 44.6531 13.3755 44.9448 13.3963 44.978C13.5945 45.3076 13.1054 44.7053 13.0077 44.6807C12.7326 44.6097 12.6351 44.75 12.5494 44.9053C12.5169 44.9641 12.9098 45.2804 12.8765 45.3291C12.8095 45.43 12.7373 45.5164 12.5894 45.6411C12.5518 45.6726 12.5091 45.7071 12.443 45.7582C12.3683 45.8143 12.3243 45.8531 12.0625 46.0367C12.0073 46.0743 11.8837 46.1604 11.7082 46.2647C11.5833 46.3384 11.4277 46.4284 11.1741 46.5444C10.9805 46.631 10.7169 46.7452 10.2892 46.8559C10.1813 46.8833 10.0619 46.9101 9.92739 46.9344C9.8396 46.9505 9.53416 47.0023 9.19397 47.0137C8.52537 47.0362 7.45334 46.9585 6.2891 46.2571C5.06382 45.5885 4.0659 43.9297 3.91116 42.9289C3.79646 42.4297 3.7839 41.9032 3.78995 41.7162C3.79383 41.5033 3.80967 41.3199 3.8299 41.1586C3.90928 40.5388 4.0674 40.1303 4.1121 40.0042C4.24387 39.6533 4.34671 39.4669 4.3989 39.3672C4.52614 39.1335 4.57804 39.0615 4.63065 38.981C4.80547 38.7281 4.8404 38.7073 4.88239 38.6663C5.01929 38.5549 5.18152 38.4546 5.34892 38.3946C5.44358 38.3613 5.70848 38.6452 5.78765 38.687C6.33505 38.987 5.78639 38.3377 5.74952 38.2579C5.57475 37.9009 5.86984 38.0801 5.90434 37.9446C6.05567 37.3319 6.56751 37.0341 6.97992 36.7955C7.00956 36.7806 7.03879 36.7657 7.06731 36.7508C7.55217 36.494 8.11625 36.4133 8.41633 35.937C8.43585 35.9069 8.03134 35.5919 8.04327 35.5616C8.21498 35.1857 8.63176 35.0198 8.80988 34.6051C8.82534 34.5715 8.43272 34.2825 8.44574 34.2173C8.46983 34.0815 8.59095 33.9885 8.78721 34.0044C8.88213 34.0116 9.13375 34.3523 9.22278 34.3541C9.43049 34.3595 9.55731 34.2743 9.60066 34.1153C9.61861 34.0467 9.19339 33.7745 9.24565 33.711C9.59295 33.274 9.95684 32.7798 10.902 32.7909C10.9356 32.7915 11.1413 32.9862 11.3225 33.1453C11.4783 33.3039 11.6133 33.4315 11.5662 33.3486C11.3806 33.1393 11.1592 32.8959 10.959 32.6738C11.1409 32.3265 11.7425 32.0314 13.1016 31.083C13.1623 31.0433 12.7503 30.6792 12.8725 30.5964C13.0796 30.4571 13.3041 30.304 13.5602 30.1611C13.9316 29.9498 14.3119 29.8101 14.8062 30.0122C14.8747 30.04 15.2122 30.9165 15.2895 30.7317C15.3032 30.6977 15.4561 30.5031 15.4371 30.2928C15.4336 30.2613 15.2405 29.8654 15.3035 29.828C15.674 29.6182 16.1182 29.5801 16.5799 29.7302C16.6544 29.7553 16.7119 30.2239 16.7653 30.2459C17.1328 30.4024 17.3914 29.9745 17.842 30.3251C18.1458 30.5637 18.1822 31.3766 18.4088 32.1471C18.4376 32.2555 18.5997 32.2568 18.646 32.7181C18.7292 33.8776 18.8136 35.1477 18.9178 36.3825C18.9261 36.5155 18.9008 36.5131 18.8416 36.5572C18.7836 36.6005 18.7281 36.6907 18.8605 37.0108C18.9066 37.0535 19.0447 37.2567 19.072 37.4729C19.1006 37.6219 19.1322 38.0916 19.1825 38.2806C19.235 38.469 19.1964 38.0763 19.2382 38.3C19.2803 38.5265 19.3731 39.0533 19.3895 39.1146ZM21.4826 33.705C21.1875 33.3579 22.022 34.7757 21.8883 34.3972C21.8808 34.3773 21.4972 33.722 21.4826 33.705ZM29.6818 32.1903C29.6688 31.4603 29.5348 32.5209 29.5404 33.0831C29.5307 33.6437 29.6783 32.411 29.6818 32.1903ZM30.4873 31.8232C30.5916 31.2527 29.8581 33.4679 30.0351 33.0303C30.0446 33.0054 30.4796 31.8557 30.4873 31.8232ZM17.9767 32.4515C17.9817 32.4727 18.0639 32.4776 18.0612 32.4561C18.0031 31.9348 17.8297 31.9271 17.9767 32.4515ZM31.4385 31.7257C31.6086 31.457 31.3059 31.6826 31.0967 32.0171C30.9222 32.2811 31.2221 32.0557 31.4385 31.7257ZM17.146 34.5157C17.1301 34.497 17.0802 34.5078 17.1659 34.6166C17.4421 34.9672 17.4141 34.8296 17.146 34.5157ZM32.3939 32.8574C32.3974 32.7807 32.5961 32.6476 32.8324 32.4675C33.2056 32.1487 33.7672 31.8468 33.903 31.845L33.939 31.9114C33.9788 31.9365 34.0031 31.9811 34.0035 32.0431C34.0004 32.1314 33.3707 32.1379 33.2569 32.305C33.0244 32.5518 34.197 32.2487 33.6264 32.5855C33.5209 32.644 32.3862 32.8612 32.3913 32.858C32.3922 32.8578 32.393 32.8576 32.3939 32.8574ZM20.4337 32.0299C20.421 32.0121 20.3551 32.0275 20.3651 32.0467C20.604 32.5123 20.7348 32.4829 20.4337 32.0299ZM14.4217 35.5321C14.3877 35.5004 14.247 35.5727 14.2732 35.6067C14.8004 36.2829 15.0823 36.1427 14.4217 35.5321ZM24.328 29.3232C24.3594 28.7925 24.4541 28.7227 24.5647 29.376C24.4858 29.3468 24.4113 29.3479 24.328 29.3232Z" fill="#FB7139"/>
</svg>
