<svg width="46" height="43" viewBox="0 0 46 43" fill="none" xmlns="http://www.w3.org/2000/svg">
<path d="M0.116799 19.0518C-0.0667629 18.3263 0.0878558 17.4686 0.310652 16.8142C0.379848 16.6126 0.698859 16.7117 0.761044 16.5705C0.882391 16.2978 0.724862 16.0476 0.870993 15.7758C0.921001 15.688 1.42524 15.7946 1.46615 15.7031C1.68681 15.1948 1.55823 14.7156 1.6663 14.2061C1.91176 13.0487 2.09179 11.909 2.24121 10.7636C2.41436 8.94252 2.94943 6.9574 4.07873 5.2635C4.75672 4.20917 6.08418 3.42302 6.73325 2.61411C6.80708 2.51826 6.46395 2.23073 6.45717 2.18831C6.44717 2.11915 6.44285 2.06651 6.44367 2.02731C6.56443 1.60238 6.94052 2.23295 7.23417 2.14161C8.54749 1.7476 9.60182 1.4028 10.4608 0.972265C10.8234 0.793917 10.206 0.0521009 10.7292 0.422859C10.764 0.448303 10.7857 0.927612 10.9013 0.949596C11.1637 0.997081 11.5796 0.819986 11.7617 0.823369C12.1148 0.830686 12.1671 0.817326 12.4823 0.771725C12.915 0.714571 13.441 0.884508 13.8728 0.735886C13.9645 0.702826 13.7924 0.235657 13.9375 0.139641C14.0853 0.0429449 14.4972 0.0507917 14.6383 0.15535C14.7811 0.259279 14.749 0.64081 14.7785 0.725708C15.0197 1.44227 15.4092 0.40661 15.4697 0.379271C15.5423 0.346268 15.6151 0.3183 15.6882 0.294833C17.3033 -0.0355291 18.4833 0.941464 19.451 1.47095C20.277 1.9167 21.1076 2.31062 21.6126 2.71462C21.7914 2.85878 21.9325 2.99806 22.0346 3.10975C22.9311 3.85136 23.1525 4.41093 23.5943 4.89589C23.6565 4.96907 24.0336 4.5318 24.1122 4.62314C24.5277 5.10906 24.8524 5.57146 25.1217 6.05175C25.6114 6.85869 25.7812 7.56032 25.8417 8.23457C25.852 8.37148 25.328 8.39035 25.3089 8.53417C25.2058 9.41238 24.5265 10.6613 26.7256 10.5445C26.7619 11.0335 26.8037 11.6151 26.4627 12.1107C26.2434 12.4312 25.6607 12.2889 25.9524 12.5578C26.0176 12.6192 26.4627 12.43 26.5255 12.5304C26.7888 12.9519 26.732 13.4762 27.0544 13.8793C27.1212 13.9617 27.5346 13.8611 27.6146 13.8736C28.2641 13.982 27.3196 14.5256 27.2594 14.6146C26.8517 15.2505 27.0604 15.6351 27.1555 16.1267C27.1644 16.1731 27.1722 16.2204 27.1786 16.2689C27.1965 16.409 27.7354 16.1571 27.7731 16.2912C27.9599 16.988 27.9871 17.7177 27.7884 18.403C27.7427 18.5554 27.2474 18.4583 27.2006 18.5324C26.9995 18.8546 27.9199 18.8583 27.7412 19.1686C27.7045 19.2335 27.287 19.2241 27.2421 19.2383C26.5369 19.4568 27.5599 19.5491 27.5848 19.5946C27.9216 20.1571 26.8752 20.5638 27.0414 21.1005C27.0623 21.1653 27.5844 21.0027 27.6109 21.1864C27.7653 22.2423 27.6791 23.3491 27.382 24.3818C27.3348 24.5594 27.2808 24.7298 27.2202 24.9026C27.152 25.0954 26.759 24.9493 26.7101 24.961C25.9448 25.1386 26.9612 25.2906 26.9976 25.3561C27.2581 25.872 26.3751 26.2743 27.559 26.7127C27.0113 28.6789 27.1196 30.9503 25.5547 32.5596C25.4504 32.677 25.3383 32.7866 25.2196 32.8867C25.1953 32.9083 24.764 32.6449 24.7187 32.6862C24.1627 33.1571 24.9156 33.3908 25.4696 34.3198C25.6014 34.5632 24.44 34.2231 24.3574 34.1919C24.0399 34.1029 23.4885 33.5856 23.4189 33.5801C22.8755 33.5283 24.9128 34.9351 24.6562 35.2786C24.6451 35.2864 24.3152 34.968 24.2582 34.9682C24.0819 34.9655 24.1612 35.1588 23.9747 35.1426C23.5437 35.1035 22.5649 34.4043 22.892 35.1069C22.9342 35.1977 24.0579 36.0428 23.7793 36.2706C23.6677 36.3617 23.2859 36.8389 23.1058 36.9038C22.9257 36.9703 22.6642 36.5836 22.6414 36.5799C21.8971 36.5175 21.8246 36.2257 21.0193 35.7982C20.8183 35.6913 20.7684 35.6967 20.8081 35.7685C20.9273 35.9828 21.8466 36.7926 21.9286 36.9638C22.0362 37.1942 21.4459 37.1039 21.2645 37.0447C21.084 36.9853 20.9462 36.7137 20.8267 36.6982C20.0501 36.5885 21.4295 37.576 21.5528 37.9269C21.8318 38.7672 20.5195 37.8637 20.17 37.9747C20.074 38.0058 20.3681 38.219 20.3286 38.2992C20.1573 38.6218 19.6968 38.3765 19.6815 38.9627C19.6836 39.0552 19.9994 40.0003 19.4177 39.5743C19.3354 39.5117 19.1692 39.1514 19.0013 39.1671C18.7504 39.1905 18.3964 39.3324 18.2717 39.566C18.181 39.7381 18.6936 40.1714 18.3974 40.123C18.2674 40.0992 18.2208 39.6873 17.9977 39.6658C17.7781 39.644 17.4005 39.8781 17.2527 39.9679C17.1086 40.0579 17.4131 40.4469 17.4162 40.4822C17.4274 40.6891 17.2121 41.0545 17.1814 41.0669C16.3436 41.5103 15.2897 41.5086 14.6572 41.555C14.0583 41.669 13.4795 41.7696 12.8681 41.9603C12.7468 41.9967 12.8924 42.4944 12.8745 42.5052C12.4352 42.7681 12.6475 41.3782 12.3507 40.9446C12.4573 41.9782 12.276 41.8077 11.9756 41.9194C11.8283 41.9728 11.8976 42.3763 11.8837 42.4174C11.6197 43.0224 11.49 42.2169 11.4747 42.0533C11.3938 41.4493 11.1561 42.1248 11.1163 41.716C11.0942 41.3123 11.3761 40.7686 11.1406 40.7342C10.9951 41.085 11.0249 42.0816 10.7703 42.1922C10.7611 42.196 10.7519 42.1997 10.7427 42.2033C10.5244 42.2069 10.2001 42.1475 9.87185 41.8991C9.54081 41.6552 9.32206 41.2491 9.24834 40.953C9.10384 40.3451 9.21198 40.0263 9.29239 39.7545C9.47097 39.2439 9.7833 38.8913 9.96255 38.738C10.25 38.3137 10.5275 38.1308 10.6854 37.9734C11.2179 37.4913 11.3298 37.3407 11.6992 37.2038C12.3611 36.9948 11.7353 36.5697 11.8859 36.055C12.0463 35.5441 12.8693 37.1333 13.1298 37.4172C13.3853 37.7052 13.214 37.3476 13.3825 37.488C13.5493 37.6296 13.5791 37.9198 13.7431 37.9071C13.9025 37.8959 13.8863 37.11 13.7352 36.7366C13.4049 35.9502 12.7791 35.2869 13.3142 35.3368C13.3444 35.3408 13.509 35.7845 13.6124 35.7796C14.4298 35.726 15.1037 35.4086 15.8848 35.3921C15.9926 35.3905 16.1339 35.8979 16.1986 35.9026C16.8652 35.9598 16.3076 35.2536 16.2134 34.2295C16.6736 35.442 17.1562 36.0916 17.5577 35.9278C17.7997 35.8303 17.5408 35.3263 17.5456 34.8924C17.5475 34.7614 17.871 35.048 17.8026 34.7889C17.5808 33.9412 17.0428 33.1081 17.631 33.2898C17.6569 33.2991 17.7685 33.754 17.8459 33.7657C17.847 33.7658 17.8481 33.7658 17.8492 33.7658C18.3969 33.7606 18.1776 32.8767 18.7344 32.6183C19.1757 32.4167 20.0236 32.8362 20.4818 32.871C20.6637 34.3142 21.0196 33.9345 21.0866 32.9191C21.3817 32.9286 21.6874 32.843 21.9763 32.9573C22.0748 32.9963 22.0486 33.4214 22.0644 33.4658C22.3075 34.1618 22.3468 33.1794 22.4075 33.1361C22.9202 32.7943 23.4046 33.1857 23.8774 32.9478C23.9895 32.891 24.107 32.7982 24.2198 32.6515C24.2402 32.6242 24.2171 31.6127 24.4331 32.3394C24.4468 32.3896 24.2647 32.8608 24.5646 32.8791C24.8679 32.8972 25.4534 33.4107 25.8474 32.9263C25.9424 32.8095 26.168 31.9795 26.3944 32.6133C26.4246 32.6994 26.4049 32.9902 26.4495 33.15C26.5935 33.6595 26.6281 32.6361 26.8039 33.4991C26.9795 34.3621 27.2971 35.0029 27.6942 34.3951C27.7066 34.3774 27.7874 33.5655 27.918 33.5758C28.1265 33.5927 28.4248 33.7565 28.6413 33.7484C28.7451 33.7442 28.6723 33.2423 28.6902 33.2328C29.39 32.9427 29.8941 33.3886 30.6417 33.5867C30.778 33.6239 31.181 32.9413 31.4413 33.4871C31.7244 34.0849 31.3919 36.5478 32.0558 35.9717C32.319 35.7418 32.7448 32.6183 33.1828 34.2559C33.523 34.123 33.8499 34.1496 34.1704 34.2151C34.7489 34.333 35.3025 34.5758 35.9299 34.2507C35.9726 34.2282 36.1717 33.3661 36.2711 33.3856C36.4181 33.416 36.4696 33.8299 36.5719 33.865C37.0038 34.0231 37.4408 33.7112 37.8636 33.8074C38.0222 33.843 37.9261 34.2579 38.1147 34.3009C38.3042 34.3438 38.4924 33.8042 38.7242 34.1002C38.8991 34.3258 38.9645 35.4778 39.2024 35.64C39.3473 34.5279 39.5224 34.5719 39.8781 34.319C39.9466 34.2699 39.9308 33.8743 39.9659 33.8311C40.1093 33.6467 40.1778 33.982 40.3197 33.78C40.3542 33.7316 40.4064 33.3521 40.4376 33.2911C40.7065 32.7579 40.9041 33.6557 40.9366 33.812C41.0621 34.4054 41.2288 33.9264 41.3544 34.1718C41.4776 34.417 41.2035 34.6596 41.3648 34.8213C41.4421 34.8977 41.5271 34.9573 41.6149 35.0046C41.919 35.1661 42.2804 35.1892 42.5726 35.2513C42.7242 35.2811 42.7038 34.7595 42.7274 34.7521C43.0583 34.6756 43.3241 35.2721 43.6122 34.2786C43.5655 35.7026 43.6701 35.5245 43.7841 35.1413C43.8888 34.814 44.0062 34.3394 44.2012 34.5849C44.2315 34.6278 44.2834 35.8741 44.1185 36.0545C44.0102 36.172 43.8716 36.0419 43.7256 36.0107C43.6479 35.9943 43.5643 36.0054 43.4713 36.0948C43.4171 36.1588 42.9195 37.2678 42.867 37.3298C42.4614 37.8244 42.7466 35.9842 42.7442 35.8805C42.7599 34.7647 42.2416 35.9535 42.1481 36.0266C41.864 36.243 41.6502 36.1893 41.4338 36.1889C41.3201 36.1892 41.2035 36.2045 41.0806 36.2866C40.8488 36.4378 40.6537 37.6413 40.5026 37.5817C40.0036 37.386 40.0365 35.6748 39.3533 37.0741C39.208 37.3729 39.1497 38.7076 38.9019 37.6222C38.8882 37.5539 38.7166 36.5686 38.4851 37.1526C38.4562 37.2263 38.4134 37.6122 38.3831 37.6416C38.1803 37.8312 38.0949 37.5108 37.8845 37.6377C37.6741 37.7646 37.4193 37.9611 37.2103 37.8091C37.0839 37.718 36.9778 36.982 36.9271 36.7998C36.7879 36.2752 36.5199 37.0922 36.4566 36.4672C36.3899 35.8389 36.6959 34.9173 36.4182 34.4928C36.3277 35.4976 36.2212 36.5278 36.1251 37.5378C35.4776 37.452 34.8524 37.0859 34.1918 37.099C34.1099 37.1017 34.1676 37.6473 34.0796 37.6642C34.0574 37.6683 34.0354 37.6708 34.0136 37.6718C33.6737 37.6877 33.3795 37.3431 33.0129 37.4763C32.7104 37.588 32.3709 38.1535 32.0585 38.2918C31.8926 37.1337 31.4185 37.5175 31.0823 37.409C30.9642 37.3714 30.9749 37.0632 30.891 36.9619C30.5738 36.5876 30.7171 37.6088 30.6291 37.7688C30.2545 38.4522 30.2283 36.1432 29.7795 36.201C29.7549 36.2032 29.4727 37.4351 29.4345 37.5121C29.1878 38.0135 29.3902 37.084 29.2324 36.9943C28.9438 36.8305 28.7391 36.5388 28.4067 36.9045C28.3096 37.0127 28.0892 37.7837 27.8877 37.1945C27.8609 37.1174 27.8663 36.7104 27.8455 36.687C27.4699 36.298 27.4896 37.5765 27.2957 38.0146C27.1015 38.4526 26.757 37.5807 26.683 37.3289C26.4893 36.6771 26.8046 37.0435 26.8116 36.9788C26.8965 36.2075 26.6657 36.3469 26.4821 36.2885C26.4125 35.0368 26.1589 35.1214 26.293 36.233C26.3083 36.3544 26.4438 36.2325 26.4821 36.2885C26.3672 37.5229 26.1044 37.6901 25.7518 36.5554C25.5846 36.0238 25.6924 35.3897 25.2652 35.6401C25.0734 35.7535 25.1918 36.6116 25.0325 36.8555C24.7853 37.2341 24.4543 36.9978 24.1415 36.8576C23.9865 36.7921 23.8404 36.7471 23.7101 36.7969C23.5643 36.8533 23.7428 37.3143 23.6438 37.3691C23.3828 37.516 23.1183 37.18 22.8655 37.3818C22.8428 37.4007 22.9398 37.8891 22.8582 37.9018C22.2439 38.0083 21.6855 37.7399 21.1125 37.8047C20.8299 37.8358 20.4325 38.1777 20.2241 38.1706C19.984 38.1639 19.6934 37.9278 19.4613 37.8317C19.2231 37.8162 19.0156 37.8391 18.8792 37.9653C18.6408 38.1858 18.8931 38.6168 18.9076 38.9766C18.9414 39.6713 18.0781 38.7748 17.9463 38.6361C17.9413 38.6316 18.1313 38.4188 17.9006 38.2439C17.6094 37.7947 17.9477 38.633 17.9463 38.6361C17.8632 38.5441 17.3445 38.6603 17.2954 38.7899C17.2684 38.8602 17.4985 39.2695 17.481 39.298C17.0557 39.9677 16.5571 40.3645 15.9273 40.4863C15.9132 40.4838 15.6577 40.0258 15.6273 40.0258C15.1951 40.0145 15.3478 40.682 15.3738 41.1287C15.3976 41.5782 15.2378 41.5442 14.5717 40.9287C14.5357 41.1065 14.1792 40.9053 13.9855 40.7621C13.7825 40.6309 14.6416 41.1841 14.6661 41.1835C14.823 41.1887 14.975 41.0993 15.1034 40.9085C15.0246 41.1964 15.0136 41.2295 14.9709 41.2936C14.9334 41.3446 14.8885 41.3632 14.8449 41.3595C14.8017 41.3543 14.7603 41.3296 14.7386 41.2502C14.7143 41.1605 14.7255 41.0579 14.7345 40.6346C14.7144 40.3872 14.8066 39.9616 14.3897 38.9882C14.007 37.9547 12.5217 36.9967 11.8443 36.9222C11.9108 36.8895 11.9555 36.8249 11.9846 36.7683C12.0224 36.6808 12.0503 36.92 12.0929 36.7645C12.0978 36.7438 12.0623 36.2908 12.0628 36.2733C12.042 35.7298 12.1314 36.8365 12.1634 37.0328C12.2925 37.7441 12.4465 38.1133 12.5419 37.7449C12.578 37.6574 12.264 36.0868 12.2589 35.9898C12.274 35.8609 12.4298 36.4131 12.4553 36.2576C12.4577 36.2447 12.3381 35.9122 12.3825 35.9124C12.3995 35.912 12.4176 35.912 12.4368 35.9122C13.0351 35.7264 13.3088 35.7221 13.5565 35.69C13.7935 35.6647 13.9717 35.6393 14.1197 35.5649C14.1635 35.5442 13.906 35.0426 13.9596 35.0063C14.2094 34.8364 14.4657 34.7346 14.8579 34.8091C14.9559 34.8284 15.1162 35.1898 15.1901 35.2815C15.6508 35.8288 15.249 34.8693 15.2526 34.8433C15.4568 34.1207 16.4347 34.5246 16.6887 33.6795C16.7061 33.628 16.1445 32.6413 16.9135 33.2019C16.9634 33.2406 17.7571 33.8082 17.371 33.2569C17.3462 33.2231 16.9248 32.9464 17.0685 32.8678C17.1517 32.8228 17.1596 32.6616 17.2667 32.5771C17.3535 32.5046 17.4853 32.4721 17.722 32.5417C17.9031 32.5968 18.7553 33.0864 18.3365 32.4007C18.3102 32.3499 17.2291 30.9508 18.2149 31.637C18.3768 31.7502 19.3323 32.5822 19.0081 31.9582C18.9435 31.8391 18.6693 31.7274 18.6161 31.5153C18.5302 31.193 18.9555 31.2044 18.6294 30.7009C18.5747 30.608 17.9632 29.9916 18.5478 30.2943C18.6402 30.3405 18.9668 30.6107 19.0377 30.5922C19.3806 30.4993 19.2435 30.1763 19.5494 30.2146C19.6589 30.224 20.2662 30.5385 20.4571 30.5609C20.5178 30.568 20.5802 30.5685 20.628 30.5608C20.7586 30.4748 20.8278 30.3346 20.6603 30.1746C20.4134 29.9418 19.3446 29.6946 19.3237 29.4963C19.2184 28.6673 20.0134 28.1106 20.2376 27.2636C20.2699 27.1403 19.8698 27.1866 19.8877 27.0053C19.9605 26.3293 19.6633 25.1105 20.4844 24.4503C20.5131 24.4274 20.5414 24.4065 20.5695 24.3876C21.1902 23.8949 21.6642 24.6044 21.9219 24.1407C22.0504 23.9064 20.7838 23.6614 20.7438 23.6067C20.3371 23.0698 20.8949 22.6981 20.7158 22.2273C20.6786 22.1303 20.1671 22.234 20.1411 22.1518C20.0475 21.873 20.2701 21.576 20.2207 21.3131C20.1974 21.1953 19.8063 21.2289 19.8332 21.1204C19.8928 20.8607 20.0488 20.63 20.4044 20.3645C20.4368 20.3399 20.9308 20.4724 20.9402 20.2807C20.9538 19.9723 21.2937 19.5669 20.8953 19.2474C20.7754 19.1524 19.8827 19.2183 20.482 18.955C20.6069 18.9004 21.6838 18.8652 20.736 18.6942C20.5783 18.6592 19.293 18.3852 20.0732 18.1079C20.2789 18.0345 21.1367 17.7948 20.9844 17.696C20.9605 17.6837 20.4914 17.8059 20.4328 17.7193C20.3298 17.5616 20.2803 17.396 20.2278 17.2371C20.1724 17.0469 20.1165 16.8639 20.0134 16.6842C19.9555 16.586 19.4901 16.8229 19.4195 16.6751C19.2244 16.2678 19.2582 15.7199 19.337 15.284C19.3669 15.123 19.7915 15.1526 19.8337 15.1337C20.5193 14.8258 19.5305 14.8985 19.4633 14.8523C19.0575 14.5568 19.4587 14.1988 19.2719 13.899C19.2217 13.8172 18.7748 13.9754 18.7301 13.9663C18.2922 13.8713 19.1459 13.8321 19.2125 13.6972C19.4021 13.3207 19.2856 12.9733 19.1529 12.6806C19.1034 12.5736 18.6049 12.8282 18.5668 12.7319C18.3335 12.173 18.2269 11.6185 18.3728 11.1496C18.4014 11.0619 18.8098 10.9567 18.8941 10.9084C19.478 10.5561 18.5736 10.7647 18.4889 10.7898C18.0859 10.8621 18.4101 10.687 18.3449 10.7111C18.3147 10.7313 18.302 10.77 18.3186 10.8355C17.9497 10.4687 17.6396 10.0466 17.4391 9.73854C17.3411 9.5865 17.2692 9.46443 17.271 9.42412C17.2789 9.38328 17.3409 9.43374 17.6897 9.63388C17.5254 9.50535 17.3886 9.38973 17.273 9.28887C16.5255 8.62172 16.2774 8.24767 16.0495 7.98469C15.8429 7.72783 15.7375 7.64309 15.8346 7.71531C15.8488 7.72361 15.7464 8.27249 15.7668 8.28797C15.8325 8.32765 15.9244 8.34589 16.0162 8.34499C15.3215 8.38388 14.6454 8.3314 14.0582 8.53497C13.9973 8.55541 14.1553 9.0679 14.0637 9.11803C13.8749 9.22477 13.6404 9.23373 13.4362 9.10142C13.3352 9.0382 13.3643 8.56997 13.2615 8.51617C13.0204 8.39047 12.7983 8.40489 12.6563 8.53424C12.5984 8.5899 12.848 9.08048 12.7694 9.11019C12.4038 9.25471 12.4088 9.38022 12.5002 9.06626C12.2116 9.19763 12.0168 9.18715 11.7446 9.14823C11.6909 9.13577 10.8432 8.43341 10.9459 8.63893C11.1764 8.83902 11.4529 9.06787 11.7026 9.27766C11.5971 9.53881 11.486 9.65809 11.3324 9.87782C11.1839 10.0913 11.0163 10.4158 10.9669 10.8627C10.9598 10.9765 10.9538 11.0895 10.949 11.2017C10.9458 11.2791 11.5297 11.1517 11.5266 11.3012C11.509 12.173 11.6642 13.0142 11.0823 13.9021C11.0255 13.9902 10.0006 13.9414 10.1551 14.2015C10.1832 14.2499 10.3194 14.6376 10.5419 14.741C10.5755 14.7546 11.0539 14.6837 11.0678 14.8091C11.1406 15.5349 11.0347 16.2997 10.7513 17.0178C10.7046 17.1328 10.1937 17.0159 10.1561 17.1002C9.89338 17.6912 10.2928 18.3171 9.85195 18.8349C9.55608 19.1724 8.67078 19.0946 7.81681 19.325C7.69619 19.3632 7.69182 19.5293 7.1919 19.5843C5.94015 19.7957 4.54277 19.8064 3.20793 20.029C3.13667 20.0453 3.10473 20.0783 3.09428 20.1674C3.08406 20.249 3.08576 20.3575 3.11948 20.5919C3.13312 20.6913 3.18916 20.9694 3.332 21.2962C3.35445 21.3453 3.35604 21.3562 3.40417 21.4467C3.45424 21.5393 3.51481 21.6404 3.59031 21.7485C3.74019 21.9635 3.95642 22.2125 4.24676 22.4367C4.82543 22.9114 5.67411 23.093 5.97679 23.1114C6.30098 23.1284 6.18146 23.1944 5.55622 23.1251C4.93302 23.0791 3.90136 22.5159 3.48161 21.9553C3.36644 21.8198 3.2733 21.6908 3.196 21.5726C3.12544 21.4644 3.11017 21.4496 3.07025 21.3889C3.00036 21.285 2.93886 21.1849 2.88425 21.0923C2.77527 20.909 2.69005 20.7374 2.62978 20.6745C2.61171 20.6517 2.55562 20.5104 2.50529 20.4031C2.45765 20.3177 2.40049 20.2013 2.34638 20.1427C2.2342 19.9938 2.10884 19.9009 1.9855 19.8583C1.81601 19.8078 1.31336 19.9602 1.09312 19.8509C0.872985 19.7353 1.29429 19.5833 1.03795 19.4301C0.778843 19.2723 0.198545 19.3717 0.116799 19.0518ZM12.9639 40.4622C12.451 40.4151 14.1121 41.0957 13.7621 40.8215C13.7436 40.8066 12.9892 40.4646 12.9639 40.4622ZM34.9339 35.738C34.7054 34.9321 34.4594 36.0851 34.6158 36.7055C34.7698 37.3253 35.0013 35.9823 34.9339 35.738ZM37.7948 35.3838C37.5364 34.7312 37.2463 37.2599 37.6286 36.7804C37.6504 36.7534 37.8099 35.4217 37.7948 35.3838ZM7.53118 18.4483C7.50742 18.4533 7.48943 18.621 7.5132 18.6227C8.08559 18.6911 8.12127 18.3616 7.53118 18.4483ZM40.6785 35.098C40.6269 34.7429 40.2842 35.097 40.3499 35.5381C40.4014 35.8926 40.7424 35.5396 40.6785 35.098ZM19.5749 37.3318C19.5951 37.3497 19.7015 37.2852 19.5974 37.1754C19.2615 36.8232 19.2335 37.0343 19.5749 37.3318ZM45.707 35.4305C44.8804 35.4486 44.4195 33.3514 45.0929 33.5345C45.2252 33.5637 44.8897 34.2294 45.0705 34.4015C45.4383 34.7102 45.4352 33.3765 45.857 34.0163C45.9488 34.1318 45.7654 35.434 45.7061 35.4336C45.7064 35.4325 45.7067 35.4315 45.707 35.4305ZM10.9414 39.7099C10.9174 39.704 10.8327 39.8561 10.854 39.8685C11.3573 40.1448 11.5115 39.8786 10.9414 39.7099ZM24.98 32.205C25.0319 32.2144 25.2259 31.842 25.1863 31.8114C24.3869 31.2946 24.0082 32.0069 24.98 32.205ZM20.494 32.9086C20.6164 32.3146 20.8547 32.2193 21.0856 32.9184C20.8893 32.9011 20.6939 32.9182 20.494 32.9086Z" fill="#FB7139"/>
</svg>
