<svg width="34" height="40" viewBox="0 0 34 40" fill="none" xmlns="http://www.w3.org/2000/svg">
<path d="M0.950237 0.0610189C1.52421 -0.0952978 2.27834 0.0718422 2.84908 0.301252C3.02832 0.372404 2.94002 0.690453 3.06279 0.753888C3.15626 0.802868 3.24996 0.807977 3.34556 0.805438C3.48077 0.801566 3.62875 0.779913 3.76902 0.86888C3.84752 0.919258 3.74962 1.42305 3.83222 1.46434C4.28784 1.68699 4.72166 1.55871 5.18307 1.6659C7.45748 2.19481 9.69607 2.38581 12.0018 2.62176C12.7633 2.69913 13.683 3.15961 14.4725 2.9635C14.5648 2.94015 14.512 2.49769 14.5297 2.46133C14.8069 1.90475 14.7086 2.79698 14.8889 2.91653C15.5992 3.38858 16.3818 3.43443 17.0737 3.27006C17.3663 3.19888 17.0824 2.31783 17.3702 2.81362C17.3907 2.84713 17.3105 3.31595 17.3916 3.36683C17.4744 3.4184 17.5895 3.43044 17.701 3.43167C17.846 3.43326 17.9868 3.41899 18.064 3.44054C18.3375 3.51866 18.3857 3.51477 18.6447 3.5251C19.0027 3.54353 19.4235 3.78777 19.8096 3.69447C19.8944 3.67325 19.7998 3.18831 19.9366 3.11111C20.0708 3.03376 20.4247 3.08873 20.5357 3.20752C20.6519 3.32639 20.5827 3.70204 20.6 3.78964C20.7357 4.52818 21.1878 3.53717 21.2488 3.51594C22.2417 3.14704 23.0539 3.79355 24.0055 3.93347C24.489 4.00271 25.0369 4.024 25.4346 4.05124C25.9981 4.14017 26.6356 4.48976 27.0115 4.90198C27.3987 5.31329 27.5793 5.71509 27.6879 6.04029C27.8903 6.6952 27.8664 7.14294 27.7953 7.59164C27.768 7.74487 27.7302 7.89639 27.6786 8.05187C27.2636 9.1534 26.5807 9.74881 26.0697 10.4693C26.0106 10.5494 26.526 10.8122 26.4511 10.9144C25.6489 11.9934 24.6873 12.7298 23.5762 13.0985C23.4646 13.1343 23.2772 12.6529 23.1494 12.6637C22.3647 12.7488 21.0326 12.4594 21.8756 14.4857C21.4584 14.6533 20.9639 14.8534 20.4127 14.6736C20.0619 14.5554 19.9876 13.9704 19.8488 14.3205C19.8174 14.3986 20.1324 14.7635 20.0668 14.8498C19.7874 15.215 19.3109 15.3095 19.0858 15.7208C19.0413 15.805 19.2722 16.1624 19.2908 16.2399C19.4304 16.8737 18.6624 16.1362 18.573 16.1033C18.2642 15.9813 18.0111 16.0449 18.0539 15.9856C17.8265 16.1359 17.6584 16.3414 17.425 16.5101C17.3226 16.5837 17.7867 16.9478 17.6995 17.0355C17.2408 17.4851 16.7001 17.8092 16.1091 17.9272C15.9767 17.9525 15.7802 17.494 15.7021 17.4862C15.3607 17.4574 15.863 18.2276 15.5642 18.2057C15.5018 18.2023 15.2698 17.8559 15.235 17.8249C14.6841 17.3434 15.2185 18.2174 15.2109 18.2524C15.21 18.2561 15.209 18.2597 15.208 18.2632C15.3754 18.1284 15.6329 17.9125 15.8489 17.4371C16.0799 17.068 16.0959 15.9479 15.7447 15.461C15.3792 14.8891 15.2679 14.8912 15.1195 14.7588C14.9827 14.6591 14.88 14.6041 14.799 14.5633C14.5822 14.456 14.5056 14.4431 14.473 14.4332C14.395 14.4156 14.4049 14.4374 14.4142 14.4663C14.4375 14.5262 14.5043 14.6339 14.5736 14.744C14.7176 14.9649 14.8905 15.2007 15.1222 15.1384C15.1782 15.1222 15.0817 14.5901 15.2373 14.5766C16.27 14.4804 17.4146 14.6429 18.4797 15.0798C18.6451 15.1469 18.521 15.5407 18.5307 15.5896C18.6919 16.3537 18.8186 15.3345 18.8721 15.2967C19.3081 15.0255 19.6971 15.8857 20.005 14.673C20.9207 14.895 21.8414 14.8344 22.7608 14.8617C23.8292 14.8867 24.9494 15.1521 25.7946 15.9655C25.8162 15.985 25.6302 16.4543 25.6722 16.4907C26.1621 16.9397 26.2767 16.1583 27.0451 15.4276C27.2517 15.2498 27.1126 16.4455 27.0958 16.5319C27.0607 16.8577 26.6587 17.497 26.664 17.5656C26.6893 18.0994 27.7103 15.8422 28.0922 16.0368C28.1014 16.0462 27.8437 16.4253 27.8527 16.481C27.8774 16.6542 28.0535 16.5438 28.066 16.7301C28.0934 17.1624 27.5292 18.2223 28.1674 17.7976C28.2509 17.7443 28.9491 16.5207 29.2187 16.7805C29.3277 16.8823 29.8566 17.2398 29.9353 17.4239C30.0149 17.6036 29.638 17.8812 29.6361 17.9047C29.6045 18.6502 29.3143 18.7347 28.8914 19.5367C28.4582 20.3288 29.8054 18.7138 30.0311 18.6004C30.2569 18.4873 30.1563 19.0668 30.0896 19.2412C30.0245 19.4161 29.7601 19.5609 29.74 19.6759C29.6087 20.4308 30.604 19.0593 30.9423 18.9228C31.0337 18.8864 31.1021 18.8701 31.1512 18.8699C31.7044 19.0452 30.9158 20.0802 30.9493 20.3849C30.9631 20.4848 31.2243 20.232 31.2981 20.2886C31.5892 20.5298 31.2416 20.9173 31.7994 21.0661C31.888 21.0831 32.8816 21.0219 32.3115 21.4613C32.2283 21.5219 31.8389 21.5904 31.8044 21.7459C31.7532 21.979 31.7833 22.3349 31.9673 22.4968C32.1041 22.6182 32.6663 22.2617 32.5324 22.5111C32.4717 22.6209 32.067 22.5694 31.9816 22.7635C31.8963 22.9539 32.0132 23.3413 32.0599 23.4887C32.1077 23.6356 32.5619 23.4448 32.5966 23.4493C32.7971 23.4811 33.0915 23.7345 33.0961 23.7622C33.3424 24.7462 33.0406 25.7315 32.9811 26.6604C32.9625 27.0598 32.9444 27.4417 32.9743 27.8376C32.9817 27.9526 33.499 27.9383 33.5054 27.9565C33.664 28.3932 32.3575 27.8978 31.8707 28.0646C32.9017 28.198 32.6945 28.319 32.7508 28.599C32.7779 28.7353 33.1852 28.7567 33.223 28.7768C33.7735 29.1142 32.9689 29.064 32.8056 29.0496C32.2007 29.0115 32.8383 29.3314 32.4329 29.2979C32.0329 29.2559 31.5272 28.9171 31.4674 29.1299C31.8003 29.3092 32.7829 29.4333 32.8723 29.6664C33.2103 30.5976 31.9018 31.533 31.5479 31.9395C31.1919 32.3774 31.1444 32.5621 30.8495 32.7521C30.3117 33.0834 31.021 33.3331 31.0449 33.8429C31.0552 34.358 29.8011 33.0831 29.4727 32.8828C29.3195 32.7856 29.2994 32.7979 29.2996 32.8292C29.301 32.8626 29.3263 32.9212 29.2236 32.8705C29.0317 32.7712 28.9078 32.5197 28.7732 32.5527C28.654 32.5735 28.878 33.2992 29.0977 33.6356C29.5789 34.3377 30.3152 34.8776 29.7762 34.9276C29.7458 34.9289 29.5062 34.5209 29.4059 34.5431C28.6268 34.7207 28.0456 35.0824 27.3145 35.161C27.2153 35.1699 27.0111 34.6858 26.9511 34.6854C26.3238 34.6764 26.9423 35.3252 27.1618 36.3231C26.5731 35.1677 26.0386 34.5648 25.6919 34.7474C25.4797 34.8578 25.7864 35.3342 25.8345 35.7606C25.8488 35.8893 25.5119 35.6282 25.6087 35.8775C25.9179 36.6961 26.5187 37.482 25.9465 37.3401C25.9212 37.3323 25.7592 36.8809 25.6878 36.885C25.2251 36.9072 25.583 37.7445 25.2063 38.0473C24.9094 38.2856 24.0875 38.0508 23.6776 38.129C23.1037 36.792 22.8972 37.2436 23.1378 38.2301C22.8777 38.2945 22.6326 38.4556 22.343 38.4212C22.2436 38.4097 22.1425 37.9965 22.1154 37.9583C21.6981 37.3553 21.9489 38.305 21.9084 38.3617C21.4609 38.9328 20.7405 38.4071 20.4176 39.2814C20.4066 39.3125 20.6973 40.2817 20.3095 39.6332C20.2842 39.588 20.323 39.0901 20.0479 39.1445C19.9726 39.1592 19.8679 39.1435 19.7515 39.1239C19.4224 39.0793 19.0314 38.9869 18.8264 39.3844C18.7633 39.5157 18.6806 40.3751 18.3543 39.7852C18.3116 39.7048 18.284 39.4148 18.2167 39.2635C18.006 38.7806 18.1215 39.7983 17.8347 38.967C17.5465 38.1356 17.206 37.5336 16.9214 38.1724C16.9129 38.191 16.923 39.0059 16.8 39.0069C16.6061 39.0077 16.3201 38.8658 16.1227 38.887C16.0282 38.8975 16.1289 39.3938 16.1131 39.4043C15.4793 39.736 14.9854 39.3092 14.2958 39.1309C14.1709 39.0973 13.8133 39.7888 13.5635 39.2478C13.2928 38.6552 13.5562 36.187 12.9634 36.7742C12.7276 37.0085 12.3798 40.1381 11.9545 38.509C11.3507 38.7799 10.7867 38.4518 10.2028 38.418L10.231 38.4191C9.98869 38.3918 9.74418 38.4126 9.46737 38.5517C9.42909 38.5723 9.18122 39.4201 9.08477 39.3926C8.94567 39.3507 8.94046 38.9347 8.85021 38.8905C8.47498 38.6949 8.02844 38.9457 7.65352 38.7792C7.5136 38.7169 7.68579 38.328 7.52684 38.2533C7.37015 38.1786 7.07573 38.6672 6.9363 38.3311C6.83004 38.0743 7.07934 36.9522 6.93189 36.7482C6.49798 37.7821 6.35776 37.7013 5.96986 37.8525C5.89445 37.8817 5.79075 38.2629 5.74648 38.2949C5.5607 38.4321 5.60133 38.0946 5.41284 38.248C5.36705 38.2846 5.20236 38.6304 5.15498 38.6795C4.74075 39.1081 4.84487 38.1972 4.87087 38.0417C4.95715 37.4465 4.64981 37.8476 4.6227 37.5792C4.59886 37.3122 4.92267 37.1674 4.83889 36.9681C4.77724 36.8204 4.68589 36.7055 4.57874 36.6086L4.61865 36.6335C4.45238 36.4484 4.23721 36.3122 4.07314 36.1658C3.97002 36.0766 3.72017 36.532 3.69801 36.5285C3.3823 36.4395 3.52523 35.8402 2.72034 36.4855C4.34061 34.3991 2.41386 36.5551 2.4573 35.8691C2.46175 35.8142 3.29717 34.8902 3.51071 34.8415C3.72306 34.7918 3.59121 35.202 3.90602 35.1028C3.98301 35.0829 4.91719 34.3522 4.98062 34.3131C5.49675 34.0298 4.32105 35.4703 4.26712 35.5588C3.67465 36.5023 4.68641 35.7 4.78417 35.6642C5.01959 35.6019 5.14826 35.648 5.26359 35.7033L5.13209 35.6212C5.27495 35.6764 5.40154 35.7444 5.59409 35.681C5.83912 35.6034 6.4163 34.5293 6.51264 34.621C6.82061 34.9159 6.26535 36.5345 7.2347 35.3509C7.43904 35.0962 7.88194 33.8388 7.73695 34.9125C7.72345 34.9787 7.5799 35.9534 7.91213 35.4296C7.95328 35.3633 8.08761 34.999 8.11702 34.9751C8.30934 34.8209 8.28769 35.1411 8.4661 35.0439C8.64422 34.9464 8.85443 34.7794 8.96065 34.9446C9.02249 35.0432 8.96138 35.7735 8.96904 35.9573C8.98751 36.4863 9.30355 35.698 9.26207 36.3191C9.23575 36.9461 8.86368 37.8362 9.05713 38.2798C9.24452 37.2886 9.4444 36.2725 9.62879 35.2749C9.88984 35.3428 10.1391 35.5118 10.4158 35.6181L10.2413 35.6111C10.4779 35.6656 10.7141 35.7036 10.9492 35.6912C11.0284 35.686 10.9569 35.1424 11.042 35.1229C11.4001 35.0429 11.7006 35.4349 12.0623 35.2861C12.3426 35.1688 12.6483 34.5979 12.9282 34.4545C13.0948 35.6098 13.5149 35.2181 13.8107 35.3197C13.915 35.3548 13.9123 35.6631 13.9883 35.7625C14.2756 36.1295 14.1241 35.1119 14.196 34.9499C14.4953 34.2574 14.5887 36.5651 14.9796 36.492C15.0028 36.489 15.1865 35.2478 15.2116 35.1694C15.3882 34.6587 15.2698 35.5952 15.4061 35.6782C15.6535 35.8291 15.8478 36.1097 16.0893 35.7256C16.1623 35.6116 16.2621 34.8308 16.4753 35.403C16.5038 35.4778 16.5408 35.8831 16.5596 35.9048C16.9024 36.2629 16.7415 34.9932 16.8229 34.5439C16.8995 34.0954 17.2593 34.9277 17.3578 35.1676C17.6031 35.7908 17.3143 35.4619 17.3186 35.5262C17.3696 36.2973 17.5281 36.1357 17.6767 36.172C17.9401 37.3979 18.1384 37.2793 17.8308 36.2039C17.798 36.0864 17.716 36.2227 17.6767 36.172C17.5632 34.9406 17.6707 34.7578 18.1652 35.8173C18.4004 36.3116 18.4684 36.9473 18.7348 36.6314C18.8424 36.4998 18.5905 35.8136 18.5757 35.4991C18.5765 35.4689 18.5797 35.4419 18.5858 35.4187C18.745 34.8028 19.4282 35.4195 19.7285 35.1762C19.8357 35.0884 19.5557 34.6874 19.6225 34.6124C19.7974 34.4125 20.1155 34.6721 20.2711 34.4181C20.2848 34.3945 20.0597 33.9513 20.1249 33.9195C20.6136 33.6696 21.1756 33.7827 21.7075 33.562C21.9645 33.4556 22.3022 33.0042 22.5792 32.9338C23.0588 32.8113 23.9265 33.1807 24.2166 32.8275C24.4031 32.601 24.1145 32.194 24.0517 31.8445C23.9204 31.1727 24.8181 32.006 24.9592 32.1325C24.9648 32.1365 24.8251 32.3522 25.0584 32.5104C25.387 32.9314 24.9587 32.1355 24.9592 32.1325C25.0482 32.2174 25.488 32.0833 25.5111 31.9554C25.5234 31.8866 25.2512 31.5042 25.2616 31.4763C25.5094 30.8246 25.8414 30.4329 26.201 30.3992C26.2111 30.4028 26.5587 30.7952 26.5793 30.7976C26.7703 30.8239 26.6745 30.6208 26.4593 30.461C26.3873 30.3086 26.2974 30.1445 26.2356 29.9985C26.0651 29.5985 26.2524 29.5537 27.0766 29.9425C27.0836 29.7324 27.5566 29.7282 27.8457 29.7121C28.1353 29.6955 27.2576 29.1727 27.2458 29.1531C26.8655 28.5074 27.4693 28.6013 27.6975 28.2855C27.8071 28.1385 27.7677 27.7855 27.6902 27.6259C27.6295 27.4988 27.8761 27.4854 27.7403 27.3729C27.7219 27.3587 27.2719 27.2957 27.2552 27.2897C26.7282 27.1413 27.8219 27.334 28.0212 27.3424C28.7448 27.3714 29.139 27.3121 28.8048 27.159C28.7287 27.1078 27.1284 27.0606 27.0354 27.0898C27.006 27.0918 27.0192 27.0923 27.0535 27.0903C27.1535 27.0329 27.451 27.0122 27.3382 26.9115C27.3258 26.9 26.9738 26.9315 26.9818 26.8428C27.0142 26.4328 27.1629 25.9609 27.0585 25.5543C27.0457 25.4993 26.5046 25.6628 26.4773 25.5876C26.3492 25.2338 26.2894 24.8594 26.4595 24.4813C26.5029 24.3871 26.8947 24.3321 27.0026 24.2844C27.6524 23.9844 26.6225 24.1186 26.5985 24.1079C26.2813 23.9145 26.3124 23.6928 26.3536 23.5025C26.4063 23.3266 26.4162 23.1357 26.3335 23.3986C26.3244 23.4139 25.9804 23.8114 26.1147 23.9935C26.0473 23.95 26.0622 23.8363 26.2421 23.5873C26.2799 23.5364 26.8452 22.741 26.3117 23.1441C26.2791 23.1701 25.9911 23.5806 25.9326 23.4563C25.8712 23.3295 25.5249 23.4638 25.7639 22.9532C25.8442 22.7962 26.344 21.9615 25.7595 22.4802C25.7048 22.5052 24.549 23.8066 25.1853 22.7939C25.2892 22.6269 26.0086 21.5832 25.5089 22.0319C25.4158 22.1217 25.3063 22.3867 25.1497 22.496C24.9158 22.6692 24.9557 22.3004 24.5843 22.7428C24.5134 22.8184 24.0713 23.557 24.2978 22.9434C24.3317 22.8465 24.5295 22.4723 24.5148 22.4135C24.436 22.1279 24.1605 22.3247 24.0693 21.9918C24.0324 21.8736 24.2611 21.2285 24.2274 21.0288C24.1948 20.8289 24.0448 20.6114 23.8887 20.8987C23.7387 21.1872 23.6123 22.2717 23.492 22.3377C23.2129 22.4996 22.9895 22.3767 22.7005 22.2256C22.2355 22.1015 21.7707 21.9464 21.3038 21.9005C21.1479 21.8852 21.2734 22.2759 21.0444 22.2813C20.2026 22.3032 18.733 22.6532 17.9975 21.8132C17.4109 21.1406 18.1715 20.648 17.7193 20.3708C17.5071 20.2385 17.2395 21.4995 17.1876 21.5384C16.6562 21.9327 16.3006 21.3634 15.8114 21.5201C15.7075 21.5525 15.7918 22.0686 15.7029 22.0904C15.4079 22.1696 15.0917 21.9281 14.7835 21.9539C14.6432 21.9664 14.6522 22.3594 14.5152 22.3211C14.1854 22.231 13.9253 22.0551 13.4181 21.6174C13.3706 21.5766 13.7888 21.1445 13.3497 21.062C13.2144 21.0344 13.0619 20.9996 12.75 20.8995C12.6837 20.8773 12.5398 20.8313 12.3975 20.7757C12.3234 20.747 12.2416 20.7136 12.1491 20.6723C12.1003 20.6505 12.0623 20.6328 11.994 20.6C11.9126 20.561 11.8235 20.5157 11.7245 20.4603C11.5268 20.3486 11.2878 20.2015 10.9943 19.9538C10.921 19.8916 10.8445 19.8227 10.7652 19.7454C10.6871 19.6679 10.608 19.5918 10.4519 19.4076C10.1748 19.0765 9.87094 18.6166 9.66142 18.0111C9.44939 17.4116 9.3643 16.6686 9.45805 15.9961C9.55102 15.3436 9.71814 14.9358 9.91926 14.5398C10.3272 13.7769 10.7622 13.3951 11.0779 13.1368C11.3875 13.003 11.6829 12.8881 11.7531 12.5191C11.7815 12.3582 11.2585 11.6307 11.8236 11.9839C11.9407 12.0584 12.5232 12.9642 12.2 12.0507C12.1491 11.8968 11.775 10.6209 12.4097 11.1578C12.5779 11.2983 13.2082 11.9277 13.2195 11.7474C13.2188 11.7204 12.8835 11.3701 12.9314 11.2764C13.1031 10.954 13.3906 10.7993 13.5193 10.5017C13.5501 10.4271 13.2 10.1428 13.2037 10.0222C13.2255 9.99684 13.2511 9.97055 13.2804 9.94389C13.9238 9.37668 14.1362 9.2835 14.4376 9.13687C14.7083 9.0172 14.968 8.95 15.1854 8.91502C15.3496 8.88826 15.4611 9.29959 15.4933 9.33289C16.0162 9.87451 15.6083 8.97281 15.632 8.89307C15.7661 8.41971 16.2233 8.6901 16.4219 8.43118C16.4779 8.36038 16.1878 7.98609 16.1809 7.94151C16.1207 7.5017 16.4406 8.29262 16.5805 8.31778C16.9763 8.38892 17.2406 8.18372 17.4557 7.97701C17.5343 7.90049 17.1425 7.50379 17.2142 7.44171C17.6334 7.06485 18.1035 6.80757 18.6632 6.76242C18.7693 6.75451 18.9773 7.12292 19.0502 7.18795C19.5654 7.63902 19.1573 6.79667 19.1313 6.70557C19.0271 6.27912 19.3138 6.52258 19.387 6.36836C19.7501 5.63002 20.2065 5.28001 20.2 5.62819C20.2023 5.64878 20.2047 5.6718 20.2075 5.69695C20.0069 6.4703 19.9536 7.03585 20.1794 8.03463C20.3108 8.53024 20.5307 9.18527 21.162 9.95039C21.764 10.7158 22.9723 11.4451 23.9998 11.5966C23.432 11.3874 23.1844 11.234 22.8191 11.1124C22.4676 10.9927 22.0759 10.9155 21.6201 10.9185C21.5458 10.9186 21.5756 11.4808 21.5114 11.4881C20.6856 11.5581 19.8176 11.304 18.9058 11.4423C18.8299 11.4526 18.9258 11.9841 18.8038 12.0186C18.562 12.0932 18.2514 12.0586 18.0007 11.886C17.8816 11.8029 18.0499 11.3514 17.9291 11.277C17.8293 11.2156 17.7246 11.1707 17.6165 11.142C17.4228 11.0895 17.2137 11.091 17.0163 11.1441C16.8839 11.1802 17.0786 11.7229 16.9064 11.7276C15.7489 11.7712 14.6027 11.8585 13.4267 11.1534C13.345 11.1049 13.2795 10.0052 13.1064 10.2154C13.0923 10.5205 13.0917 10.8794 13.0849 11.2056C11.3828 11.3752 9.69733 10.9911 7.98793 10.9304C7.91618 10.928 8.03978 11.5107 7.90059 11.5089C7.09061 11.4996 6.31071 11.6605 5.48104 11.0812C5.39902 11.0246 5.44037 9.9997 5.20104 10.1546C5.15482 10.1829 4.79702 10.3195 4.6987 10.542C4.68585 10.5756 4.75256 11.054 4.63453 11.0679C4.21171 11.1129 3.77799 11.088 3.34556 10.9928C3.0742 10.9345 2.8202 10.8499 2.55637 10.739C2.44819 10.6909 2.5631 10.1814 2.4865 10.1428C1.92772 9.87235 1.32811 10.2596 0.795505 9.79707C0.442314 9.48563 0.571273 8.60504 0.383295 7.73824C0.357356 7.61595 0.137999 7.59657 0.126127 7.09225C0.0970441 5.82408 0.203571 4.43545 0.159808 3.08371C0.153801 2.93814 0.0789208 2.94375 0.0259145 2.8978C0.0202562 2.89206 0.0125072 2.88551 0.0077999 2.87776C0.00596629 2.87582 0.00453363 2.87381 0.00342238 2.87172C0.00275423 2.87067 0.00278982 2.8696 0.00144495 2.86851C0.000984341 2.86797 0.000643278 2.86742 0.000408424 2.86686C0.000291005 2.86659 0.000200149 2.86631 0.000134258 2.86603C0.000101312 2.86589 7.46077e-05 2.86575 5.39504e-05 2.86561C4.3601e-05 2.86554 1.48224e-05 2.86547 7.95866e-06 2.8654C3.25861e-06 2.86536 6.52703e-07 2.86533 1.09697e-07 2.86529C4.17552e-08 2.86529 6.11259e-09 2.86528 2.59122e-09 2.86528C2.47866e-09 2.86528 2.40295e-09 2.86528 2.35427e-09 2.86528C2.33256e-09 2.86528 2.315e-09 2.86528 2.30747e-09 2.86528C2.30351e-09 2.86528 2.30183e-09 2.86528 2.30166e-09 2.86528C2.30166e-09 -0.61775 2.30167e-09 12.6178 2.30166e-09 9.13472C2.30166e-09 9.13472 2.30169e-09 9.13472 2.30168e-09 9.13472C2.30171e-09 9.13472 2.30175e-09 9.13472 2.30174e-09 9.13472C2.3018e-09 9.13472 2.30188e-09 9.13472 2.302e-09 9.13472C2.30221e-09 9.13472 2.30264e-09 9.13472 2.30311e-09 9.13472C2.30412e-09 9.13472 2.30544e-09 9.13472 2.30759e-09 9.13472C2.33933e-09 9.13472 2.49481e-09 9.13472 2.77646e-09 9.13472C3.35056e-09 9.13473 4.40113e-09 9.13473 5.9824e-09 9.13473C9.11682e-09 9.13473 1.42475e-08 9.13473 2.1425e-08 9.13473C3.56948e-08 9.13473 5.81243e-08 9.13473 8.84616e-08 9.13474C2.09846e-07 9.13475 4.59804e-07 9.13475 8.37431e-07 9.13476C1.59286e-06 9.13478 2.85982e-06 9.1348 4.63436e-06 9.13482C0.00251283 9.13934 0.00522824 9.14422 0.00726968 9.14949C0.0163065 9.17059 0.0223432 9.19808 0.0239912 9.23512C0.0256178 9.27217 0.0228675 9.31877 0.0141165 9.3781C0.0119597 9.39294 0.00944624 9.40856 0.00645135 9.42504C0.00524277 9.43327 0.00322537 9.44172 0.00175433 9.45038C0.00126567 9.45255 0.00153683 9.45473 0.000427756 9.45692C0.000252921 9.45747 0.000128877 9.45802 6.08339e-05 9.45857C2.68158e-05 9.45885 6.79785e-06 9.45912 1.45664e-06 9.4594C7.88764e-07 9.45943 3.50561e-07 9.45947 1.42652e-07 9.4595C9.07207e-08 9.45951 5.31234e-08 9.45952 3.00397e-08 9.45953C1.84609e-08 9.45953 1.05527e-08 9.45954 6.20135e-09 9.45954C4.0383e-09 9.45954 2.7696e-09 9.45954 2.41021e-09 9.45955C2.36622e-09 9.45955 2.33267e-09 9.45955 2.3168e-09 9.45955C2.3078e-09 9.45955 2.30348e-09 9.45955 2.30209e-09 9.45955C2.30177e-09 9.45955 2.30187e-09 9.45955 2.3017e-09 9.45955C2.30172e-09 9.45955 2.30164e-09 9.45955 2.30166e-09 9.45955C2.30166e-09 -5.14743 2.30165e-09 4.84682 2.30167e-09 2.54045C2.30166e-09 2.54045 2.30171e-09 2.54045 2.30169e-09 2.54045C2.30184e-09 2.54045 2.30222e-09 2.54045 2.30257e-09 2.54045C2.30401e-09 2.54045 2.30518e-09 2.54045 2.30861e-09 2.54045C2.3307e-09 2.54045 2.41171e-09 2.54045 2.54612e-09 2.54045C2.82092e-09 2.54045 3.31054e-09 2.54045 4.03816e-09 2.54045C1.55893e-08 2.54043 8.49582e-08 2.54041 2.12338e-07 2.5404C7.21762e-07 2.54033 2.15909e-06 2.54026 4.53484e-06 2.54019C9.28603e-06 2.54005 1.77911e-05 2.53991 3.01349e-05 2.53978C9.97929e-05 2.53867 0.000176084 2.53756 0.000318454 2.53645C0.00073966 2.53201 0.00276335 2.52752 0.0030856 2.52296C0.0109646 2.48654 0.0192609 2.44654 0.0301931 2.40256C0.041936 2.35548 0.255367 2.12196 0.307912 1.88328C0.344921 1.71826 0.27764 1.20536 0.354146 0.994121C0.428135 0.783077 0.509423 1.21301 0.634803 0.964825C0.756635 0.713563 0.703311 0.130088 0.950237 0.0610189ZM29.1463 29.5729C29.6591 29.6383 28.0434 28.8567 28.3646 29.1792C28.382 29.1957 29.1212 29.5696 29.1463 29.5729ZM10.2821 37.0789C10.5291 37.874 10.723 36.7133 10.551 36.0992C10.3763 35.4857 10.2062 36.8378 10.2821 37.0789ZM8.02892 37.2472C8.12118 37.9249 8.82801 35.4796 8.45386 35.9066C8.43262 35.9306 8.0247 37.2081 8.02892 37.2472ZM1.25816 7.49142C1.25568 7.46758 1.09791 7.44436 1.09363 7.46798C1.00946 8.03793 1.32556 8.08398 1.25816 7.49142ZM5.52224 36.9036C5.44916 37.2527 5.85904 37.0101 5.94559 36.5762C6.01877 36.2294 5.61718 36.472 5.52224 36.9036ZM30.2132 20.8598C30.2348 20.8434 30.1951 20.7379 30.0707 20.8245C29.67 21.1001 29.8557 21.1359 30.2132 20.8598ZM2.21416 34.2758C2.59788 34.805 1.41064 36.5874 1.05565 35.8945C0.9932 35.7703 1.73321 35.6263 1.74932 35.3731C1.78109 34.9144 0.695567 35.6914 0.985258 34.9754C1.03889 34.845 2.19571 34.2426 2.21707 34.2746C2.2161 34.275 2.21513 34.2754 2.21416 34.2758ZM31.1308 30.4204C31.1541 30.4273 31.2414 30.2944 31.2213 30.281C30.738 29.9696 30.5695 30.222 31.1308 30.4204ZM25.2137 16.3174C25.2184 16.2645 24.8361 16.1307 24.8143 16.1757C24.4454 17.048 25.1384 17.3022 25.2137 16.3174ZM23.6562 38.096C23.7217 38.6924 23.547 38.8399 23.1388 38.2305C23.316 38.1977 23.4797 38.1341 23.6562 38.096Z" fill="#FB7139"/>
</svg>
