<svg width="40" height="49" viewBox="0 0 40 49" fill="none" xmlns="http://www.w3.org/2000/svg">
<path d="M31.1179 9.70722C31.0932 10.0475 30.654 10.2125 30.2137 10.2553C30.0745 10.2716 29.7879 9.95452 29.6785 9.95202C29.4647 9.94794 29.5393 10.1807 29.3013 10.1573C29.2204 10.1486 28.7462 9.66942 28.6728 9.67063C28.2781 9.67637 28.246 9.97926 27.9648 10.0917C26.5742 10.6512 25.5437 11.5117 24.4617 12.3765C24.1053 12.6619 23.2889 12.7115 23.2147 13.2391C23.2065 13.3011 23.6907 13.639 23.7227 13.6771C24.2101 14.2615 23.3052 13.4864 23.1161 13.4717C22.3675 13.4162 22.0399 13.7515 21.9772 14.2082C21.9523 14.4031 22.9864 14.9785 22.3605 14.7152C22.3179 14.6978 21.8462 14.2838 21.7648 14.2804C21.6395 14.2758 21.5843 14.3805 21.5337 14.4588C21.5098 14.4957 21.487 14.5267 21.4585 14.5382C21.2833 14.606 21.2727 14.6304 21.1763 14.7463C21.0394 14.9026 20.6436 14.9112 20.6243 15.1739C20.6219 15.2308 21.1731 15.5654 21.2158 15.6907C21.2589 15.8152 21.0954 15.9434 20.9345 15.9063C20.7732 15.8695 20.3853 15.5457 20.2855 15.4861C19.444 14.9821 20.3904 15.9752 20.4005 16.0178C20.5377 16.79 19.6442 16.7069 19.3473 17.1199C19.1234 17.4342 19.0898 17.9163 18.8499 18.1926C18.5616 18.5211 18.0639 18.6227 17.8704 19.0035C17.8497 19.0428 18.4976 19.4331 18.4738 19.4818C18.2149 20.0054 17.8268 20.4237 17.087 20.6089C17.012 20.6276 16.5042 20.1955 16.3963 20.1922C15.7511 20.1738 14.3406 19.9354 16.6505 21.6763C16.4505 21.795 16.2311 21.9411 15.7437 21.8508C15.6957 21.8461 15.6453 21.8392 15.5924 21.83C15.1952 21.7596 14.6598 21.2544 14.8247 21.5714C14.8611 21.6425 15.4249 21.9333 15.4387 22.015C15.4936 22.3626 15.1673 22.4912 15.2986 22.8882C15.3268 22.9695 15.8092 23.2667 15.8864 23.335C16.5076 23.8948 15.2487 23.3238 15.1416 23.3057C14.3334 23.186 14.4358 23.5547 14.2398 23.8094C14.1941 23.8683 14.8716 24.2254 14.8498 24.2978C14.7279 24.6687 14.4522 24.949 13.9691 25.0472C13.8598 25.0686 13.3736 24.6337 13.2944 24.6245C12.9531 24.5866 13.9291 25.3262 13.6209 25.3029C13.5574 25.2986 13.1167 24.9611 13.0636 24.9306C12.2296 24.4527 13.2841 25.308 13.2942 25.3453C13.4458 25.8359 12.1818 25.1699 12.1746 25.5238C12.1752 25.5666 12.7909 25.9126 12.7578 26.0076C12.5529 26.6056 12.0688 27.0138 11.459 27.107C11.4117 27.1225 11.3632 27.1373 11.3134 27.1516C11.1941 27.1866 10.7671 26.8707 10.708 26.8431C9.77622 26.4269 10.9315 27.1499 10.963 27.1986C11.1771 27.5728 10.0601 27.2458 11.435 28.1187C10.831 28.4962 10.8271 29.1664 10.519 29.5621C10.5709 29.3158 10.6698 28.9596 10.498 28.2983C10.3351 27.6378 9.73655 27.0456 9.37018 26.8818C9.01429 26.7023 8.79884 26.6925 8.68463 26.6939C8.55472 26.6969 8.50112 26.7253 8.46261 26.7555C8.34107 26.8853 8.49919 27.0643 8.66309 27.2904C8.67595 27.3054 8.75832 27.9709 8.78558 27.9977C9.13509 28.321 8.90876 27.3007 8.82128 26.0189C8.79568 25.6976 9.26192 27.1703 9.30553 27.2759C9.44701 27.67 9.61186 28.655 9.6468 28.7296C9.93425 29.3125 9.17442 26.1035 9.35134 26.0607C9.35836 26.0647 9.47446 26.661 9.50378 26.716C9.59584 26.8889 9.58836 26.6427 9.6863 26.834C9.90973 27.2773 10.335 28.823 10.2871 27.874C10.2802 27.751 9.79417 25.9444 9.98863 25.9868C10.066 26.0055 10.3684 25.8961 10.4865 25.9913C10.6045 26.0865 10.6912 26.6863 10.7039 26.71C11.1369 27.4229 11.1269 27.7661 11.5327 28.881C11.9362 29.9919 11.2232 27.2798 11.1963 26.9639C11.1696 26.6489 11.5051 27.2433 11.6027 27.4548C11.7003 27.6663 11.7382 28.0514 11.8071 28.1678C12.259 28.9279 11.5884 26.7884 11.5687 26.3352C11.5271 25.2611 12.17 27.246 12.3953 27.4035C12.4572 27.4458 12.3112 26.9933 12.3462 26.9399C12.4893 26.7342 12.7309 27.3452 12.8141 26.7198C12.8249 26.6184 12.7519 25.3569 13.0437 26.2351C13.0845 26.3619 13.14 26.879 13.2393 26.978C13.3877 27.1266 13.6134 27.2009 13.7121 27.0094C13.7859 26.8675 13.5391 26.0423 13.7046 26.2845C13.7769 26.393 13.7563 26.9018 13.8824 27.0652C14.0079 27.2282 14.2508 27.1729 14.3484 27.145C14.4428 27.1167 14.3199 26.4787 14.3226 26.4345C14.3316 26.335 14.3631 26.2236 14.4005 26.125C14.4454 25.9731 14.4998 25.8516 14.5089 25.8511C15.253 25.697 16.0713 26.7056 16.777 26.2637C16.8318 26.23 16.7178 25.5555 16.7254 25.5433C16.8923 25.2368 16.9364 27.0591 17.1434 27.6477C16.9693 26.2724 17.0806 26.5125 17.204 26.3458C17.2633 26.2643 17.1668 25.7351 17.1669 25.6798C17.1764 24.8584 17.3639 25.8969 17.406 26.1089C17.5615 26.8888 17.5293 25.9504 17.6335 26.4716C17.7374 26.9889 17.72 27.775 17.8539 27.7499C17.8365 27.2526 17.5916 25.9753 17.6708 25.755C17.969 24.9216 18.8069 25.8513 19.1308 25.9218C19.4546 25.992 19.5443 25.8901 19.7462 26.0482C20.1096 26.3345 19.8841 25.3915 20.0414 24.9314C20.1992 24.4714 20.3545 26.8354 20.4389 27.3381C20.5223 27.8406 20.4973 27.3167 20.5631 27.5908C20.6287 27.8649 20.5889 28.2172 20.6838 28.3125C20.7787 28.4077 20.9108 27.4835 20.8841 26.9513C20.8274 25.8237 20.5976 24.6585 20.8658 25.048C20.8813 25.0711 20.9053 25.6945 20.9612 25.7518C21.4014 26.1869 21.8108 26.1742 22.2422 26.5565C22.3017 26.61 22.3234 27.3038 22.3588 27.3427C22.7259 27.7509 22.4933 26.601 22.5443 25.2926C22.6743 27.0141 22.8768 28.055 23.1212 28.0414C23.2687 28.0338 23.1708 27.286 23.2157 26.748C23.229 26.5858 23.3827 27.0911 23.368 26.7364C23.321 25.5769 23.0989 24.2948 23.4044 24.7848C23.418 24.8082 23.4415 25.4431 23.4839 25.4777C23.7571 25.7047 23.6756 24.495 23.9355 24.324C24.1395 24.1899 24.5847 24.8928 24.8372 24.9922C24.996 26.926 25.1836 26.4644 25.1676 25.1234C25.3295 25.1651 25.4938 25.076 25.6607 25.2485C25.718 25.3072 25.7273 25.87 25.7386 25.93C25.9129 26.8715 25.8804 25.5686 25.9108 25.5151C26.2428 24.9924 26.612 25.9549 26.8985 24.9693C26.9049 24.947 26.8798 24.4091 26.9 24.2519L26.7682 24.2644C26.7812 24.1697 26.8227 24.2078 26.9097 24.5674C26.9209 24.6345 26.8527 25.2586 27.0538 25.2847C27.2547 25.3115 27.6229 26.0097 27.8203 25.3732C27.8642 25.22 27.9599 24.1191 28.1162 24.9675C28.1373 25.0827 28.1391 25.4696 28.1715 25.6834C28.2763 26.3647 28.2503 25.0021 28.385 26.1547C28.5212 27.3071 28.7174 28.1663 28.9126 27.3604C28.9184 27.337 28.9373 26.2558 29.0085 26.2705C29.1248 26.2948 29.2948 26.5146 29.4159 26.5041C29.4744 26.4987 29.4179 25.8295 29.4278 25.817C29.8087 25.4305 30.1003 26.0218 30.5203 26.2733C30.5994 26.3207 30.7996 25.4027 30.9616 26.1232C31.134 26.9121 31.018 30.2057 31.3726 29.4165C31.5125 29.101 31.6556 24.9227 31.9493 27.0836C32.4672 26.5425 32.9547 27.6471 33.4744 26.8803C33.4977 26.8463 33.5688 25.6806 33.6245 25.6964C33.7069 25.722 33.753 26.2667 33.8122 26.3025C34.0574 26.4664 34.2851 26.0004 34.5211 26.0733C34.6115 26.0999 34.5786 26.6631 34.6867 26.6948C34.7937 26.726 34.8664 25.9845 35.0115 26.3432C35.1219 26.6167 35.2235 28.1332 35.3674 28.3106C35.3798 26.8152 35.4816 26.8465 35.6608 26.4528C35.6953 26.3764 35.6619 25.8557 35.6784 25.7927C35.7457 25.5249 35.8041 25.9566 35.8689 25.665C35.8846 25.595 35.8888 25.0843 35.9019 24.9982C36.0149 24.2469 36.1803 25.3969 36.2087 25.5972C36.3175 26.3576 36.3768 25.6939 36.4632 25.9938C36.4708 26.0202 36.4767 26.0472 36.4811 26.0746C36.5121 26.2424 36.4833 26.4238 36.4746 26.5787C36.4755 26.6102 36.475 26.6405 36.476 26.6694C36.4736 26.7392 36.4832 26.8007 36.5093 26.8493C36.7113 27.2298 36.9791 27.1556 37.1867 27.1891C37.2697 27.1994 37.2468 26.5157 37.2594 26.5014C37.4532 26.3379 37.5628 27.0724 37.7859 25.7293C37.5794 29.2375 37.9235 25.3958 38.1417 26.137C38.1608 26.1977 37.8931 27.8362 37.8132 28.0704C37.7375 28.305 37.7159 27.7794 37.5928 28.1495C37.5593 28.2357 37.3311 29.7782 37.315 29.8718C37.1649 30.5997 37.2878 28.1221 37.2873 27.9854C37.2805 26.5118 37.0267 28.1783 36.9827 28.2926C36.7667 28.8152 36.606 28.4617 36.4239 28.8361C36.4225 28.8391 36.421 28.8423 36.4195 28.8457L36.457 28.8463C36.3418 29.1203 36.3166 30.7049 36.2276 30.6551C35.9312 30.4883 35.8357 28.2204 35.5425 30.1846C35.479 30.6035 35.5298 32.3801 35.3195 30.9823C35.306 30.8941 35.1524 29.6156 35.0541 30.4235C35.042 30.5253 35.0404 31.043 35.0247 31.0865C34.9199 31.3674 34.8524 30.9547 34.7401 31.152C34.6274 31.3492 34.4901 31.6434 34.3634 31.4676C34.2878 31.3625 34.1873 30.3979 34.1502 30.1618C34.0447 29.4815 33.9338 30.5969 33.8684 29.7732C33.8012 28.9454 33.9305 27.6879 33.7549 27.1532C33.7501 28.4982 33.7372 29.8787 33.7288 31.2313C33.3561 31.1845 32.983 30.751 32.6084 30.8128C32.5618 30.8218 32.6142 31.5446 32.5645 31.5729C32.3578 31.6891 32.1679 31.1752 31.9535 31.3826C31.7858 31.5459 31.6115 32.3135 31.4406 32.5086C31.3147 30.9711 31.0629 31.4971 30.8705 31.3597C30.804 31.3122 30.8014 30.9012 30.7526 30.7679C30.5665 30.2752 30.6737 31.6335 30.6294 31.8484C30.4421 32.7656 30.361 29.6882 30.1173 29.7696C30.1045 29.7728 29.9819 31.417 29.9643 31.5197C29.8453 32.1892 29.9281 30.9493 29.8396 30.8302C29.6746 30.6128 29.5549 30.224 29.386 30.71C29.3393 30.8538 29.2408 31.8802 29.1161 31.0929C29.0992 30.9898 29.0878 30.4475 29.0757 30.4162C28.8561 29.8941 28.9175 31.5974 28.8309 32.1784C28.7497 32.759 28.5342 31.591 28.4853 31.2539C28.3545 30.3819 28.536 30.8763 28.5359 30.7902C28.5469 29.7643 28.4328 29.9459 28.3324 29.8641C28.2375 28.1957 28.1055 28.3029 28.232 29.7861C28.2471 29.948 28.3091 29.7888 28.3324 29.8641C28.3302 31.5057 28.2163 31.7217 27.9746 30.2017C27.8622 29.4895 27.8677 28.6493 27.6738 28.9703C27.5909 29.1153 27.7144 30.2597 27.6736 30.5779C27.644 30.8447 27.5936 30.8713 27.5733 30.8034L27.3386 30.8256C27.1737 30.7161 26.9806 30.339 26.8454 30.4558C26.768 30.5229 26.8925 31.1454 26.8414 31.2129C26.7065 31.3939 26.5414 30.9323 26.4108 31.1849C26.3991 31.2086 26.4816 31.8635 26.4363 31.8754C26.0947 31.9782 25.7568 31.5817 25.3892 31.601C25.2114 31.6105 24.9268 32.0003 24.7368 31.944C24.409 31.85 23.925 30.9322 23.6725 31.1905C23.5077 31.3561 23.6104 32.0087 23.5775 32.4633C23.5157 33.3443 23.1025 31.8175 23.0425 31.5808C23.0405 31.5729 23.1795 31.4029 23.0637 31.0743C22.946 30.3771 23.0439 31.5776 23.0425 31.5808C23.004 31.4277 22.6806 31.3098 22.6319 31.4415C22.6056 31.5134 22.6874 32.1331 22.6725 32.1588C22.3178 32.7569 21.9244 32.9578 21.4738 32.7122C21.4651 32.7005 21.4019 32.0044 21.3823 31.9854C21.1061 31.7025 21.0414 32.5694 20.8958 33.0958C20.7499 33.6221 20.5735 33.4705 20.3222 32.2912C20.1872 32.4581 19.9097 31.9552 19.7483 31.6493C19.5872 31.3434 19.7198 32.6974 19.7117 32.7254C19.4608 33.6195 19.1752 32.868 18.7999 32.7881C18.6224 32.7477 18.3033 32.9821 18.1318 33.151C17.9971 33.2867 17.8735 32.9797 17.7586 33.1976C17.7431 33.2268 17.8289 33.8266 17.8259 33.8505C17.7534 34.5877 17.6629 33.1079 17.6021 32.8486C17.3827 31.9053 17.2539 31.4043 17.1089 31.8755C17.0762 31.9834 17.1765 34.1173 17.1068 34.2504C17.016 34.4195 16.9737 33.6553 16.8811 33.8517C16.873 33.8678 16.9261 34.3363 16.8533 34.3233C16.5192 34.2688 16.1301 34.0346 15.7915 34.1172C15.7446 34.1267 15.8824 34.8642 15.8156 34.8903C15.6471 34.956 15.4612 34.9888 15.2738 34.9537C15.2484 34.9109 15.1924 34.8242 15.1135 34.6738C15.0695 34.5908 15.0134 34.0698 14.9837 33.917C14.7932 32.9941 14.9226 34.3578 14.9183 34.385C14.7388 35.0812 14.1746 33.936 13.8445 34.618C13.8258 34.6578 13.9773 36.1279 13.5914 34.9287C13.5663 34.8487 13.1703 33.6219 13.2986 34.4957C13.3068 34.5503 13.5221 35.1789 13.4067 35.1379C13.291 35.0971 13.2352 35.5667 12.9131 34.8978C12.8124 34.6869 12.3874 33.4715 12.4964 34.4983C12.5061 34.5695 12.8457 36.8678 12.3745 35.3417C12.2968 35.0905 11.9014 33.4498 11.9317 34.3341C11.9377 34.5054 12.0917 34.8551 12.0567 35.106C11.9994 35.4935 11.7008 35.1014 11.6796 35.8792C11.6801 36.0159 11.7853 37.1681 11.4633 36.3497C11.4135 36.2213 11.3252 35.6636 11.2462 35.6168C10.8641 35.3925 10.577 35.8411 10.0326 35.535C9.83761 35.427 9.79054 34.513 9.57985 34.2967C9.35872 34.0815 8.96188 33.8931 8.6118 34.317C8.21487 34.7335 8.80745 36.2027 7.91186 36.2883C7.29411 36.2438 6.45063 36.5581 4.02572 35.1501C2.82931 34.4717 1.15543 32.4027 0.830971 30.5249C0.442335 28.5514 0.761121 27.5217 0.994789 26.6721C1.32323 25.8564 2.00858 25.3826 2.35338 24.8213C2.42613 24.7042 1.9052 24.5953 1.9806 24.4055C2.2295 23.7609 2.37886 22.5721 3.40737 22.4372C3.50025 22.4057 3.59686 22.3844 3.69771 22.3733C4.77047 22.3145 4.95599 23.297 5.48572 23.1248C5.72936 23.0591 4.42232 21.9759 4.4038 21.9076C4.19353 21.2492 4.95528 21.4666 4.94613 21.0813C4.94406 21.0018 4.34942 20.6578 4.35414 20.5941C4.36592 20.3722 4.72256 20.3985 4.77312 20.232C4.79417 20.157 4.36172 19.8634 4.43395 19.8319C4.60044 19.7551 4.85896 19.7717 5.34438 19.9351C5.38851 19.9502 5.86362 20.4029 5.94874 20.3257C6.08642 20.1977 6.60875 20.2979 6.32058 19.8421C6.23303 19.7061 5.26008 19.0139 6.0072 19.3858C6.16306 19.4637 7.31472 20.3187 6.3884 19.4825C6.23622 19.3411 5.00766 18.1829 5.95773 18.7032C6.20799 18.8399 7.21893 19.4413 7.10712 19.2788C7.08827 19.2543 6.53931 18.9204 6.52052 18.8376C6.46394 18.5512 6.63806 18.4177 6.58599 18.1355C6.57053 18.0601 5.97546 17.7555 5.96955 17.6557C5.95297 17.3799 6.24168 17.2498 6.53151 17.185C6.63934 17.1619 7.07111 17.5065 7.12432 17.5345C7.99188 17.9854 6.91916 17.2249 6.87056 17.1589C6.58648 16.7528 7.18333 16.9638 7.13772 16.7292C7.12623 16.6658 6.57738 16.3621 6.53506 16.3245C6.12354 15.9533 7.03924 16.6106 7.17748 16.6232C7.23108 16.6282 7.27852 16.6288 7.32055 16.6256C7.62829 16.5354 7.71023 16.3196 7.76468 16.1078C7.78727 16.017 7.12285 15.7071 7.15091 15.629C7.30067 15.1673 7.61731 14.8169 8.18764 14.687C8.29627 14.6631 8.73154 15.0179 8.8468 15.0754C9.65311 15.478 8.73422 14.6613 8.66142 14.5619C8.32154 14.1189 8.76919 14.3403 8.77969 14.1615C8.82662 13.2789 9.62506 12.71 10.194 12.26C10.9353 11.6679 11.7755 11.4149 12.1739 10.6389C12.2 10.5897 11.5676 10.1939 11.5826 10.1457C11.8004 9.54674 12.3926 9.23757 12.5885 8.61947C12.6056 8.56955 11.9983 8.20361 12.0071 8.10898C12.0215 7.91136 12.1789 7.76643 12.4599 7.76846C12.5959 7.76859 13.012 8.22163 13.1389 8.21447C13.1896 8.21177 13.2365 8.20561 13.2795 8.19612C13.4888 8.14918 13.6065 8.02521 13.6315 7.83807C13.6434 7.7408 12.9929 7.40407 13.0532 7.31144C13.4518 6.67292 13.8074 6.01351 15.0051 6.00344C15.0874 6.00276 16.2654 6.87647 16.1117 6.61757C15.7977 6.35871 15.4222 6.06211 15.0834 5.78946C15.5704 4.79645 16.6355 4.28603 17.3792 3.50554C17.4107 3.47212 16.7604 3.03992 16.8186 2.97259C17.1518 2.58584 17.305 2.06444 18.2338 2.15852C18.3253 2.16689 19.3553 3.06522 19.2946 2.81632C19.2821 2.77246 19.2912 2.47878 19.1031 2.24181C19.0742 2.20676 18.5597 1.82732 18.5934 1.75862C18.7992 1.36499 19.2075 1.11064 19.7897 1.03288C19.8835 1.0224 20.3491 1.52252 20.4204 1.51881C20.9253 1.48629 20.7985 0.846488 21.5078 0.979662C21.9909 1.06398 22.7917 1.92928 23.7374 2.6077C23.8665 2.70778 24.0019 2.60074 24.493 3.06054C25.7261 4.21762 27.037 5.52594 28.3592 6.75095C28.5006 6.88388 28.5096 6.86362 28.5463 6.9138C28.5823 6.96463 28.6613 7.0696 29.0189 7.37498C29.078 7.40416 29.2808 7.6425 29.4978 7.87673C29.6519 8.03408 30.1662 8.48525 30.3591 8.69148C30.5519 8.89752 30.1075 8.53393 30.3174 8.79512C30.5277 9.0621 31.1254 9.56078 31.1179 9.70722ZM19.0199 30.2832C18.8296 29.6471 19.0787 32.0269 19.1419 31.4438C19.1447 31.4128 19.0295 30.3144 19.0199 30.2832ZM32.9776 28.9465C32.8186 27.8918 32.7242 29.4443 32.8351 30.2587C32.9455 31.0723 33.0258 29.2662 32.9776 28.9465ZM34.5661 28.174C34.3874 27.3416 34.3552 30.7346 34.5469 30.049C34.5581 30.0102 34.5765 28.2223 34.5661 28.174ZM23.5986 3.25416C23.6239 3.27345 23.7133 3.21934 23.691 3.19713C23.1588 2.65192 22.9784 2.7627 23.5986 3.25416ZM36.154 27.3429C36.1015 26.8835 35.9359 27.4121 36.0019 27.9834C36.0544 28.4429 36.2192 27.9143 36.154 27.3429ZM12.6603 28.541C12.6506 28.5066 12.577 28.4906 12.6237 28.6867C12.774 29.3182 12.8232 29.119 12.6603 28.541ZM38.3764 27.5421C38.4223 27.3861 38.6022 24.4842 39.3622 25.1106C39.4595 25.2155 38.7377 25.8156 38.7975 26.115C38.8187 26.3728 39.0359 26.1198 39.266 25.946C39.4901 25.7693 39.7015 25.6618 39.5283 26.1128C39.4548 26.2703 38.3582 27.5443 38.374 27.5452C38.3748 27.5442 38.3756 27.5431 38.3764 27.5421ZM18.6323 27.4346C18.6264 27.4034 18.5287 27.3842 18.53 27.4156C18.5636 28.1762 18.7602 28.2155 18.6323 27.4346ZM8.57034 27.962C8.55045 27.8973 8.42858 27.8417 8.43691 27.9023C8.33412 29.1514 8.799 29.2555 8.57034 27.962ZM24.8454 25.0434C24.8855 24.2731 25.0052 24.1729 25.1671 25.1225C25.0589 25.0802 24.9537 25.0815 24.8454 25.0434Z" fill="#FB7139"/>
<path d="M39.679 21.67C40.0189 21.6033 39.7711 21.54 39.4791 21.4216C39.3856 21.3875 39.0582 21.1176 38.9774 21.0841C38.818 21.0212 38.9561 21.1837 38.7663 21.1099C38.7017 21.0842 38.1755 20.6661 38.1197 20.649C37.8149 20.5618 37.8869 20.7539 37.6979 20.7728C36.7592 20.8754 36.1551 21.3221 35.5041 21.7584C35.4981 21.7625 35.4918 21.7664 35.4852 21.7701C35.3396 21.7649 34.751 21.6412 34.8955 21.9209C34.9135 21.9544 35.4391 22.2219 35.4801 22.2483C36.1093 22.6494 35.0678 22.0728 34.9083 22.0362C34.2767 21.8958 34.1303 22.0694 34.2558 22.337C34.3114 22.4502 35.4049 22.8768 34.7768 22.6681C34.7342 22.6544 34.1754 22.3711 34.1056 22.3628C33.9483 22.3447 34.0082 22.4822 33.9472 22.4967C33.8255 22.5257 33.8258 22.5404 33.7887 22.6058C33.7338 22.6914 33.399 22.6797 33.4847 22.8394C33.5049 22.8738 34.1064 23.0996 34.1922 23.1767C34.2778 23.2535 34.189 23.3229 34.0363 23.2955C33.8836 23.2679 33.4246 23.0581 33.3157 23.0187C32.3969 22.6855 33.5968 23.3195 33.6223 23.3454C34.0426 23.8178 33.2406 23.7476 33.1429 24.0003C33.0712 24.1907 33.2292 24.4858 33.1264 24.6568C33.0026 24.857 32.6068 24.9206 32.5818 25.1583C32.5785 25.1831 33.2954 25.4205 33.293 25.4507C33.2671 25.7715 33.0819 26.0377 32.4961 26.1589C32.4366 26.1711 31.8276 25.9069 31.7309 25.9058C31.1524 25.9038 29.8148 25.7586 32.493 26.8373C32.343 26.9223 32.1787 27.0372 31.5915 26.9533C31.2132 26.9005 30.5575 26.5896 30.8164 26.7813C30.874 26.8242 31.4792 27.0088 31.5206 27.0572C31.6939 27.2612 31.4515 27.331 31.7157 27.5644C31.7709 27.6124 32.3078 27.7929 32.4015 27.8339C33.1598 28.1676 31.8355 27.8179 31.7342 27.8069C30.9775 27.7292 31.2087 27.9505 31.1373 28.1009C31.1204 28.1357 31.8539 28.3428 31.8635 28.3852C31.9035 28.6019 31.7762 28.7696 31.3956 28.8373C31.3092 28.8519 30.7093 28.6036 30.6367 28.5997C30.3237 28.5856 31.474 29.0045 31.1964 28.9983C31.1393 28.9975 30.6182 28.807 30.5595 28.7902C29.6387 28.5264 30.9054 29.0104 30.9294 29.0325C31.2619 29.3226 29.8887 28.9648 30.0261 29.1814C30.0438 29.2078 30.7218 29.3951 30.7311 29.4555C30.7965 29.8614 30.4904 30.1594 29.8429 30.3171C29.7431 30.342 29.2571 30.1334 29.1945 30.1156C28.4143 29.8968 29.0646 30.1544 29.3832 30.2854C29.4647 30.3186 29.5245 30.3435 29.5332 30.3502C29.8395 30.5947 28.716 30.356 30.2265 30.9514C29.5136 31.317 30.2254 32.1073 28.6743 32.2636C28.6562 32.2662 28.014 32.0735 27.9805 32.0797C27.5698 32.1522 28.5827 32.3983 29.7823 32.8422C30.0838 32.9526 28.5757 32.637 28.4646 32.6164C28.0557 32.5369 27.1003 32.2497 27.02 32.2384C26.388 32.1561 29.578 32.9923 29.5524 33.0931C29.5463 33.0949 28.9629 32.9268 28.9022 32.9201C28.7118 32.899 28.9381 32.9869 28.7291 32.9605C28.2456 32.8984 26.6881 32.5205 27.5666 32.8489C27.6808 32.8909 29.4972 33.3382 29.3884 33.4074C29.3434 33.4348 29.3339 33.6039 29.2051 33.6201C29.0763 33.6365 28.4988 33.4605 28.4727 33.4574C27.6679 33.3916 27.3588 33.2653 26.1966 33.05C25.0382 32.8379 27.7673 33.4823 28.0653 33.5816C28.3624 33.6805 27.7009 33.6182 27.4729 33.5886C27.245 33.5586 26.8793 33.4407 26.7485 33.4314C25.8928 33.3741 28.0884 33.813 28.5111 33.9594C29.5128 34.3025 27.4696 33.9081 27.2482 33.9614C27.1886 33.9753 27.6551 34.0598 27.693 34.0929C27.8371 34.2215 27.1915 34.1345 27.7488 34.3686C27.8394 34.4075 29.0418 34.7604 28.134 34.6166C28.003 34.596 27.5017 34.4627 27.3797 34.4771C27.1967 34.4985 27.0629 34.5808 27.2187 34.6807C27.3341 34.7542 28.1805 34.8794 27.9087 34.8821C27.7873 34.8834 27.309 34.731 27.1217 34.7426C26.9343 34.7541 26.9294 34.8844 26.9364 34.9355C26.9438 34.9868 27.5835 35.0921 27.6254 35.1048C27.8653 35.1788 28.1528 35.3313 28.1505 35.339C28.1473 35.7496 27.0033 35.9176 27.2866 36.3813C27.308 36.4171 27.9839 36.5177 27.9941 36.5244C28.2569 36.6798 26.4845 36.2753 25.8726 36.2441C27.239 36.4768 26.984 36.4771 27.1204 36.5788C27.1873 36.6279 27.7193 36.7012 27.7729 36.714C28.5664 36.9079 27.523 36.7627 27.309 36.7357C26.5222 36.6356 27.438 36.834 26.912 36.7681C26.3897 36.7036 25.6316 36.5142 25.6286 36.5902C26.1142 36.6944 27.4013 36.8598 27.5991 36.9499C28.3476 37.2865 27.2824 37.4979 27.1517 37.6513C27.0215 37.8006 27.1039 37.868 26.9119 37.9383C26.5649 38.0655 27.526 38.1434 27.9458 38.3146C28.3657 38.4857 26.0312 38.0917 25.5254 38.0339C25.0198 37.9764 25.5354 38.0691 25.2558 38.0486C24.9763 38.0283 24.6401 37.9358 24.5295 37.9675C24.4188 38 25.2966 38.254 25.8212 38.3447C26.9325 38.5363 28.1117 38.6461 27.6836 38.7058C27.6582 38.7092 27.0449 38.6011 26.9789 38.6186C26.4754 38.76 26.4168 38.9739 25.9694 39.1313C25.9069 39.1529 25.2235 39.0389 25.1793 39.0506C24.7173 39.1731 25.8837 39.2559 27.1587 39.5119C25.4487 39.2769 24.394 39.2011 24.3671 39.3374C24.3505 39.4188 25.1006 39.4946 25.6218 39.6101C25.779 39.6448 25.2582 39.6414 25.609 39.6934C26.7559 39.8629 28.0502 39.962 27.5216 40.0356C27.4966 40.0387 26.8687 39.9468 26.8281 39.9628C26.5632 40.0659 27.7653 40.2215 27.8957 40.3774C27.998 40.499 27.2419 40.6179 27.1091 40.7343C25.1793 40.5319 25.6083 40.7036 26.9348 40.8851C26.9231 40.8994 26.9159 40.9143 26.9107 40.9295L26.9122 40.9138C26.8884 40.9992 26.9014 41.0878 26.7435 41.1442C26.6774 41.168 26.1214 41.0852 26.0606 41.0824C25.1081 41.0319 26.397 41.2165 26.4454 41.2416C26.915 41.4971 25.9169 41.5436 26.8601 41.8122C26.894 41.8225 28.2354 41.954 27.2513 41.9094C27.1834 41.9069 26.5778 41.7939 26.5232 41.8723C26.4688 41.9473 25.7354 42.0579 26.351 42.2183C26.499 42.2581 27.5869 42.393 26.7302 42.3994C26.6139 42.4003 26.2284 42.3697 26.013 42.3687C25.3266 42.3672 26.6857 42.4623 25.5277 42.4434C24.3697 42.4257 23.4987 42.4861 24.2909 42.6523C24.3139 42.6576 25.3915 42.7324 25.3728 42.7709C25.3524 42.8133 25.245 42.8602 25.1765 42.9101C25.1419 42.9341 25.1173 42.958 25.1189 42.9804C25.1216 43.0124 25.7925 43.0139 25.8045 43.0198C26.1734 43.2401 25.5723 43.3694 25.3092 43.5934C25.2596 43.6355 26.1723 43.7635 25.4488 43.8368C24.6568 43.9183 21.3656 43.7985 22.1487 44.0241C22.4621 44.1196 26.638 44.2196 24.4751 44.3734C25.0127 44.6586 23.9098 44.9475 24.683 45.2233C24.7173 45.2358 25.8835 45.2446 25.8685 45.2741C25.844 45.3188 25.3003 45.3602 25.2655 45.3937C25.1058 45.5346 25.5762 45.6402 25.5093 45.7719C25.4851 45.8222 24.9216 45.8293 24.8928 45.8901C24.8646 45.9513 25.6073 45.9553 25.2534 46.0519C24.9837 46.1249 23.473 46.2672 23.3014 46.3621C24.7946 46.2816 24.767 46.34 25.1669 46.4139C25.2445 46.428 25.7628 46.3764 25.8263 46.3813C26.0962 46.4002 25.6677 46.4599 25.9613 46.4752C26.0318 46.4789 26.5415 46.4466 26.6279 46.4476C27.3819 46.4535 26.2418 46.6205 26.0435 46.6516C25.2901 46.7665 25.9547 46.7485 25.6599 46.8175C25.3651 46.8875 24.9869 46.843 24.8101 46.9133C24.4446 47.0596 24.5392 47.2076 24.5264 47.3303C24.5244 47.3792 25.2006 47.2867 25.2161 47.2923C25.3968 47.3733 24.6843 47.5422 26.0411 47.466C22.5529 47.8712 26.3856 47.4917 25.6999 47.696C25.6444 47.7123 23.9944 47.8979 23.7473 47.8783C23.5005 47.8582 24.0102 47.7396 23.6261 47.7151C23.536 47.7102 21.979 47.7708 21.884 47.7664C21.1416 47.7382 23.6117 47.5023 23.747 47.4859C25.2071 47.3032 23.5289 47.3499 23.4111 47.3308C22.8718 47.2505 23.2113 47.1164 22.8258 47.04C22.5766 46.9897 20.955 47.099 21.0006 47.0387C21.1513 46.8346 23.4104 46.634 21.4378 46.5802C21.0171 46.5677 19.2457 46.7067 20.6325 46.4898C20.7198 46.4753 21.9904 46.3078 21.1803 46.2923C21.0782 46.2902 20.5612 46.3168 20.5172 46.3093C20.233 46.258 20.6428 46.1944 20.4422 46.1325C20.2416 46.0707 19.9436 45.9967 20.1157 45.9075C20.2186 45.8536 21.1801 45.7545 21.4152 45.7231C22.0926 45.6341 20.9756 45.6048 21.7976 45.537C22.6238 45.4709 23.8828 45.5039 24.4143 45.3885C23.0698 45.427 21.6897 45.4611 20.3375 45.4963C20.3776 45.2567 20.8072 45.0161 20.7445 44.7829C20.7354 44.7537 20.0128 44.7939 19.9844 44.7625C19.8677 44.6297 20.3821 44.5088 20.1762 44.3712C20.0141 44.266 19.2484 44.1478 19.0559 44.0306C20.5951 43.9665 20.0737 43.8001 20.2158 43.6786C20.2649 43.6369 20.6759 43.6454 20.8104 43.6172C21.3079 43.5115 19.9472 43.5444 19.7337 43.5096C18.8226 43.3572 21.9006 43.4027 21.8279 43.2499C21.8251 43.2431 20.1871 43.1019 20.0854 43.0838C19.4217 42.9757 20.6567 43.0839 20.7794 43.032C20.9938 42.9394 21.3628 42.8841 20.9801 42.7618C20.9623 42.756 20.9427 42.7499 20.9215 42.7437C20.7805 42.7038 19.7616 42.5795 20.555 42.5407C20.6589 42.5359 21.2006 42.5633 21.2326 42.5575C21.7671 42.4501 20.0647 42.3729 19.4921 42.2636C18.9195 42.1556 20.1012 42.0897 20.4411 42.0847C21.3205 42.0693 20.8126 42.1553 20.8984 42.1632C21.9192 42.2579 21.7476 42.1625 21.8378 42.1035C23.5065 42.1906 23.4115 42.1001 21.9247 42.0406C21.7623 42.0343 21.9147 42.0951 21.8378 42.1035C20.2043 41.9518 20.0019 41.821 21.5384 41.8112C22.2585 41.8091 23.0897 41.9175 22.7959 41.7411C22.6635 41.6607 21.5144 41.5965 21.2072 41.5039C20.5068 41.2872 21.5954 41.1779 21.4435 41.0114C21.3885 40.9492 20.7564 40.9355 20.6973 40.8902C20.5387 40.7682 21.0183 40.7352 20.7876 40.6234C20.7659 40.6133 20.1089 40.5554 20.1035 40.529C20.0701 40.4024 20.223 40.353 20.3455 40.3265L20.3501 40.2776C20.4295 40.2078 20.4995 40.135 20.5127 40.0503C20.5293 39.9411 20.1882 39.7094 20.2736 39.6027C20.4171 39.4198 21.397 39.291 21.1854 39.0987C21.0503 38.9729 20.3927 38.9183 19.9523 38.8174C19.0987 38.6212 20.6673 38.6492 20.9095 38.6598C20.9175 38.6599 21.0601 38.7726 21.4022 38.7647C22.1057 38.8232 20.9123 38.6614 20.9095 38.6598C21.066 38.6653 21.2379 38.4995 21.1178 38.4462C21.0521 38.4173 20.431 38.3484 20.4085 38.3347C19.8864 38.0126 19.7637 37.735 20.0893 37.519C20.1024 37.5163 20.7934 37.6209 20.8157 37.6133C21.1439 37.5118 20.3112 37.297 19.8273 37.0991C19.3434 36.9029 19.5266 36.8279 20.7236 36.9365C20.5883 36.8211 21.1326 36.7722 21.4623 36.7476C21.7919 36.7233 20.45 36.5 20.4245 36.489C19.6076 36.1449 20.3964 36.1453 20.5518 35.9511C20.6279 35.859 20.4684 35.6213 20.3413 35.4846C20.2387 35.3756 20.5621 35.3779 20.3759 35.2607C20.3511 35.2448 19.7528 35.1495 19.7305 35.142C19.0336 34.9223 20.4831 35.228 20.7468 35.256C21.7055 35.3588 22.2164 35.4111 21.7923 35.2159C21.695 35.1718 19.6129 34.706 19.4997 34.633C19.3563 34.5394 20.1029 34.7044 19.9335 34.6032C19.9197 34.5947 19.4562 34.5087 19.4845 34.4707C19.61 34.2925 19.92 34.1356 19.9139 33.9251C19.9148 33.8967 19.1744 33.7854 19.1638 33.7416C19.1144 33.5367 19.1846 33.3329 19.5656 33.2228C19.6617 33.1961 20.168 33.3325 20.3222 33.355C21.2548 33.4912 19.9358 33.1231 19.9135 33.103C19.3437 32.6287 20.6079 32.6422 20.1123 32.1724C20.0826 32.1474 18.6902 31.6671 19.9285 31.8916C20.011 31.9059 21.2764 32.1415 20.4347 31.8819C20.3821 31.8656 19.7289 31.751 19.8111 31.6978C19.8929 31.6452 19.4906 31.4283 20.2202 31.5069C20.4502 31.5309 21.712 31.7704 20.7419 31.4357C20.6736 31.4145 18.4672 30.7098 20.0261 31.0511C20.2826 31.1075 21.9161 31.532 21.1043 31.2135C20.947 31.1517 20.5729 31.0951 20.3589 30.983C20.0293 30.8101 20.4948 30.8157 19.7946 30.5225C19.6704 30.4714 18.5836 30.1003 19.4403 30.262C19.5744 30.2876 20.114 30.4509 20.1835 30.4352C20.5161 30.3621 20.1959 30.1034 20.6145 30.0532C20.7616 30.0356 21.6314 30.3075 21.8819 30.318C22.1324 30.3282 22.3893 30.2824 22.0055 30.1106C21.6217 29.938 20.2073 29.6037 20.1214 29.4816C19.7502 28.9465 20.6849 28.7961 20.926 28.447C20.9621 28.3947 20.4516 28.2859 20.4697 28.1967C20.5159 27.9587 20.3825 27.5202 20.7423 27.3264C20.8726 27.271 21.0736 27.2497 21.3827 27.2848C22.2822 27.3872 22.8396 27.837 23.2281 27.8131C23.4136 27.801 21.8421 27.1806 21.7976 27.1465C21.3424 26.81 22.0878 26.9412 21.9204 26.7224C21.8857 26.6768 21.2286 26.4842 21.2062 26.4478C21.1241 26.3217 21.4444 26.3292 21.4201 26.2279C21.4078 26.182 20.9114 26.0189 20.9613 25.9977C21.0749 25.9456 21.3082 25.9427 21.7988 26.0219C21.8435 26.0291 22.441 26.2903 22.4849 26.2371C22.5543 26.15 23.0525 26.1874 22.6207 25.9094C22.4905 25.8266 21.3624 25.4351 22.167 25.6317C22.335 25.6728 23.6834 26.1609 22.5418 25.6714C22.3522 25.5898 20.822 24.9016 21.8645 25.1832C22.1388 25.2575 23.2637 25.5949 23.1036 25.4937C23.0777 25.4785 22.4641 25.2903 22.4168 25.236C22.2604 25.0481 22.3682 24.9466 22.2217 24.7566C22.1813 24.7056 21.5375 24.5361 21.4974 24.467C21.386 24.2768 21.6045 24.1641 21.8473 24.0998C21.9378 24.0768 22.4448 24.2927 22.5025 24.309C23.4406 24.5746 22.2131 24.1057 22.1475 24.0613C21.7559 23.7926 22.3704 23.9051 22.2548 23.7423C22.2245 23.6978 21.6265 23.5103 21.576 23.4857C21.0836 23.2414 22.1276 23.6629 22.2583 23.665C22.6278 23.6733 22.6247 23.5316 22.589 23.3933C22.5751 23.3421 21.8746 23.1444 21.87 23.1012C21.83 22.8407 21.978 22.6342 22.433 22.5535C22.5199 22.5389 23.0364 22.755 23.1595 22.79C24.0207 23.0365 22.9056 22.5362 22.8037 22.4766C22.3377 22.2069 22.8157 22.3397 22.758 22.2287C22.4678 21.6836 22.9567 21.3095 23.2893 21.0061C23.7202 20.6083 24.3643 20.4228 24.4315 19.8918C24.4365 19.8581 23.7352 19.6077 23.7308 19.5748C23.7067 19.16 24.1201 18.9271 24.0846 18.4742C24.083 18.4375 23.4183 18.1969 23.3943 18.1277C23.3397 17.9857 23.4354 17.8656 23.6875 17.8553C23.8092 17.8497 24.3295 18.1675 24.4404 18.1576C24.6995 18.1362 24.8047 18.0285 24.7594 17.8596C24.7392 17.7861 24.0491 17.5582 24.0749 17.4842C24.2356 16.9787 24.3917 16.3898 25.5343 16.2764C25.613 16.2684 26.8986 16.9736 26.7029 16.7521C26.3563 16.5388 25.9444 16.2952 25.5719 16.0708C25.6338 15.8721 25.7361 15.674 25.865 15.4845C26.1464 15.0842 26.6945 14.8627 27.0312 14.4795C27.049 14.4589 26.3807 14.0603 26.4123 14.0177C26.5933 13.7729 26.5921 13.3965 27.4125 13.5745C27.4933 13.5911 28.5977 14.396 28.4838 14.1998C28.462 14.1653 28.3981 13.9417 28.18 13.7372C28.1468 13.7068 27.6138 13.3552 27.6268 13.3056C27.7128 13.0216 28.0184 12.8529 28.5338 12.8257C28.6188 12.8212 29.1175 13.286 29.1819 13.2874C29.6336 13.2987 29.4174 12.7326 30.2343 12.7648C30.8109 12.7707 31.5472 13.6979 32.4715 14.4194C32.5391 14.4691 32.6176 14.4621 32.7712 14.4846C32.9081 14.5177 33.1462 14.5743 33.3229 14.8619C34.1336 16.3486 35.2359 17.8415 36.1543 19.3939C36.2289 19.5607 36.0493 19.7458 35.2994 20.0598C34.8632 20.2392 34.2241 20.3237 34.1195 20.4153C33.9749 20.502 34.6313 20.7243 35.5728 20.6659C35.6856 20.6808 36.4865 20.4319 36.7564 20.3841C37.1225 20.2968 37.312 20.3356 37.4752 20.4104C37.6795 20.5271 37.9905 21.1579 38.3137 21.2551C38.6435 21.3437 38.3459 20.8362 38.6578 20.9931C38.9642 21.16 39.511 21.7148 39.679 21.67ZM22.9358 36.6428C23.5914 36.681 21.2318 36.284 21.7846 36.4509C21.8142 36.4594 22.9036 36.6411 22.9358 36.6428ZM22.6124 44.9828C23.6658 44.8727 22.1133 44.8379 21.2994 44.9167C20.4865 44.9985 22.2931 45.0174 22.6124 44.9828ZM23.4118 45.8899C24.2388 45.7519 20.8478 45.8723 21.5382 45.962C21.5772 45.9673 23.3638 45.8981 23.4118 45.8899ZM32.2911 15.0705C32.3151 15.0911 32.3895 15.0537 32.3679 15.0309C31.8329 14.4888 31.6711 14.5789 32.2911 15.0705ZM24.3 46.7493C24.7557 46.6863 24.2211 46.6308 23.6542 46.7079C23.1982 46.771 23.7332 46.8289 24.3 46.7493ZM26.1092 33.7028C26.1442 33.7097 26.184 33.6799 25.9875 33.6354C25.3543 33.4922 25.5208 33.5856 26.1092 33.7028ZM24.4799 48.2687C24.5798 48.0224 27.3537 47.6004 27.0639 47.8565C27.0117 47.9043 26.1658 47.8683 25.9206 47.9491C25.4745 48.1017 27.2296 47.9586 26.3053 48.1689C26.1363 48.2095 24.4682 48.2851 24.476 48.2688C24.4773 48.2688 24.4786 48.2688 24.4799 48.2687ZM25.7785 37.0672C25.8099 37.071 25.848 37.0243 25.8173 37.018C25.0723 36.8665 24.995 36.962 25.7785 37.0672ZM28.0807 31.9573C28.1463 31.9729 28.239 31.8772 28.1804 31.8564C27.0032 31.4544 26.81 31.6547 28.0807 31.9573ZM27.0574 40.731C27.8119 40.8647 27.895 40.937 26.9358 40.8849C26.9919 40.8357 27.005 40.7814 27.0574 40.731Z" fill="#FB7139"/>
</svg>
