<svg width="3302" height="400" viewBox="0 0 3302 400" fill="none" xmlns="http://www.w3.org/2000/svg">
<path d="M38.1941 0.236933C29.54 32.9899 22.4187 65.9631 16.3575 100.302C14.9967 108.109 15.1143 107.387 14.5659 110.618C13.5669 116.488 12.0406 126.479 11.84 127.864C10.5484 136.503 11.0154 133.125 10.8396 134.288C8.96673 147.308 9.53283 143.549 7.94056 156.011C5.91112 172.235 3.77052 193.127 2.63562 212.795C2.27168 219.699 2.27488 216.592 1.73794 231.537C1.19455 242.121 1.53119 274.564 3.12449 289.428C3.09905 289.519 2.89602 287.653 2.79812 286.863C5.23962 308.057 5.11598 316.09 14.2339 344.907C15.8839 349.436 17.4906 353.694 21.3263 361.115C25.6354 368.336 24.7577 369.532 36.4435 381.689C40.8397 385.619 43.7215 388.104 51.9319 392.042C55.2967 393.563 58.9881 394.857 63.4052 395.82C90.2138 402.372 130.28 396.573 148.194 392.377C189.613 382.807 211.268 374.233 246.375 360.451C249.071 359.362 243.201 361.885 248.142 359.882C253.127 357.859 258.221 355.533 259.436 355.016C272.605 349.525 300.262 337.334 307.374 333.955C324.939 325.692 307.55 333.769 331.797 322.281C354.753 311.402 386.537 295.956 409.77 285.97C428.024 278.841 438.062 272.464 450.808 275.531C455.424 278.102 460.999 279.94 467.891 281.411C547.468 293.92 614.02 228.134 647.992 161.371C647.983 161.618 647.957 161.896 647.927 162.181C650.83 156.574 653.366 151.364 655.998 145.683C655.667 146.564 655.356 147.398 655.022 148.27C655.83 146.557 656.629 144.837 657.419 143.107C668.714 118.859 684.302 98.3357 711.187 81.2243C711.748 80.8723 710.398 81.9961 710.865 81.7078C717.295 77.6484 724.828 73.5207 730.974 70.8555C745.704 63.8136 772.796 58.5169 760.844 60.6599C797.577 51.3615 842.809 52.8482 877.808 61.1091C892.901 64.7027 897.307 66.7755 904.183 69.1164C911.291 71.7077 907.786 70.0855 910.273 71.0068C925.204 75.6224 947.871 91.6104 946.354 96.555C947.801 99.817 946.591 104.159 943.997 106.55C944.169 106.307 943.648 106.788 942.724 107.449C941.866 108.056 940.479 108.972 938.208 109.987C932.199 112.292 921.372 118.324 910.348 114.469C904.679 112.074 903.435 105.316 903.873 100.969C904.236 96.348 905.517 92.7519 906.387 90.3961C907.234 88.219 907.59 87.9435 908.323 86.3417C917.746 68.9022 921.447 65.0465 934.816 54.4834C939.917 51.2954 931.82 55.9006 945.446 48.6378C946.187 48.3294 946.169 48.0887 949.81 46.6908C952.418 45.5148 958.092 45.9458 964.223 49.8327C989.29 66.2771 1022.35 111.293 1044.24 137.87C1045.99 140.052 1040.34 133.649 1048.46 143.558C1051.41 147.154 1050.25 145.321 1057.37 154.079C1085.13 188.1 1115.1 224.143 1147.92 254.57C1146.54 253.669 1134.71 243.068 1152.27 259.209C1155.15 261.785 1153.2 259.645 1154.49 260.798C1164.91 270.037 1173.9 277.834 1186.26 286.612C1189.86 289.131 1190.84 289.569 1195.54 292.609C1202.41 296.939 1205.34 299.126 1213.74 303.41C1227.12 309.637 1229.18 310.761 1246.62 315.812C1261.86 319.226 1278.01 318.856 1292.72 313.502C1335.26 300.128 1366.44 262.602 1374.57 219.208C1386.11 178.81 1377.55 122.715 1422.33 99.6963C1425.1 98.4059 1427.8 97.3781 1430.79 96.4545C1456.64 88.7252 1482.22 85.5278 1510.62 83.8124C1519.84 83.3474 1521.66 83.608 1536.47 83.2602C1539.77 83.0836 1563.47 82.9699 1566.87 84.0437C1573.5 84.2207 1577.56 84.4252 1583.26 84.7165C1578.96 84.3345 1574.56 83.9877 1570.48 83.6933C1594.29 84.8605 1613.74 86.3863 1634.73 88.9715C1650.16 90.9845 1639.16 89.814 1648.62 91.1604C1658.05 92.5818 1662.37 93.1921 1674.02 95.7974C1677.86 96.3152 1681.14 96.9002 1684.87 97.6641C1690.15 98.7582 1696.33 100.18 1706.19 102.545C1708 102.97 1718.47 105.333 1727.11 107.789C1733.31 109.559 1735.1 110.351 1744.89 113.316C1746.52 113.719 1767.23 120.196 1773.66 122.71C1783.8 126.357 1799.31 133.486 1801.21 134.41C1809.07 137.968 1815.51 141.116 1821.05 143.954C1834.78 150.978 1844.08 155.666 1857.49 162.901C1861.53 164.504 1877.46 172.181 1890.58 178.485C1906.95 186.51 1939.83 202.154 1944.74 203.305C1964 212.009 1961.89 210.934 1985 220.315C2005.95 229.132 2062.57 249.512 2080.31 254.513C2097.91 259.819 2089.48 256.775 2096.52 258.8C2108 262.011 2101.71 260.55 2109.59 262.756C2131.91 268.916 2151.48 273.587 2173.13 277.907C2174.25 278.371 2175.45 278.851 2176.62 279.318C2177.75 279.469 2178.89 279.616 2180.03 279.762C2184.7 280.686 2189.93 281.661 2194.25 282.442C2157.95 274.707 2229.47 289.28 2251.42 290.701C2269.78 292.781 2300.56 294.171 2320.79 293.997C2325.72 293.981 2322.33 294.216 2323.34 294.212C2335.21 294.07 2337 293.951 2352.95 293.289C2361.36 292.897 2369.99 292.592 2378.17 291.845C2409.51 288.991 2440.05 283.525 2469.8 275.332C2497.34 267.724 2524.24 259.573 2551.29 249.608C2561.02 246.003 2569.31 243.054 2577 239.748C2588.46 234.755 2595.1 231.282 2605.18 225.673C2615.16 220.271 2628.75 210.743 2633.27 204.667C2635.56 201.77 2634.69 202.653 2634.27 203.115C2633.71 203.502 2634.44 203.417 2637.61 197.567C2639.96 192.059 2636.13 201.963 2638.92 195.045C2643.68 183.385 2630.25 172.057 2616.96 167.502C2603.35 162.385 2588.3 160.44 2575.27 160.403C2574.14 160.401 2572.98 160.401 2571.8 160.402C2572.81 160.448 2574.09 160.488 2575.27 160.534C2575.5 160.542 2575.73 160.551 2575.96 160.561C2575.73 160.562 2575.5 160.562 2575.27 160.564C2546.89 160.816 2521.82 161.653 2492.49 163.635C2482.15 164.317 2463.57 166.106 2453.46 167.214C2443.35 168.299 2438.74 168.66 2430.65 169.722C2427.34 170.167 2428.66 170.171 2426.44 170.475C2398.7 174.655 2383.24 176.49 2355.46 186.008C2341.85 191.423 2323.37 198.906 2323.31 214.944C2323.93 229.443 2338.15 238.326 2351.04 243.356C2364.41 248.562 2378.64 251.354 2392.95 253.444C2421.61 257.635 2450.73 257.772 2479.88 259.401C2515.2 259.762 2551.21 255.662 2586.53 251.55C2590.95 251.004 2593.85 250.462 2600.19 249.602C2610.1 248.241 2610.51 248.312 2611.83 248.138C2620.33 246.956 2616.97 247.317 2628.33 245.599C2653.57 241.866 2694.05 234.292 2718.69 228.1C2774.94 213.332 2824.5 199.868 2868.3 162.463C2870.85 160.028 2869.83 161.204 2872.63 158.398C2873.11 157.903 2873.71 157.303 2874.44 156.585C2893.28 138.825 2911.33 137.621 2927.88 138.92C2944.71 140.709 2962.98 146.229 2990.97 160.738C3045.04 182.852 3133.15 276.273 3210.63 255.702C3213.77 254.332 3216.56 253.073 3219.39 251.753C3219.39 251.754 3219.39 251.754 3219.39 251.754C3229.91 246.743 3241.81 240.742 3252.71 232.757C3258.07 228.693 3263.5 224.231 3266.41 218.267C3267.84 215.456 3267.82 211.383 3264.9 209.764C3262.16 208.123 3258.68 208.421 3255.83 209.462C3259.16 208.227 3263.41 208.051 3266.02 210.621C3268.64 213.371 3267.13 217.61 3265.26 220.526C3261.23 226.63 3255.29 231.149 3249.32 235.317C3237.22 243.526 3224.12 249.893 3210.68 255.82C3093.15 274.436 3021.37 125.185 2894 143.944C2886.03 147.349 2879.13 152.347 2872.99 158.743C2766 242.929 2614.01 252.515 2479.74 260.632C2460.32 259.353 2440.66 259.317 2421.32 257.713C2405.99 256.453 2399.84 255.494 2387.04 253.563C2384.88 253.213 2390.46 254.353 2383.78 253.251C2371.24 251.064 2358.6 248.191 2346.66 242.936C2335.15 237.887 2322.57 228.911 2322.01 215.013C2322.77 195.909 2343.9 189.182 2359.16 183.374C2375.42 177.905 2392.51 174.391 2409.4 171.539C2443.33 165.939 2477.2 163.079 2510.07 161.097C2534.63 159.746 2538.28 159.373 2559.97 158.739C2556.23 158.949 2553.65 159.149 2550.42 159.37C2558.73 159.164 2566.93 159.027 2575.26 158.985C2597.23 159.52 2622.26 162.566 2637.57 179.713C2645.24 189.259 2638.69 202.015 2630.62 209.407C2622.63 217.174 2612.8 223.285 2602.94 228.697C2563.14 249.722 2519.19 263.026 2475.36 275.396C2472.93 276.067 2471.62 276.334 2470.16 276.649C2469 276.897 2467.74 277.175 2465.67 277.714C2456.53 280.099 2447.88 282.436 2439.77 284.138C2429.22 286.304 2427.39 286.389 2417.6 288.062C2412.82 288.83 2414.28 288.892 2403.87 290.339C2402.99 290.449 2402.41 290.324 2395.46 291.224C2376.49 293.994 2337.32 296.194 2321.45 295.915C2301.18 295.95 2284.94 294.564 2277.3 294.023C2256.65 292.404 2257.06 292.749 2239.63 290.774C2115.49 275.305 2001.91 233.372 1886.88 178.305C1879.57 174.844 1852.76 162.104 1839.55 155.291C1837.01 153.999 1827.8 149.238 1820.34 145.34C1814.92 142.512 1810.02 140.146 1808.55 139.446C1794.28 132.621 1781.64 127.344 1773.47 124.214C1757.66 118.096 1739.42 112.949 1730.53 110.506C1717.28 106.701 1695.02 101.402 1684.53 99.317C1682.7 98.9387 1681.24 98.643 1680.25 98.4446C1664.13 95.3151 1669.57 95.8244 1657.92 93.9499C1654.47 93.4379 1658.04 94.3535 1645.9 92.5122C1635.76 91.0305 1631.64 90.2229 1624.71 89.3353C1617.73 88.4266 1604.89 87.6466 1600.54 87.2943C1577.79 85.4513 1567.7 84.598 1542.79 84.4127C1525.82 83.588 1457.52 87.9901 1431.16 97.6939C1425.34 99.4822 1421.87 101.335 1420.58 102.005C1401.07 116.027 1415.5 102.604 1431.27 98.0538C1438.5 95.8552 1445.3 94.3299 1446.37 94.0892C1464.1 90.5145 1461.46 91.229 1479.26 88.4703C1495.31 86.8013 1551.3 83.5878 1565.64 86.0417C1580.5 85.7048 1593.01 86.9522 1608.53 88.5921C1629.98 91.0566 1613.71 88.7829 1629.36 90.6111C1635.56 91.3295 1653.32 94.2804 1662.52 95.8721C1670.8 97.2663 1674.82 97.745 1684.46 99.6394C1685.54 99.8536 1686.69 100.087 1687.92 100.345C1709.78 104.956 1727.15 109.733 1744.95 115.653C1748.29 116.526 1751.39 117.359 1754.66 118.275C1766.91 122.538 1779.02 127.24 1790.89 132.443C1789.04 131.508 1787.18 130.581 1785.31 129.668C1788.84 131.081 1792.35 132.538 1795.81 134.028C1804.12 137.821 1812.04 141.725 1820 146.001C1822.96 147.593 1826.03 149.245 1829.26 150.972C1861.06 166.287 1851.66 162.258 1869.07 171.032C1886.54 179.738 1897.09 184.217 1910.74 190.554C1929.37 199.123 1937.74 202.796 1956.76 210.967C1967.55 215.609 1986.28 223.691 1971.13 216.723C2005.43 231.017 2053.45 248.037 2085.22 257.742C2094.6 260.65 2082 257.091 2083.6 257.596C2091.52 260.14 2098.41 261.78 2106.63 264.14C2120.41 268.189 2147.27 275.146 2158.29 277.554C2174.06 281.255 2199.2 285.323 2201.78 285.659C2216.18 287.873 2219.95 288.712 2224.6 289.358C2250.97 292.766 2256.88 292.842 2265.14 294.423C2272.03 294.826 2300.85 295.845 2307.81 296.408C2308 295.957 2331.94 296.399 2346.65 295.575C2349.4 295.619 2352.18 295.64 2354.92 295.647C2381.91 293.816 2432.35 287.961 2470.33 277.265C2475.7 275.821 2480.71 274.44 2485.32 273.139C2486.29 272.862 2487.88 272.035 2493.61 270.444C2494 270.339 2493.44 270.679 2497.47 269.509C2510.23 266.224 2559.37 249.857 2564.46 247.298C2584.83 239.047 2587.73 237.197 2599.78 231.068C2614.98 222.612 2617.65 221.755 2630.19 210.871C2635.25 205.384 2642.25 199.766 2641.25 187.045C2639.4 179.994 2638.37 179.306 2634.42 175.187C2618.02 162.277 2601.95 160.443 2584.11 158.447C2581.89 158.658 2578.78 158.587 2575.25 158.582C2571.38 158.573 2566.66 158.469 2561.77 158.54C2525.54 158.99 2480.18 162.112 2449.2 165.601C2424.38 168.351 2400.39 171.801 2377.16 177.535C2365.55 180.468 2354.27 183.847 2343.46 189.052C2333.31 194.169 2320.95 201.721 2321.31 215.05C2324.25 240.292 2352.49 246.883 2372.94 252.067C2394.91 256.875 2417.65 258.758 2440.76 259.914C2456.21 260.656 2459.91 260.249 2476.1 261.05C2477.17 261.117 2478.64 261.233 2479.66 261.359C2485.65 261.861 2492.74 261.706 2502.64 261.262C2512.22 260.806 2526.05 259.732 2537.88 258.695C2541.15 258.408 2541.26 258.591 2545.94 258.158C2581.26 254.834 2615.72 250.178 2650.95 243.985C2664.02 241.676 2672.14 240.281 2669.86 240.336C2674.85 239.478 2679.69 238.6 2684.39 237.729C2702.22 233.761 2716.87 230.809 2740.71 224.246C2743.29 223.569 2761.13 218.187 2771.24 214.939C2771.92 214.586 2770.32 215.004 2770.58 214.8C2780.49 211.551 2795.54 206.087 2802.15 203.316C2808.61 200.671 2812.92 198.542 2814.84 197.665C2822.15 194.282 2820.48 195.225 2821.05 194.973C2854.62 177.676 2850.83 178.843 2868.22 164.242C2869.1 163.417 2871.05 161.611 2873.41 159.148C2881.76 148.178 2906.27 139.288 2912.56 139.805C2912.92 139.848 2910.79 140.141 2910.2 140.309C2921.66 138.803 2933.47 140.328 2944.62 143.217C2942.23 142.521 2939.39 141.809 2937.24 141.322C2960.37 146.145 2978.51 155.143 2995.59 164.131C3005.34 169.435 3004.09 168.976 3009.74 172.166C3010.85 172.802 3009.03 171.628 3012.31 173.532C3038.97 189.232 3050.08 196.995 3076.3 213.443C3088.61 221.085 3099.45 227.809 3117.7 237.785C3119.24 238.692 3137.46 248.319 3149.39 252.442C3153.07 253.879 3156.48 255.049 3159.35 255.957C3171.55 259.424 3176.28 259.794 3181.91 260.371C3187.48 260.444 3194.85 262.366 3210.81 256.126C3210.96 256.062 3211.11 255.998 3211.25 255.933C3219.14 252.389 3236.87 244.747 3252.42 233.501C3256.31 230.63 3260.09 227.471 3263.13 223.897C3266.04 220.388 3269.1 215.742 3267.04 211.537C3264.59 207.565 3259.42 207.957 3256.18 209.043C3252.75 210.201 3250.26 212.416 3248.71 214.461L3248.81 214.464C3248.59 214.133 3248.36 213.797 3248.14 213.496C3240.93 204.364 3239.78 205.805 3238.11 204.836C3233.85 203.544 3231.66 206.885 3230.73 208.645C3229.7 210.683 3229.22 212.379 3228.73 214.494C3228.28 216.584 3228.06 219.198 3229.06 222.87C3232.29 234.113 3244.07 243.969 3253.98 249.947C3261.87 254.233 3255.36 251.465 3267.66 256.471C3268.95 256.91 3267.75 256.5 3267.87 256.539C3268.02 256.459 3269.36 257.504 3276.3 258.497C3276.97 258.479 3280.22 259.206 3283.76 257.502C3287.15 255.733 3290.89 252.963 3293.55 249.898C3294.24 249.183 3294.97 248.459 3295.87 248.209C3296.75 247.954 3297.64 248.122 3298.39 248.302C3299.92 248.705 3301.03 249.205 3301.76 249.5C3300.69 249.065 3299.42 248.51 3297.91 248.196C3297.17 248.052 3296.31 247.99 3295.52 248.333C3294.73 248.672 3294.11 249.328 3293.47 249.992C3291.02 252.76 3287.7 255.435 3283.76 257.513C3269.98 261.479 3255.55 250.873 3249.31 246.999C3239.53 239.789 3226.59 229.454 3228.64 214.474C3229.18 212.103 3229.87 209.714 3231.2 207.603C3232.43 205.484 3235.03 203.873 3237.58 204.564C3242.56 205.964 3245.98 210.261 3248.9 214.404L3248.62 214.395C3250.92 211.361 3254.33 209.118 3258.16 208.409C3261.77 207.646 3266.97 208.778 3267.75 213.149C3268.05 221.507 3260.44 227.153 3254.54 232.1C3241.58 241.985 3226.7 249.306 3210.91 256.342C3093.87 282.943 2997.5 90.9677 2874.14 159.845C2765.03 245.657 2624.4 248.127 2531.31 260.092C2509.48 261.763 2495.22 262.527 2480.55 262.104C2480.18 262.078 2479.86 262.05 2479.59 262.02C2467.25 261.158 2478.23 262.037 2465.66 261.497C2452.69 261.046 2443.21 260.562 2431.13 259.831C2410.27 258.513 2389.33 256.495 2368.82 251.604C2349.78 246.45 2323.31 239.363 2320.72 215.081C2320.19 203.417 2330.05 195.768 2338.64 190.848C2347.51 185.86 2357.11 182.474 2366.77 179.593C2386 173.977 2405.81 170.483 2425.51 167.663C2446.38 164.754 2463.12 162.857 2482.24 161.304C2489.64 160.723 2489.94 161.036 2495.21 160.663C2522.55 158.785 2548.98 157.648 2575.24 157.302C2589.66 157.213 2604.17 159.236 2617.93 164.311C2624.75 166.924 2631.6 170.316 2636.99 175.888C2642.59 181.168 2644.86 190.883 2641.35 198.047C2629.2 220.534 2603.69 230.486 2582.9 240.521C2565.24 248.4 2546.75 255.346 2530.13 260.912C2521.48 263.801 2516.25 265.138 2513.07 266.114C2502.05 269.455 2505.96 268.592 2500.15 270.348C2487.61 274.082 2480.72 275.763 2470.65 278.429C2467.61 279.228 2464.37 280.066 2460.73 280.993C2454.77 282.482 2455.6 282.588 2446.93 284.599C2435.86 287.059 2439.91 285.933 2431.98 287.499C2431.5 287.587 2433.09 287.486 2428.89 288.287C2401.78 293.544 2367.42 297.115 2340.8 297.737C2285.74 299.325 2231.43 293.053 2181.2 283.215C2168.5 280.688 2171.83 281.584 2167.81 280.772C2148.44 276.68 2141.63 274.748 2121.57 269.678C2118.25 268.836 2104.71 265.601 2092.04 261.75C2085.15 259.671 2077.54 257.094 2071.71 255.191C2065.9 253.289 2064.86 253.319 2057.92 251.042C2045.3 246.821 2048.96 247.876 2031.01 241.6C2023.68 239.05 1999.63 230.531 1981.23 223.027C1951.3 210.982 1914.79 194.466 1880.48 177.778C1868.86 172.147 1853.5 164.945 1835.49 155.749C1831.01 153.46 1825.03 150.388 1819.27 147.408C1797.33 135.83 1767.1 124.165 1748.16 118.254C1735.85 114.361 1735.02 113.85 1733.55 113.38C1724.08 110.559 1727.81 112.061 1721.42 110.3C1712.64 107.922 1704.46 105.608 1696.4 103.772C1691.25 102.607 1690.37 102.751 1689.25 102.511C1687.52 102.146 1685.8 101.79 1684.09 101.442C1644.72 93.5557 1608.88 89.2014 1568.63 87.5339C1522.84 86.0454 1475.95 87.4861 1431.88 100.054C1384.14 114.05 1389.92 173.681 1379.38 215.824C1371.98 261.426 1339.03 303.471 1294.04 317.188C1197.01 338.391 1133.3 244.684 1076.52 183.131C1064.37 168.563 1064.21 167.762 1053.68 154.934C1043.07 141.955 1032.63 130.098 1024.56 118.808C1024.15 118.573 1024.09 118.681 1023.69 118.436C1001.88 93.2735 981.511 59.5631 952.783 49.7597C952.125 49.7937 951.529 49.9078 950.972 50.0975C929.638 58.1847 914.193 76.0473 907.905 96.1486C905.555 105.575 908.035 109.586 910.787 111.27C913.72 112.935 917.714 113.531 925.772 111.193C929.546 110.146 933.089 108.764 936.87 107.058C941.573 104.978 944.989 101.7 943.665 97.7122C942.411 93.658 938.457 90.0581 934.396 87.0307C926.073 81.005 916.64 76.7581 906.986 73.0745C887.44 65.7783 866.979 61.3327 846.265 58.9599C805.085 54.4044 761.946 58.2803 725.012 76.5966C707.455 86.2597 690.804 97.2683 674.041 119.63C672.077 122.432 674.204 119.357 668.589 127.949C664.936 133.798 662.539 138.061 659.576 144.12C656.94 149.537 654.079 155.374 649.133 164.585C646.932 169.868 624.464 206.617 613.332 218.228C603.081 230.475 586.433 246.39 572.637 255.74C574.661 254.434 577.059 252.785 579.192 251.261C572.746 256.275 565.747 261.029 558.662 265.119C557.545 265.621 556.431 266.106 555.361 266.552C551.286 268.917 546.952 271.186 542.585 273.218C532.64 276.435 542.951 273.624 520.847 280.546C509.582 283.523 500.33 284.805 488.421 285.071C484.063 285.114 481.308 285.201 476.579 284.8C464.923 283.402 471.819 284.118 464.652 282.747C460.54 281.782 455.252 280.525 449.685 277.507C446.375 275.931 441.302 277.076 436.214 278.349C442.442 276.639 436.489 277.651 428.682 280.429C420.806 283.182 411.644 287.294 410.841 287.812C406.371 289.732 403.184 291.13 398.352 293.324C402.147 290.643 380.677 301.169 371.941 305.492C363.392 309.673 363.476 309.4 361.513 310.344C355.758 313.113 360.008 311.186 355.93 313.132C328.673 326.148 303.121 338.106 275.859 349.932C271.945 351.623 275.463 350.224 270.885 352.181C266.29 354.137 261.853 355.909 255.047 358.726C253.219 359.48 252.68 359.803 249.824 360.963C190.298 383.821 129.92 407.963 63.9039 397.171C63.6488 397.117 63.3965 397.063 63.1464 397.008C57.604 395.63 52.7345 394.736 43.3719 388.723C33.4102 382.532 22.5344 368.045 17.034 354.787C15.4965 351.225 15.0685 350.459 13.3237 345.65C7.68472 329.394 5.05593 314.782 3.01634 297.129C-0.262888 267.254 0.252163 235.683 2.44273 205.256C2.87456 199.518 2.82602 200.446 3.54821 192.13C4.87891 177.82 4.35725 183.205 4.62616 180.306C5.59103 170.81 5.99915 167.871 7.10618 158.717C7.27872 157.319 6.99161 159.308 7.14839 158.054C9.68285 138.635 9.89437 137.638 13.1392 117.061C16.2045 98.8456 11.1469 129.329 10.7968 132.469C9.71208 140.149 12.7555 119.864 14.8487 107.981C16.6336 97.6957 16.6102 97.849 17.3515 93.738C21.208 72.1157 28.1078 40.2877 32.1207 24.1135C34.5362 14.1916 30.2251 31.9722 31.4459 26.9434C32.6199 22.0592 33.454 18.6477 34.7085 13.6782C35.9954 8.52774 38.7117 -1.72713 38.1941 0.236933ZM1133.76 241.915C1108.35 219.758 1051.72 150.507 1022.11 113.196C997.57 81.9441 973.662 57.1992 978.637 64.0663C1008.51 94.4031 1029.1 122.827 1057.91 157.82C1060.88 161.527 1078.71 183.304 1085.1 190.72C1088.69 194.929 1088.62 195.201 1093.54 200.859C1094.61 202.095 1100.8 208.699 1103.02 211.165C1110.38 219.736 1133.48 244.46 1136.95 247.551C1146.4 256.673 1143.04 252.893 1147.17 256.713C1161.28 269.343 1162.53 271.206 1177.33 282.608C1180.11 284.669 1189.13 291.081 1200.97 298.369C1205.75 301.372 1214.13 306.144 1218.08 307.943C1239.28 318.397 1266.59 323.265 1287.52 317.003C1289.83 316.379 1291.74 315.763 1293.33 315.21C1303.61 311.458 1301.03 312.74 1308.63 309.351C1317.07 305.504 1326.57 299.012 1331.57 295.053C1339.86 288.914 1348.34 279.861 1350.32 277.27C1392.4 227.022 1369.82 159.829 1408.25 111.183C1379.75 142.799 1385.79 188.771 1373.8 227.057C1367.39 249.183 1370.61 238.224 1364.71 252.137C1359.31 262.774 1358.7 265.922 1348.78 278.239C1348.79 278.229 1348.8 278.219 1348.81 278.209C1343.7 284.512 1330.53 296.57 1315.19 304.831C1314.63 305.034 1313.71 306.441 1301.76 311.643C1299.15 312.74 1296.31 313.853 1293.24 314.956C1265.5 326.7 1224.82 314.005 1200.33 297.753C1192.27 292.643 1193.84 293.323 1184.7 286.817C1177.92 281.873 1170.14 276.262 1160.31 267.663C1148.01 256.781 1142.83 250.927 1134.31 243.563C1133.85 242.725 1134.36 242.874 1133.76 241.915ZM548.444 268.956C546.72 270.655 517.473 280.333 526.262 277.849C566.208 266.035 601.567 234.598 626.393 199.31C617.286 210.971 602.222 231.494 578.102 250.3C578.092 250.308 578.082 250.316 578.071 250.324C576.936 251.189 581.592 247.46 575.153 252.383C571.986 254.858 559.637 263.723 548.444 268.956Z" fill="#FB7139"/>
</svg>
