<svg width="92" height="73" viewBox="0 0 92 73" fill="none" xmlns="http://www.w3.org/2000/svg">
<path d="M37.7084 55.2787C36.8291 55.5626 35.942 55.7314 35.0472 55.7849C34.1609 55.8651 33.2686 55.653 32.3702 55.1487C31.4717 54.6444 30.5642 53.7016 29.6474 52.3205C28.7221 50.9127 27.7936 48.9028 26.8619 46.2907C26.3708 48.5972 25.6954 50.7425 24.8355 52.7267C24.0022 54.7024 23.0524 56.3625 21.986 57.7072C20.9376 59.0167 19.8272 59.8607 18.6548 60.2393C17.4824 60.6179 16.322 60.6689 15.1735 60.3924C14.0516 60.1074 12.9872 59.3624 11.9803 58.1575C11 56.944 10.127 55.1515 9.36124 52.7801C8.76759 50.9416 8.32521 49.0248 8.0341 47.0297C7.73439 45.008 7.55805 43.0494 7.50508 41.154C7.44351 39.2319 7.48213 37.4835 7.62094 35.9086C7.75975 34.3338 7.97988 33.0564 8.28133 32.0763C8.60942 31.0877 8.98663 30.5245 9.41295 30.3869C10.4255 30.0599 11.2576 30.0855 11.9093 30.4635C12.5524 30.8149 13.003 31.3903 13.2611 32.1897C13.3729 32.5361 13.4458 33.2628 13.4796 34.37C13.5048 35.4505 13.5323 36.7657 13.5619 38.3156C13.583 39.8388 13.6251 41.4729 13.6884 43.2179C13.7697 44.9276 13.9133 46.6025 14.1192 48.2426C14.3251 49.8827 14.6345 51.3422 15.0475 52.6212C15.2196 53.1541 15.4058 53.5942 15.6062 53.9414C15.8246 54.2534 16.0671 54.3663 16.3335 54.2803C17.7457 53.8243 18.8793 52.8698 19.7342 51.4168C20.6071 49.9286 21.2616 48.1284 21.6977 46.0162C22.1518 43.8688 22.4301 41.5869 22.5326 39.1705C22.6531 36.7189 22.6804 34.2974 22.6144 31.9059C22.4062 31.4435 22.2157 30.9901 22.0428 30.5458C21.8965 30.0928 21.7374 29.5999 21.5653 29.067C21.376 28.4808 21.4003 27.7815 21.6382 26.9691C21.8761 26.1567 22.2416 25.4207 22.7349 24.7613C23.2461 24.0666 23.7949 23.6246 24.3811 23.4353C25.0472 23.2202 25.6623 23.257 26.2262 23.5457C26.8169 23.8257 27.2843 24.4987 27.6284 25.5645C27.9123 26.4438 28.109 27.1894 28.2183 27.8015C28.3457 28.3782 28.4245 28.9412 28.4547 29.4905C28.5116 30.0312 28.5767 30.6428 28.65 31.3253C28.7413 31.9726 28.8795 32.8106 29.0646 33.8395C29.2763 34.8598 29.5917 36.1556 30.0108 37.7268C30.4565 39.2895 31.0579 41.2432 31.815 43.588C31.8667 43.7479 31.9183 43.9077 31.9699 44.0676C32.0129 44.2008 32.0602 44.3474 32.1119 44.5073C32.3261 45.2619 32.5847 46.017 32.8874 46.7725C33.1902 47.5281 33.5966 48.103 34.1064 48.4974C34.6163 48.8919 35.3109 48.9471 36.1902 48.6632C37.1494 48.3535 37.8575 47.4481 38.3143 45.9471C38.7712 44.4461 38.98 42.4956 38.9406 40.0956C38.8927 37.6689 38.631 34.8993 38.1556 31.7868C37.6716 28.6477 36.9903 25.3074 36.1117 21.7661C35.813 20.5679 35.729 19.624 35.8594 18.9346C36.0165 18.2366 36.2782 17.7254 36.6443 17.4013C37.0018 17.0504 37.3404 16.8234 37.6601 16.7202C37.9799 16.6169 38.3834 16.5455 38.8708 16.5058C39.3582 16.4661 39.8568 16.6435 40.3667 17.0379C40.8765 17.4323 41.3251 18.229 41.7122 19.4281C43.192 24.0111 44.1581 28.1421 44.6104 31.8211C45.0628 35.5001 45.1518 38.7373 44.8775 41.5329C44.6032 44.3284 44.0718 46.692 43.2832 48.6238C42.5213 50.5469 41.6393 52.0528 40.6373 53.1413C39.6439 54.2565 38.6676 54.969 37.7084 55.2787ZM46.9827 54.2261C45.757 54.6218 44.7659 54.5594 44.0093 54.0387C43.2527 53.5179 42.6593 52.5915 42.2291 51.2592C41.8333 50.0335 41.5436 48.3616 41.3599 46.2436C41.1943 44.0903 41.102 41.6633 41.0832 38.9624C41.0824 36.2263 41.1534 33.3934 41.2962 30.4638C41.4303 27.5076 41.6216 24.5917 41.8701 21.7163C42.1099 18.8142 42.392 16.1338 42.7162 13.6753C42.8947 12.5878 43.1945 11.7849 43.6156 11.2664C44.0366 10.7479 44.5669 10.3855 45.2064 10.179C45.8192 9.98109 46.3947 9.98652 46.9329 10.1953C47.4625 10.3773 47.8434 10.8281 48.0757 11.5475C48.1273 11.7074 48.112 12.3891 48.0299 13.5925C47.9391 14.7694 47.8183 16.309 47.6676 18.2113C47.5082 20.087 47.351 22.1974 47.1961 24.5425C47.0326 26.8609 46.8992 29.2725 46.7959 31.7775C46.684 34.2557 46.6434 36.6816 46.6741 39.0549C46.7049 41.4283 46.8172 43.5988 47.0112 45.5664C47.5394 44.0129 48.0912 42.3047 48.6667 40.4418C49.2601 38.5436 49.8712 36.6544 50.4999 34.7743C51.1466 32.8589 51.8098 31.0854 52.4892 29.4536C53.1954 27.8133 53.9033 26.4519 54.613 25.3695C55.3228 24.287 56.0374 23.6296 56.7568 23.3973C58.0891 22.9672 59.2753 22.9961 60.3156 23.484C61.3739 23.9367 62.1913 25.0557 62.7677 26.841C63.0344 27.667 63.1972 28.7178 63.256 29.9934C63.3062 31.2424 63.3113 32.5796 63.2713 34.0048C63.2493 35.3948 63.2678 36.7276 63.3266 38.0032C63.3854 39.2789 63.5568 40.3564 63.8407 41.2357C63.9955 41.7153 64.2995 41.882 64.7524 41.7357C66.0581 41.3141 67.2867 40.6085 68.4383 39.6187C69.6165 38.6204 70.6851 37.5103 71.6441 36.2886C72.6211 35.0315 73.4825 33.8266 74.2284 32.6736C74.9922 31.4854 75.6035 30.5083 76.0624 29.7423C76.3777 29.1697 76.7003 28.7565 77.0304 28.5029C77.3518 28.2225 77.6724 28.0308 77.9921 27.9275C79.0846 27.5748 79.8072 27.9446 80.1599 29.0371C80.2287 29.2503 80.2748 29.5296 80.2981 29.8752C80.3128 30.1941 80.1801 30.6488 79.9001 31.2395C79.62 31.8301 79.187 32.6761 78.6011 33.7774C78.0151 34.8787 77.2998 36.0807 76.4552 37.3832C75.6372 38.6771 74.6998 39.9655 73.6428 41.2484C72.6039 42.496 71.4777 43.6099 70.2642 44.5902C69.0507 45.5705 67.7911 46.2714 66.4855 46.693C64.5138 47.3297 62.8143 47.2605 61.3871 46.4855C59.9686 45.7372 58.9538 44.4172 58.343 42.5253C57.9214 41.2197 57.6588 39.495 57.555 37.3511C57.4426 35.1807 57.384 32.9487 57.379 30.6553C56.739 31.8623 56.1149 33.2555 55.5067 34.8348C54.8899 36.3874 54.2857 38.0243 53.6939 39.7454C53.0935 41.4398 52.5021 43.1167 51.9198 44.7759C51.3555 46.3998 50.7967 47.9043 50.2435 49.2893C49.6817 50.6476 49.131 51.767 48.5914 52.6474C48.0519 53.5278 47.5156 54.054 46.9827 54.2261ZM77.6707 53.0118C76.1786 53.4936 74.7896 53.8391 73.5037 54.0484C72.2263 54.2843 70.9413 54.405 69.6484 54.4105C68.3556 54.416 66.9307 54.3317 65.3739 54.1577C64.7284 54.0719 64.1717 53.9427 63.704 53.77C63.2364 53.5974 62.9079 53.218 62.7186 52.6318C62.4433 51.7791 62.499 51.0403 62.8856 50.4152C63.2542 49.8254 63.8915 49.3843 64.7974 49.0917C65.2771 48.9369 65.9415 48.8989 66.7908 48.9777C67.6488 49.0832 68.6262 49.1942 69.7231 49.3108C70.8552 49.4455 72.0724 49.4791 73.3747 49.4117C74.6856 49.3709 76.0338 49.1268 77.4194 48.6794C78.8316 48.2234 79.9613 47.2114 80.8084 45.6432C81.6555 44.075 82.108 42.1047 82.1658 39.7322C82.2588 37.3777 81.8407 34.7616 80.9115 31.8839C80.6964 31.2177 80.4508 30.5026 80.1747 29.7385C79.8899 28.9477 79.5923 28.117 79.2817 27.2463C78.9075 29.3679 78.4147 31.3954 77.8032 33.3289C77.1917 35.2623 76.4456 36.9155 75.5649 38.2886C74.7022 39.6264 73.6713 40.4889 72.4723 40.876C71.0068 41.3492 69.8291 41.347 68.9393 40.8693C68.0675 40.3563 67.3821 39.3271 66.8831 37.7817C66.4615 36.4761 66.0945 35.0204 65.782 33.4148C65.4876 31.7739 65.2554 30.0981 65.0856 28.3876C64.9158 26.677 64.825 25.0292 64.8134 23.444C64.8198 21.8237 64.9174 20.3945 65.1062 19.1567C65.2564 18.2549 65.7445 17.6706 66.5705 17.4039C67.1034 17.2319 67.718 17.3129 68.4144 17.6471C69.1374 17.9727 69.6366 18.5618 69.9119 19.4145C70.0668 19.8941 70.1706 20.6256 70.2233 21.609C70.276 22.5923 70.3141 23.7128 70.3377 24.9704C70.3793 26.1928 70.4291 27.4861 70.4871 28.8502C70.5364 30.1878 70.6348 31.4948 70.7822 32.7713C70.9209 34.0211 71.1451 35.1256 71.4549 36.0848C71.4893 36.1914 71.5864 36.2189 71.7463 36.1673C72.0661 36.064 72.4063 35.6599 72.7672 34.955C73.1461 34.2147 73.5266 33.2974 73.9088 32.203C74.3091 31.0734 74.6835 29.8638 75.0322 28.5743C75.3988 27.2495 75.7432 25.9467 76.0652 24.6658C76.3872 23.3849 76.6727 22.2188 76.9217 21.1674C76.7041 20.7669 76.5303 20.411 76.4004 20.0999C76.2886 19.7535 76.1939 19.4604 76.1165 19.2206C75.7638 18.1281 75.6578 17.162 75.7985 16.3221C75.9659 15.4736 76.6225 14.8644 77.7682 14.4944C78.5143 14.2535 79.1775 14.3483 79.7578 14.7788C80.3296 15.1827 80.7746 15.8776 81.093 16.8635C81.2306 17.2898 81.3232 17.8042 81.3706 18.4068C81.4095 18.9827 81.4183 19.9214 81.3972 21.2229L81.4368 19.8419C82.4509 22.1626 83.3391 24.2297 84.1012 26.0432C84.8899 27.8482 85.5812 29.6699 86.1748 31.5084C87.2933 34.9724 87.675 38.1592 87.3199 41.0691C87.0001 43.997 86.0114 46.4936 84.3538 48.5589C82.7228 50.6155 80.4952 52.0998 77.6707 53.0118Z" fill="#C15259"/>
</svg>
