<svg width="166" height="61" viewBox="0 0 166 61" fill="none" xmlns="http://www.w3.org/2000/svg">
<path fill-rule="evenodd" clip-rule="evenodd" d="M160.524 1L10.7462 1.00039C9.32709 1.00039 8.01558 1.7693 7.30496 3.01791L2.03435 12.2787C1.68431 12.8938 1.5 13.5918 1.5 14.3023V55.9589C1.5 58.1907 3.27994 60 5.47561 60L124.584 59.9997L131.42 47.9774L139.979 47.9773L148.537 47.9773L157.096 47.9772L150.26 59.9996L155.26 59.9996C156.679 59.9996 157.991 59.2301 158.702 57.9806L163.966 48.7212C164.316 48.1064 164.5 47.409 164.5 46.699L164.499 5.04103C164.499 2.80922 162.719 0.999994 160.524 1Z" fill="#464444"/>
<path d="M148.537 47.9773L139.979 47.9773L133.143 59.9997L141.701 59.9996L148.537 47.9773Z" fill="#F3E96F"/>
<path d="M157.096 47.9772L148.537 47.9773L141.701 59.9996L150.26 59.9996L157.096 47.9772Z" fill="#2F9DB4"/>
<path d="M139.979 47.9773L131.42 47.9774L124.584 59.9997L133.143 59.9997L139.979 47.9773Z" fill="#FB7139"/>
<path d="M131.42 47.9774L122.861 47.9774L116.026 59.9997L124.584 59.9997L131.42 47.9774Z" fill="#C15259"/>
<path d="M15.8803 4.99018H21.1977V45.4517H15.8803V4.99018Z" fill="#F2F0ED"/>
<path d="M23.6452 4.99018H28.9626L32.7891 25.2462V4.99018H38.6034V45.4517H33.5345L28.9626 25.2462V45.4517H23.6452V4.99018Z" fill="#F2F0ED"/>
<path d="M48.5137 20.4979L52.5887 24.8421C54.0133 26.2901 54.7256 28.9505 54.7256 32.8232V40.8044C54.7256 43.027 53.9471 44.5929 52.3899 45.5022C51.396 46.0747 49.9715 46.3609 48.1162 46.3609C46.3271 46.3609 44.8529 45.9905 43.6933 45.2496C42.1693 44.273 41.4073 42.6566 41.4073 40.4003V30.247H46.7247V39.5416C46.7247 40.8212 47.172 41.4611 48.0665 41.4611C48.4309 41.4611 48.7291 41.3095 48.961 41.0065C49.226 40.6697 49.3585 40.1814 49.3585 39.5416L49.2592 32.9243C49.2592 31.2068 49.0604 29.8766 48.6628 28.9337C48.3978 28.3275 47.9174 27.654 47.2217 26.9131L43.4448 22.771C42.8485 22.0301 42.3515 21.003 41.954 19.6897C41.5895 18.3763 41.4073 16.7935 41.4073 14.9414V10.1426C41.4073 8.35776 41.9043 6.97705 42.8982 6.00045C44.124 4.8218 45.9958 4.23247 48.5137 4.23247C50.1702 4.23247 51.5451 4.63658 52.6384 5.4448C54.0299 6.48875 54.7256 8.05468 54.7256 10.1426V18.1237H49.2592V10.9003C49.2592 10.5298 49.1598 10.1763 48.961 9.83949C48.7622 9.50274 48.4475 9.33436 48.0168 9.33436C47.553 9.33436 47.1885 9.55325 46.9235 9.99104C46.791 10.2268 46.7247 10.5298 46.7247 10.9003V14.9414C46.7247 16.3894 46.9235 17.6186 47.321 18.6289C47.6192 19.3698 48.0168 19.9928 48.5137 20.4979Z" fill="#F2F0ED"/>
<path d="M57.0826 4.99018H69.904V10.1426H66.2265V45.4517H60.8595V10.1426H57.0826V4.99018Z" fill="#F2F0ED"/>
<path d="M71.3991 45.4517L74.679 4.99018H81.2884L84.7174 45.4517H79.2509V38.2282H76.7165V45.4517H71.3991ZM78.0086 18.932L76.7165 33.2273H79.2509L78.0086 18.932Z" fill="#F2F0ED"/>
<path d="M86.2979 4.99018H91.6153L95.4418 25.2462V4.99018H101.256V45.4517H96.1873L91.6153 25.2462V45.4517H86.2979V4.99018Z" fill="#F2F0ED"/>
<path d="M104.06 4.99018H116.881V10.1426H113.204V45.4517H107.837V10.1426H104.06V4.99018Z" fill="#F2F0ED"/>
<path d="M119.25 4.99018H125.86C127.947 4.99018 129.438 5.24275 130.332 5.74788C131.823 6.58978 132.568 8.30724 132.568 10.9003V39.5416C132.568 42.1683 131.806 43.9026 130.282 44.7445C129.421 45.2159 127.947 45.4517 125.86 45.4517H119.25V4.99018ZM124.567 10.1426V40.4003C125.594 40.4003 126.241 40.2824 126.506 40.0467C126.903 39.6763 127.102 38.8175 127.102 37.4705V12.9713C127.102 11.759 126.92 10.9845 126.555 10.6477C126.191 10.311 125.528 10.1426 124.567 10.1426Z" fill="#F2F0ED"/>
<path d="M134.634 45.4517L137.914 4.99018H144.524L147.953 45.4517H142.486V38.2282H139.952V45.4517H134.634ZM141.244 18.932L139.952 33.2273H142.486L141.244 18.932Z" fill="#F2F0ED"/>
<path d="M149.048 4.99018H154.365L155.657 22.771L156.9 4.99018H162.366L158.54 35.3994V45.4517H152.725V35.3994L149.048 4.99018Z" fill="#F2F0ED"/>
<path d="M150.26 59.9996L155.26 59.9996C156.679 59.9996 157.991 59.2301 158.702 57.9806L163.966 48.7212C164.316 48.1064 164.5 47.409 164.5 46.699L164.499 5.04103C164.499 2.80922 162.719 0.999994 160.524 1L10.7462 1.00039C9.32709 1.00039 8.01558 1.7693 7.30496 3.01791L2.03435 12.2787C1.68431 12.8938 1.5 13.5918 1.5 14.3023V55.9589C1.5 58.1907 3.27994 60 5.47561 60L124.584 59.9997M150.26 59.9996L141.701 59.9996M150.26 59.9996L157.096 47.9772L148.537 47.9773M148.537 47.9773L139.979 47.9773M148.537 47.9773L141.701 59.9996M141.701 59.9996L133.143 59.9997M139.979 47.9773L131.42 47.9774M139.979 47.9773L133.143 59.9997M133.143 59.9997L124.584 59.9997M131.42 47.9774L124.584 59.9997M131.42 47.9774L122.861 47.9774L116.026 59.9997L124.584 59.9997M15.8803 4.99018H21.1977V45.4517H15.8803V4.99018ZM23.6452 4.99018H28.9626L32.7891 25.2462V4.99018H38.6034V45.4517H33.5345L28.9626 25.2462V45.4517H23.6452V4.99018ZM48.5137 20.4979L52.5887 24.8421C54.0133 26.2901 54.7256 28.9505 54.7256 32.8232V40.8044C54.7256 43.027 53.9471 44.5929 52.3899 45.5022C51.396 46.0747 49.9714 46.3609 48.1162 46.3609C46.3271 46.3609 44.8529 45.9905 43.6933 45.2496C42.1693 44.273 41.4073 42.6566 41.4073 40.4003V30.247H46.7247V39.5416C46.7247 40.8212 47.172 41.4611 48.0665 41.4611C48.4309 41.4611 48.7291 41.3095 48.961 41.0065C49.226 40.6697 49.3585 40.1814 49.3585 39.5416L49.2592 32.9243C49.2592 31.2068 49.0604 29.8766 48.6628 28.9337C48.3978 28.3275 47.9174 27.654 47.2217 26.9131L43.4448 22.771C42.8485 22.0301 42.3515 21.003 41.954 19.6897C41.5895 18.3763 41.4073 16.7935 41.4073 14.9414V10.1426C41.4073 8.35776 41.9043 6.97705 42.8982 6.00045C44.124 4.8218 45.9958 4.23247 48.5137 4.23247C50.1702 4.23247 51.5451 4.63658 52.6384 5.4448C54.0299 6.48875 54.7256 8.05468 54.7256 10.1426V18.1237H49.2592V10.9003C49.2592 10.5298 49.1598 10.1763 48.961 9.83949C48.7622 9.50274 48.4475 9.33436 48.0168 9.33436C47.553 9.33436 47.1885 9.55325 46.9235 9.99104C46.791 10.2268 46.7247 10.5298 46.7247 10.9003V14.9414C46.7247 16.3894 46.9235 17.6186 47.321 18.6289C47.6192 19.3698 48.0168 19.9928 48.5137 20.4979ZM57.0826 4.99018H69.904V10.1426H66.2265V45.4517H60.8595V10.1426H57.0826V4.99018ZM71.3991 45.4517L74.679 4.99018H81.2884L84.7174 45.4517H79.2509V38.2282H76.7165V45.4517H71.3991ZM78.0086 18.932L76.7165 33.2273H79.2509L78.0086 18.932ZM86.2979 4.99018H91.6153L95.4418 25.2462V4.99018H101.256V45.4517H96.1873L91.6153 25.2462V45.4517H86.2979V4.99018ZM104.06 4.99018H116.881V10.1426H113.204V45.4517H107.837V10.1426H104.06V4.99018ZM119.25 4.99018H125.86C127.947 4.99018 129.438 5.24275 130.332 5.74788C131.823 6.58978 132.568 8.30724 132.568 10.9003V39.5416C132.568 42.1683 131.806 43.9026 130.282 44.7445C129.421 45.2159 127.947 45.4517 125.86 45.4517H119.25V4.99018ZM124.567 10.1426V40.4003C125.594 40.4003 126.241 40.2824 126.506 40.0467C126.903 39.6763 127.102 38.8175 127.102 37.4705V12.9713C127.102 11.759 126.92 10.9845 126.555 10.6477C126.191 10.311 125.528 10.1426 124.567 10.1426ZM134.634 45.4517L137.914 4.99018H144.524L147.953 45.4517H142.486V38.2282H139.952V45.4517H134.634ZM141.244 18.932L139.952 33.2273H142.486L141.244 18.932ZM149.048 4.99018H154.365L155.657 22.771L156.9 4.99018H162.366L158.54 35.3994V45.4517H152.725V35.3994L149.048 4.99018Z" stroke="#F2F0ED" stroke-width="2"/>
</svg>
