<svg width="268" height="32" viewBox="0 0 268 32" fill="none" xmlns="http://www.w3.org/2000/svg">
<path d="M0.46784 0.339794C1.07928 0.262863 1.07928 0.262863 1.88063 0.262967C2.02764 0.262151 2.17464 0.261335 2.3261 0.260494C2.82119 0.25851 3.31617 0.26095 3.81125 0.263358C4.16517 0.26286 4.51908 0.262097 4.873 0.261087C5.83611 0.259151 6.79918 0.261094 7.76229 0.263824C8.76844 0.266142 9.77459 0.265304 10.7807 0.264903C12.4707 0.264721 14.1605 0.267 15.8505 0.270776C17.8064 0.275122 19.7624 0.275843 21.7184 0.274562C23.5971 0.273394 25.4759 0.27455 27.3546 0.276856C28.1554 0.277811 28.9563 0.277988 29.7571 0.277557C30.6996 0.277171 31.642 0.278827 32.5844 0.282086C32.9311 0.282959 33.2778 0.283129 33.6244 0.28256C34.0961 0.281902 34.5677 0.283753 35.0394 0.286273C35.3039 0.286695 35.5683 0.287116 35.8408 0.287551C36.4522 0.339794 36.4522 0.339794 36.8635 0.75039C36.9454 1.62443 36.9311 2.50147 36.9284 3.37892C36.9277 3.8147 36.9325 4.25019 36.9378 4.68594C36.9382 4.96274 36.9384 5.23955 36.9382 5.51635C36.9388 5.76854 36.9394 6.02073 36.94 6.28055C36.8635 6.90933 36.8635 6.90933 36.6133 7.25155C36.1304 7.61195 35.8372 7.60345 35.237 7.6057C35.0289 7.60798 34.8207 7.61026 34.6062 7.6126C34.2639 7.61168 34.2639 7.61168 33.9147 7.61073C33.6743 7.61249 33.4339 7.61426 33.1862 7.61607C32.3894 7.62124 31.5927 7.62212 30.7959 7.62306C30.2441 7.626 29.6922 7.62919 29.1404 7.63275C27.8349 7.64067 26.5295 7.64564 25.224 7.64941C22.884 7.65627 20.5441 7.6681 18.2042 7.68102C17.5176 7.68472 16.8309 7.6878 16.1442 7.68962C15.3795 7.69166 14.6149 7.69482 13.8502 7.69814C13.5067 7.69846 13.5067 7.69846 13.1562 7.69879C12.8457 7.70047 12.8457 7.70047 12.5289 7.70219C12.348 7.70271 12.167 7.70323 11.9805 7.70378C11.5715 7.68547 11.5715 7.68547 11.366 7.93582C11.3454 8.35885 11.3391 8.78258 11.3387 9.2061C11.3384 9.46386 11.3381 9.72162 11.3379 9.9872C11.3383 10.1221 11.3387 10.257 11.3392 10.396C11.3403 10.8083 11.3392 11.2205 11.3379 11.6328C11.3382 12.0194 11.3382 12.0194 11.3387 12.4139C11.339 12.7715 11.339 12.7715 11.3394 13.1364C11.3036 13.6679 11.3036 13.6679 11.5716 13.8895C12.0561 13.9156 12.5342 13.9282 13.019 13.9312C13.1704 13.9326 13.3219 13.934 13.4779 13.9354C13.982 13.9389 14.486 13.9402 14.9901 13.9408C15.2489 13.9415 15.2489 13.9415 15.5129 13.9422C18.5887 13.9454 21.6335 13.7689 24.6959 13.4927C28.7511 13.129 28.7511 13.129 30.2835 13.2736C30.4192 13.4091 30.5549 13.5446 30.6947 13.6842C30.6789 15.0372 30.0585 16.0011 29.371 17.1357C29.2675 17.3119 29.164 17.488 29.0573 17.6694C28.2949 18.9543 28.2949 18.9543 27.816 19.4325C26.1987 19.6082 24.5126 19.3636 22.901 19.208C22.5312 19.1738 22.5312 19.1738 22.154 19.1389C21.1094 19.0424 20.0651 18.9435 19.0207 18.8446C18.2537 18.7723 17.4866 18.7014 16.7194 18.6306C16.4874 18.6081 16.2554 18.5857 16.0163 18.5625C14.5391 18.4264 13.0552 18.317 11.5716 18.406C11.2892 18.6413 11.2892 18.6413 11.3426 19.2754C11.3427 19.5697 11.3438 19.864 11.3459 20.1583C11.3463 20.3902 11.3463 20.3902 11.3468 20.6269C11.3479 21.1227 11.3505 21.6184 11.3531 22.1142C11.3541 22.4496 11.3551 22.7849 11.3559 23.1203C11.3582 23.944 11.3617 24.7677 11.366 25.5914C19.1035 25.7519 26.7373 25.3395 34.1321 22.7963C35.0407 22.499 35.729 22.4924 36.6578 22.7173C36.993 23.3866 36.897 24.1245 36.898 24.8601C36.8987 25.0317 36.8994 25.2033 36.9001 25.3801C36.9011 25.7432 36.9016 26.1063 36.9016 26.4694C36.902 27.0263 36.9058 27.5831 36.9096 28.14C36.9103 28.4924 36.9107 28.8447 36.9109 29.197C36.9123 29.3642 36.9138 29.5315 36.9153 29.7038C36.9105 30.8822 36.9105 30.8822 36.4522 31.3398C35.8408 31.392 35.8408 31.392 35.0394 31.3933C34.8924 31.3941 34.7454 31.3949 34.5939 31.3957C34.0989 31.3978 33.6039 31.397 33.1088 31.3962C32.7549 31.3971 32.401 31.3981 32.0471 31.3994C31.084 31.4021 30.1209 31.4022 29.1578 31.4017C28.3549 31.4015 27.5521 31.4025 26.7493 31.4035C24.856 31.4058 22.9628 31.4058 21.0696 31.4046C19.1136 31.4034 17.1576 31.4059 15.2017 31.4103C13.5247 31.4139 11.8478 31.4151 10.1708 31.4144C9.16816 31.4141 8.16554 31.4146 7.16291 31.4175C6.22046 31.42 5.27807 31.4197 4.33562 31.417C3.98896 31.4165 3.64229 31.4171 3.29563 31.4187C2.82391 31.4209 2.35235 31.4192 1.88063 31.4166C1.61619 31.4167 1.35174 31.4167 1.07928 31.4167C0.877502 31.3913 0.675728 31.366 0.46784 31.3398C-0.00685152 30.6289 0.00496346 30.3619 0.00436781 29.5239C0.00320816 29.2734 0.0020485 29.023 0.000853709 28.765C0.00165333 28.487 0.00249563 28.2091 0.00337633 27.9311C0.00281915 27.6388 0.00208696 27.3464 0.00119257 27.054C-0.000684549 26.2596 4.56481e-05 25.4651 0.00134847 24.6707C0.0023884 23.8399 0.0014244 23.0092 0.000778407 22.1784C2.98518e-05 20.7833 0.00101721 19.3881 0.00297472 17.9929C0.00521289 16.379 0.00448795 14.7652 0.00222361 13.1513C0.000358428 11.7666 9.35049e-05 10.3819 0.00117026 8.99722C0.00181199 8.16979 0.00189528 7.34236 0.000538381 6.51493C-0.000648038 5.7371 0.000171689 4.95929 0.00255114 4.18146C0.00309575 3.89569 0.00293734 3.60992 0.00203187 3.32414C0.000911435 2.93467 0.00256432 2.54519 0.00436781 2.15572C0.00452286 1.93757 0.00467791 1.71942 0.00483766 1.49465C0.0565898 0.955688 0.0565898 0.955688 0.46784 0.339794Z" fill="#0038A8"/>
<path d="M68.4245 0.165025C68.735 0.167049 69.0454 0.168402 69.3559 0.169116C70.004 0.172242 70.6517 0.180651 71.2997 0.193394C72.1311 0.209713 72.9622 0.21706 73.7938 0.221031C74.5872 0.225119 75.3806 0.233282 76.174 0.242012C76.3256 0.243406 76.4771 0.2448 76.6333 0.246237C77.0605 0.250979 77.4876 0.258579 77.9149 0.267173C78.158 0.271215 78.4011 0.275257 78.6516 0.279421C79.2222 0.339849 79.2222 0.339849 79.6335 0.750445C79.7492 1.30218 79.7492 1.30218 79.6335 1.98223C79.3197 2.378 78.9732 2.70304 78.6006 3.04401C78.2157 3.39937 77.8786 3.76566 77.5387 4.16352C76.8903 4.91418 76.2216 5.64368 75.5467 6.37048C74.3397 7.67122 73.1419 8.97973 71.9716 10.3136C71.8239 10.4817 71.6763 10.6497 71.5242 10.8229C71.393 10.9735 71.2617 11.124 71.1266 11.2792C70.7252 11.701 70.5154 11.8268 69.9336 11.8689C69.7492 11.8725 69.5647 11.8761 69.3747 11.8798C69.1673 11.8852 68.9599 11.8906 68.7462 11.8961C68.4101 11.9047 68.4101 11.9047 68.0671 11.9135C63.6055 12.0659 59.1837 12.5161 55.2099 14.6826C54.7529 14.916 54.7529 14.916 54.3416 14.916C54.3416 15.1193 54.3416 15.3225 54.3416 15.5319C54.4792 15.5271 54.6168 15.5224 54.7585 15.5175C60.9592 15.4011 66.7318 17.1815 71.2671 21.4727C72.0008 22.2357 72.5966 23.0776 73.2085 23.9387C74.6115 25.8412 76.1639 27.5715 77.9858 29.0827C78.4992 29.5251 78.7892 29.7806 78.9106 30.4601C78.811 30.9293 78.811 30.9293 78.3997 31.3398C77.8962 31.4127 77.8962 31.4127 77.2539 31.4418C77.0134 31.4531 76.7729 31.4643 76.5251 31.4759C75.5603 31.5084 74.5954 31.5366 73.6302 31.5544C72.8997 31.5679 72.1709 31.5881 71.4412 31.6257C66.3579 31.8816 66.3579 31.8816 64.761 30.5907C64.0375 29.882 63.4353 29.1126 62.8666 28.2766C62.426 27.6497 61.9147 27.1193 61.3843 26.5667C61.207 26.3727 61.0296 26.1787 60.8469 25.9788C60.2614 25.3388 59.673 24.7013 59.0838 24.0646C58.9809 23.9534 58.878 23.8421 58.7719 23.7275C58.5637 23.5025 58.3554 23.2775 58.1472 23.0524C57.8426 22.7231 57.5383 22.3935 57.234 22.0637C57.0324 21.8453 56.8308 21.6269 56.6292 21.4086C56.5298 21.3009 56.4305 21.1932 56.3281 21.0823C55.7535 20.4606 55.1762 19.8416 54.5962 19.2249C54.4662 19.0864 54.3362 18.948 54.2022 18.8053C53.9496 18.5367 53.6966 18.2684 53.4433 18.0004C51.9241 16.3841 51.9241 16.3841 51.7705 15.6578C51.9192 14.8881 52.3794 14.4649 52.9151 13.928C53.1254 13.7087 53.3356 13.4892 53.5456 13.2696C53.648 13.1641 53.7503 13.0586 53.8558 12.9499C54.2017 12.5892 54.5301 12.2156 54.8557 11.8365C55.7321 10.8278 56.6421 9.84966 57.5474 8.86683C59.0839 7.19712 59.0839 7.19712 60.5875 5.49796C61.3292 4.64507 62.0984 3.81818 62.8697 2.99198C62.969 2.8853 63.0683 2.77861 63.1706 2.6687C63.2692 2.56636 63.3678 2.46402 63.4693 2.35858C63.8106 1.99078 63.8106 1.99078 64.0648 1.56207C65.1675 -0.0532342 66.6493 0.120707 68.4245 0.165025Z" fill="#0038A8"/>
<path d="M40.359 0.339832C40.796 0.263005 40.796 0.263005 41.3429 0.263397C41.5474 0.262118 41.7519 0.260839 41.9625 0.259521C42.184 0.261412 42.4055 0.263303 42.6337 0.265251C42.8603 0.265149 43.087 0.265046 43.3205 0.264941C43.8003 0.265422 44.2802 0.267423 44.76 0.270815C45.4965 0.275656 46.2329 0.275036 46.9695 0.273671C47.4348 0.274816 47.9001 0.276276 48.3655 0.278082C48.587 0.277895 48.8084 0.277708 49.0366 0.277515C49.2411 0.279472 49.4456 0.281429 49.6563 0.283445C49.8367 0.284391 50.0172 0.285337 50.2032 0.286311C50.6402 0.339832 50.6402 0.339832 51.0515 0.750428C51.1032 1.27112 51.1032 1.27112 51.1037 1.94275C51.1048 2.19665 51.106 2.45055 51.1072 2.71214C51.1064 2.99504 51.1055 3.27794 51.1047 3.56085C51.1052 3.85756 51.106 4.15428 51.1068 4.451C51.1087 5.25818 51.108 6.06534 51.1067 6.87252C51.1057 7.71596 51.1066 8.5594 51.1073 9.40284C51.108 10.8194 51.107 12.236 51.1051 13.6526C51.1028 15.292 51.1036 16.9314 51.1058 18.5708C51.1077 19.9766 51.1079 21.3824 51.1069 22.7882C51.1062 23.6286 51.1061 24.469 51.1075 25.3094C51.1087 26.0993 51.1079 26.8893 51.1055 27.6792C51.1049 27.9697 51.1051 28.2602 51.106 28.5507C51.1071 28.9461 51.1055 29.3415 51.1037 29.7369C51.1035 29.9586 51.1034 30.1802 51.1032 30.4085C51.0515 30.9292 51.0515 30.9292 50.6402 31.3398C50.2032 31.3934 50.2032 31.3934 49.6563 31.3962C49.3495 31.3992 49.3495 31.3992 49.0366 31.4021C48.8151 31.402 48.5937 31.4018 48.3655 31.4016C48.1388 31.4025 47.9122 31.4033 47.6787 31.4042C47.1988 31.4054 46.719 31.4055 46.2391 31.4046C45.5026 31.404 44.7662 31.4088 44.0297 31.414C43.5643 31.4145 43.099 31.4146 42.6337 31.4144C42.4122 31.4163 42.1907 31.4182 41.9625 31.4201C41.7581 31.4189 41.5536 31.4176 41.3429 31.4163C41.1624 31.4164 40.9819 31.4165 40.796 31.4167C40.6517 31.3913 40.5075 31.366 40.359 31.3398C39.8843 30.6289 39.8961 30.362 39.8955 29.5239C39.8943 29.2735 39.8932 29.023 39.892 28.765C39.8928 28.4871 39.8936 28.2091 39.8945 27.9312C39.8939 27.6388 39.8932 27.3464 39.8923 27.0541C39.8904 26.2596 39.8912 25.4652 39.8925 24.6707C39.8935 23.84 39.8925 23.0092 39.8919 22.1785C39.8911 20.7833 39.8921 19.3881 39.8941 17.993C39.8963 16.3791 39.8956 14.7652 39.8933 13.1514C39.8915 11.7667 39.8912 10.382 39.8923 8.99726C39.8929 8.16982 39.893 7.3424 39.8917 6.51497C39.8905 5.73714 39.8913 4.95933 39.8937 4.1815C39.8942 3.89573 39.8941 3.60995 39.8931 3.32418C39.892 2.93471 39.8937 2.54523 39.8955 2.15576C39.8956 1.93761 39.8958 1.71946 39.896 1.49469C39.9477 0.955726 39.9477 0.955726 40.359 0.339832Z" fill="#0038A8"/>
<path d="M197.251 0.339862C198.812 0.339862 200.372 0.339862 201.98 0.339862C201.912 0.678604 201.845 1.01735 201.775 1.36635C201.3 1.36635 200.825 1.36635 200.335 1.36635C200.335 2.72132 200.335 4.07629 200.335 5.47231C201.846 5.42038 201.846 5.42038 202.406 4.95195C202.507 4.81933 202.607 4.68671 202.711 4.55008C202.825 4.40532 202.938 4.26056 203.055 4.11141C203.223 3.88316 203.223 3.88316 203.394 3.65029C203.511 3.49971 203.627 3.34913 203.747 3.19399C204.208 2.5963 204.646 1.99376 205.065 1.36635C204.658 1.36635 204.25 1.36635 203.831 1.36635C203.763 1.02761 203.695 0.688869 203.625 0.339862C205.186 0.339862 206.747 0.339862 208.355 0.339862C208.287 0.678604 208.219 1.01735 208.149 1.36635C207.931 1.37906 207.712 1.39176 207.487 1.40485C206.551 1.60579 206.347 1.84333 205.784 2.59814C205.63 2.80059 205.475 3.00304 205.316 3.21163C205.165 3.41567 205.014 3.61971 204.859 3.82993C204.581 4.18552 204.303 4.54058 204.024 4.89491C203.822 5.15558 203.621 5.41638 203.42 5.67761C203.698 6.26371 204.013 6.78516 204.389 7.31358C204.496 7.46469 204.604 7.6158 204.714 7.77149C204.826 7.92736 204.937 8.08324 205.052 8.24384C205.163 8.39971 205.273 8.55558 205.387 8.71618C205.69 9.14139 205.992 9.56621 206.298 9.98887C206.401 10.1386 206.504 10.2883 206.611 10.4426C206.895 10.861 206.895 10.861 207.441 10.9352C207.637 10.9447 207.832 10.9542 208.033 10.964C208.326 10.9815 208.326 10.9815 208.624 10.9993C209.082 11.0126 209.541 11.0154 210 11.0154C210.027 10.9015 210.055 10.7876 210.083 10.6702C210.571 8.77258 211.23 6.93558 211.882 5.08948C212.084 4.51736 212.284 3.94472 212.484 3.37202C212.612 3.00871 212.739 2.64542 212.867 2.28217C212.927 2.11069 212.987 1.93921 213.049 1.76253C213.472 0.56884 213.472 0.56884 213.701 0.339862C214.013 0.325122 214.326 0.322634 214.639 0.327031C214.809 0.328884 214.979 0.330736 215.154 0.332645C215.285 0.335026 215.416 0.337408 215.552 0.339862C215.951 1.49694 216.35 2.65434 216.748 3.81204C216.883 4.20494 217.018 4.59776 217.154 4.99049C218.6 9.17892 218.6 9.17892 219.047 11.0154C219.454 11.0831 219.861 11.1509 220.281 11.2207C220.281 11.5594 220.281 11.8981 220.281 12.2471C218.856 12.2471 217.431 12.2471 215.963 12.2471C215.895 11.9084 215.827 11.5697 215.757 11.2207C216.3 11.1529 216.843 11.0852 217.402 11.0154C217.328 10.7978 217.254 10.5803 217.177 10.3562C217.081 10.0712 216.985 9.78625 216.888 9.50129C216.839 9.35785 216.79 9.21441 216.74 9.06663C216.374 7.9824 216.374 7.9824 216.374 7.52529C215.085 7.52529 213.796 7.52529 212.467 7.52529C212.327 8.04611 212.327 8.04611 212.184 8.57745C211.96 9.3997 211.722 10.211 211.439 11.0154C211.982 11.0831 212.525 11.1509 213.084 11.2207C213.016 11.5594 212.948 11.8981 212.878 12.2471C211.921 12.3137 210.964 12.3618 210.004 12.3938C209.679 12.4071 209.354 12.4252 209.029 12.4485C206.422 12.6305 206.422 12.6305 205.546 12.0022C204.828 11.2876 204.334 10.4507 203.831 9.57827C203.633 9.28275 203.434 8.98836 203.231 8.69613C202.993 8.3377 202.759 7.97863 202.532 7.61351C202.271 7.20625 202.271 7.20625 201.775 6.7041C201.3 6.63635 200.825 6.5686 200.335 6.4988C200.335 7.98927 200.335 9.47973 200.335 11.0154C200.742 11.0154 201.15 11.0154 201.569 11.0154C201.705 11.0831 201.841 11.1509 201.98 11.2207C201.912 11.5594 201.845 11.8981 201.775 12.2471C200.282 12.2471 198.789 12.2471 197.251 12.2471C197.251 11.9084 197.251 11.5697 197.251 11.2207C197.662 11.0154 197.662 11.0154 198.896 11.0154C198.896 7.83119 198.896 4.64701 198.896 1.36635C198.353 1.36635 197.81 1.36635 197.251 1.36635C197.251 1.02761 197.251 0.688869 197.251 0.339862ZM214.318 1.77695C214.077 2.49105 213.838 3.20537 213.598 3.91975C213.495 4.22561 213.495 4.22561 213.39 4.53765C213.325 4.7315 213.26 4.92535 213.193 5.12507C213.103 5.39439 213.103 5.39438 213.011 5.66914C212.868 6.04762 212.868 6.04762 212.878 6.2935C213.896 6.2935 214.914 6.2935 215.963 6.2935C215.801 5.73302 215.638 5.17277 215.474 4.61263C215.429 4.45477 215.383 4.29691 215.336 4.13427C215.101 3.33022 214.855 2.54814 214.523 1.77695C214.456 1.77695 214.388 1.77695 214.318 1.77695Z" fill="#0038A8"/>
<path d="M246.19 0.339844C247.411 0.339844 248.633 0.339844 249.891 0.339844C250.438 1.43147 250.923 2.46505 251.334 3.60296C251.387 3.74955 251.441 3.89614 251.496 4.04717C251.608 4.35354 251.719 4.66009 251.83 4.96682C252 5.43673 252.172 5.90582 252.344 6.37488C252.453 6.6741 252.562 6.97335 252.67 7.27266C252.747 7.48245 252.747 7.48245 252.826 7.69648C253.037 8.28531 253.181 8.74209 253.181 9.37296C253.317 9.37296 253.453 9.37296 253.592 9.37296C253.612 9.20739 253.632 9.04182 253.652 8.87124C253.833 7.96895 254.149 7.16551 254.493 6.31434C254.595 6.05721 254.595 6.05721 254.699 5.79489C254.916 5.25064 255.135 4.70708 255.353 4.16352C255.501 3.79333 255.649 3.4231 255.796 3.05282C256.157 2.14789 256.52 1.24392 256.882 0.339844C258.104 0.339844 259.325 0.339844 260.584 0.339844C260.584 0.678585 260.584 1.01733 260.584 1.36633C260.109 1.36633 259.634 1.36633 259.144 1.36633C259.144 4.55051 259.144 7.73468 259.144 11.0153C259.551 11.0153 259.959 11.0153 260.378 11.0153C260.584 11.2206 260.584 11.2206 260.584 12.2471C259.023 12.2471 257.462 12.2471 255.854 12.2471C255.854 11.9084 255.854 11.5696 255.854 11.2206C256.266 11.0153 256.266 11.0153 257.499 11.0153C257.499 8.16991 257.499 5.32448 257.499 2.39282C256.588 4.80923 256.588 4.80923 255.679 7.2261C255.563 7.53301 255.447 7.8399 255.331 8.14678C255.273 8.30134 255.215 8.4559 255.155 8.61514C254.741 9.70723 254.283 10.7741 253.798 11.8365C253.391 11.8365 252.984 11.8365 252.564 11.8365C251.479 8.8556 250.393 5.87468 249.274 2.80342C249.206 5.51335 249.139 8.22329 249.069 11.0153C249.612 11.0831 250.154 11.1508 250.714 11.2206C250.714 11.5594 250.714 11.8981 250.714 12.2471C249.221 12.2471 247.728 12.2471 246.19 12.2471C246.19 11.9084 246.19 11.5696 246.19 11.2206C246.601 11.0153 246.601 11.0153 247.835 11.0153C247.835 7.83117 247.835 4.647 247.835 1.36633C247.292 1.36633 246.749 1.36633 246.19 1.36633C246.19 1.02759 246.19 0.68885 246.19 0.339844Z" fill="#0038A8"/>
<path d="M109.578 19.5608C109.739 19.5862 109.9 19.6116 110.066 19.6378C110.134 19.5701 110.202 19.5023 110.272 19.4325C110.614 19.4242 110.957 19.4238 111.3 19.4325C111.249 19.6442 111.198 19.856 111.146 20.0741C111.082 21.0642 111.351 21.3104 111.917 22.1014C112.264 23.2406 112.401 24.2759 112.392 25.4632C112.391 25.6913 112.391 25.6913 112.39 25.9241C112.354 27.6463 112.018 29.1658 110.889 30.5186C109.527 31.6563 108.15 31.8076 106.429 31.6863C105.759 31.6234 105.108 31.5409 104.446 31.4208C104.265 31.3941 104.084 31.3673 103.897 31.3398C103.795 31.4414 103.795 31.4414 103.692 31.5451C103.349 31.5535 103.006 31.5539 102.664 31.5451C102.714 31.3419 102.765 31.1386 102.818 30.9292C102.945 30.0847 102.674 29.5755 102.254 28.8546C101.705 27.8245 101.789 26.6898 101.777 25.553C101.771 25.3665 101.765 25.1801 101.759 24.988C101.744 23.3789 102.165 22.102 103.126 20.8055C104.991 18.9861 107.162 19.145 109.578 19.5608ZM104.244 21.7293C103.093 23.2034 103.133 25.0301 103.28 26.8233C103.437 27.5291 103.641 28.2006 103.897 28.8762C104.033 28.8762 104.169 28.8762 104.309 28.8762C104.618 28.4246 104.902 27.973 105.182 27.5033C106.065 26.0556 106.988 24.6386 107.933 23.2305C108.062 23.038 108.191 22.8454 108.324 22.647C108.63 22.1911 108.937 21.7355 109.244 21.2802C108.549 20.5542 108.126 20.4833 107.123 20.4077C105.915 20.4895 105.072 20.8508 104.244 21.7293ZM109.86 21.8961C109.784 22.0168 109.708 22.1375 109.629 22.2618C108.089 24.6911 106.538 27.1103 104.925 29.4921C105.088 29.9027 105.088 29.9027 105.337 30.3133C106.387 30.663 107.59 30.7182 108.655 30.3783C109.662 29.8525 110.247 29.1257 110.618 28.0623C111.131 26.1101 111.121 23.9573 110.272 22.1014C110.136 22.0337 110 21.9659 109.86 21.8961Z" fill="#0038A8"/>
<path d="M137.62 19.6378C138.853 19.4567 140.103 19.2918 141.321 19.6378C142.171 20.3837 142.619 21.2292 143.124 22.2296C143.494 22.9415 143.916 23.6186 144.336 24.3021C144.647 24.8099 144.953 25.3205 145.257 25.8329C145.86 26.8495 146.469 27.8628 147.078 28.8762C147.146 26.1663 147.214 23.4564 147.284 20.6643C146.741 20.6643 146.198 20.6643 145.639 20.6643C145.537 20.1562 145.537 20.1562 145.433 19.6378C146.858 19.6378 148.283 19.6378 149.752 19.6378C149.752 19.9766 149.752 20.3153 149.752 20.6643C149.344 20.6643 148.937 20.6643 148.518 20.6643C148.518 24.1872 148.518 27.7101 148.518 31.3398C146.873 31.3398 146.873 31.3398 146.407 30.936C146.287 30.7496 146.168 30.5632 146.045 30.3711C145.909 30.1644 145.773 29.9577 145.633 29.7447C145.5 29.5259 145.366 29.307 145.228 29.0815C145.097 28.8733 144.967 28.665 144.832 28.4504C144.438 27.8097 144.054 27.1638 143.673 26.5153C143.416 26.081 143.158 25.6469 142.901 25.2129C142.79 25.0241 142.678 24.8353 142.564 24.6408C141.96 23.6475 141.329 22.6711 140.704 21.6908C140.636 24.5362 140.568 27.3817 140.498 30.3133C141.109 30.3133 141.72 30.3133 142.349 30.3133C142.417 30.6521 142.485 30.9908 142.555 31.3398C140.926 31.3398 139.298 31.3398 137.62 31.3398C137.62 31.0688 137.62 30.7978 137.62 30.5186C138.031 30.3133 138.031 30.3133 139.265 30.3133C139.265 27.1291 139.265 23.945 139.265 20.6643C138.79 20.6643 138.315 20.6643 137.825 20.6643C137.757 20.3256 137.69 19.9868 137.62 19.6378Z" fill="#0038A8"/>
<path d="M188.82 19.6378C190.053 19.4705 191.302 19.3167 192.522 19.6378C193.302 20.3027 193.683 21.1063 194.118 22.0135C194.635 23.0287 195.262 23.9826 195.863 24.9499C196.104 25.3469 196.345 25.7441 196.586 26.1416C197.141 27.0593 197.71 27.9666 198.279 28.8762C198.279 26.1663 198.279 23.4564 198.279 20.6643C197.804 20.6643 197.329 20.6643 196.84 20.6643C196.738 20.1562 196.738 20.1562 196.634 19.6378C198.059 19.6378 199.484 19.6378 200.952 19.6378C200.952 19.9766 200.952 20.3153 200.952 20.6643C200.477 20.6643 200.002 20.6643 199.513 20.6643C199.513 24.1872 199.513 27.7101 199.513 31.3398C197.868 31.3398 197.868 31.3398 197.51 31.073C197.438 30.9461 197.365 30.8193 197.29 30.6886C197.202 30.542 197.114 30.3953 197.023 30.2442C196.933 30.0807 196.843 29.9172 196.75 29.7487C196.601 29.4962 196.601 29.4962 196.448 29.2385C196.224 28.8584 196.002 28.4768 195.782 28.0942C195.282 27.2363 194.765 26.3901 194.246 25.5438C193.461 24.2623 192.684 22.9764 191.905 21.6908C191.837 24.5362 191.769 27.3817 191.699 30.3133C192.31 30.3133 192.92 30.3133 193.55 30.3133C193.618 30.6521 193.685 30.9908 193.755 31.3398C192.127 31.3398 190.498 31.3398 188.82 31.3398C188.888 31.0011 188.956 30.6623 189.026 30.3133C189.501 30.3133 189.976 30.3133 190.465 30.3133C190.465 27.1291 190.465 23.945 190.465 20.6643C189.99 20.6643 189.515 20.6643 189.026 20.6643C188.958 20.3256 188.89 19.9868 188.82 19.6378Z" fill="#0038A8"/>
<path d="M112.534 0.339844C114.094 0.339844 115.655 0.339844 117.263 0.339844C117.263 0.678585 117.263 1.01733 117.263 1.36633C116.72 1.36633 116.177 1.36633 115.618 1.36633C115.618 2.7213 115.618 4.07627 115.618 5.47229C117.586 5.47229 119.554 5.47229 121.581 5.47229C121.581 4.11733 121.581 2.76236 121.581 1.36633C121.106 1.36633 120.631 1.36633 120.142 1.36633C120.04 0.858221 120.04 0.858221 119.936 0.339844C121.497 0.339844 123.058 0.339844 124.666 0.339844C124.666 0.678585 124.666 1.01733 124.666 1.36633C124.123 1.36633 123.58 1.36633 123.021 1.36633C123.021 4.55051 123.021 7.73468 123.021 11.0153C123.563 11.0831 124.106 11.1508 124.666 11.2206C124.666 11.5594 124.666 11.8981 124.666 12.2471C123.173 12.2471 121.68 12.2471 120.142 12.2471C120.074 11.9084 120.006 11.5696 119.936 11.2206C120.479 11.1529 121.022 11.0851 121.581 11.0153C121.581 9.52488 121.581 8.03441 121.581 6.49878C119.613 6.49878 117.646 6.49878 115.618 6.49878C115.618 7.98925 115.618 9.47971 115.618 11.0153C116.025 11.0153 116.432 11.0153 116.852 11.0153C116.988 11.0831 117.123 11.1508 117.263 11.2206C117.263 11.5594 117.263 11.8981 117.263 12.2471C115.77 12.2471 114.277 12.2471 112.739 12.2471C112.671 11.9084 112.604 11.5696 112.534 11.2206C113.077 11.1529 113.619 11.0851 114.179 11.0153C114.179 7.83117 114.179 4.647 114.179 1.36633C113.704 1.36633 113.229 1.36633 112.739 1.36633C112.671 1.02759 112.604 0.68885 112.534 0.339844Z" fill="#0038A8"/>
<path d="M151.602 19.6378C153.163 19.6378 154.723 19.6378 156.331 19.6378C156.264 19.9766 156.196 20.3153 156.126 20.6643C155.651 20.6643 155.176 20.6643 154.686 20.6643C154.686 21.9515 154.686 23.2387 154.686 24.565C156.654 24.565 158.622 24.565 160.65 24.565C160.65 23.2778 160.65 21.9905 160.65 20.6643C160.175 20.6643 159.7 20.6643 159.21 20.6643C159.108 20.1562 159.108 20.1562 159.005 19.6378C160.565 19.6378 162.126 19.6378 163.734 19.6378C163.666 19.9766 163.598 20.3153 163.528 20.6643C163.053 20.6643 162.578 20.6643 162.089 20.6643C162.089 23.8485 162.089 27.0327 162.089 30.3133C162.564 30.3133 163.039 30.3133 163.528 30.3133C163.63 30.8214 163.63 30.8214 163.734 31.3398C162.173 31.3398 160.613 31.3398 159.005 31.3398C159.072 31.0011 159.14 30.6623 159.21 30.3133C159.685 30.3133 160.16 30.3133 160.65 30.3133C160.65 28.8229 160.65 27.3324 160.65 25.7968C158.682 25.7968 156.714 25.7968 154.686 25.7968C154.686 27.2872 154.686 28.7777 154.686 30.3133C155.161 30.3133 155.636 30.3133 156.126 30.3133C156.194 30.6521 156.262 30.9908 156.331 31.3398C154.771 31.3398 153.21 31.3398 151.602 31.3398C151.67 31.0011 151.738 30.6623 151.808 30.3133C152.283 30.3133 152.758 30.3133 153.247 30.3133C153.247 27.1291 153.247 23.945 153.247 20.6643C152.772 20.6643 152.297 20.6643 151.808 20.6643C151.74 20.3256 151.672 19.9868 151.602 19.6378Z" fill="#0038A8"/>
<path d="M114.59 19.6379C115.592 19.6226 116.594 19.6115 117.597 19.6041C117.938 19.601 118.278 19.5968 118.619 19.5914C119.11 19.5839 119.601 19.5805 120.092 19.5777C120.319 19.573 120.319 19.573 120.55 19.5681C121.529 19.5678 122.188 19.7396 123.02 20.2538C123.626 20.9204 123.826 21.4678 123.894 22.3709C123.838 23.2035 123.673 23.6593 123.226 24.3597C122.776 24.7447 122.776 24.7447 122.404 24.9756C122.594 25.0815 122.785 25.1874 122.982 25.2964C123.741 25.8052 123.987 26.3583 124.254 27.2339C124.374 28.3542 124.178 29.1209 123.637 30.1081C123.136 30.5828 123.136 30.5828 122.609 30.9293C122.497 31.0034 122.384 31.0774 122.268 31.1537C121.565 31.4256 120.875 31.3903 120.132 31.38C119.894 31.3791 119.894 31.3791 119.652 31.3782C119.147 31.3759 118.642 31.3708 118.137 31.3655C117.794 31.3635 117.451 31.3616 117.108 31.3599C116.269 31.3554 115.429 31.3483 114.59 31.3399C114.658 31.0011 114.726 30.6624 114.795 30.3134C115.27 30.3134 115.745 30.3134 116.235 30.3134C116.235 27.1292 116.235 23.945 116.235 20.6644C115.692 20.6644 115.149 20.6644 114.59 20.6644C114.59 20.3256 114.59 19.9869 114.59 19.6379ZM117.674 20.6644C117.674 21.9516 117.674 23.2388 117.674 24.565C118.162 24.5777 118.65 24.5905 119.152 24.6035C119.304 24.6091 119.455 24.6148 119.612 24.6205C120.522 24.6319 121.062 24.4958 121.787 23.9492C122.279 23.4579 122.264 23.3139 122.275 22.6404C122.261 21.9559 122.239 21.7475 121.825 21.1776C120.973 20.5939 120.17 20.6396 119.178 20.6516C118.682 20.6558 118.185 20.66 117.674 20.6644ZM117.674 25.7968C117.674 27.2873 117.674 28.7778 117.674 30.3134C118.158 30.3261 118.641 30.3388 119.139 30.3519C119.289 30.3575 119.439 30.3631 119.593 30.3689C120.725 30.3831 121.524 30.1028 122.378 29.3639C122.743 28.5946 122.773 27.8614 122.609 27.0286C122.161 26.4629 121.813 26.1179 121.17 25.7968C120.576 25.7821 119.989 25.7778 119.396 25.784C118.544 25.7904 118.544 25.7904 117.674 25.7968Z" fill="#0038A8"/>
<path d="M150.574 0.339865C151.602 0.319468 152.63 0.304616 153.658 0.294756C154.007 0.290642 154.356 0.285051 154.705 0.277915C155.209 0.267881 155.713 0.263279 156.217 0.25967C156.449 0.253313 156.449 0.253313 156.685 0.246827C157.823 0.24635 158.478 0.511775 159.416 1.16106C160.162 2.1697 160.179 3.23751 160.033 4.44583C159.715 5.31857 159.385 5.80302 158.594 6.29351C158.76 6.42345 158.926 6.55339 159.097 6.68726C159.837 7.42586 159.782 8.23573 159.789 9.23184C159.794 9.40346 159.799 9.57508 159.804 9.7519C159.817 10.1729 159.823 10.5942 159.827 11.0154C160.438 11.117 160.438 11.117 161.061 11.2207C161.061 11.5594 161.061 11.8981 161.061 12.2471C160.775 12.2752 160.487 12.2949 160.2 12.3113C160.04 12.3232 159.88 12.3351 159.716 12.3474C158.935 12.1924 158.654 11.8493 158.182 11.2207C158.091 10.629 158.047 10.1415 158.054 9.55261C158.092 8.49202 158.092 8.49202 157.702 7.53973C156.916 7.03526 156.064 7.05057 155.162 6.99922C154.666 6.96958 154.17 6.93994 153.659 6.9094C153.659 8.26437 153.659 9.61934 153.659 11.0154C154.201 11.0831 154.744 11.1509 155.304 11.2207C155.236 11.5594 155.168 11.8981 155.098 12.2471C153.605 12.2471 152.112 12.2471 150.574 12.2471C150.574 11.9084 150.574 11.5697 150.574 11.2207C151.117 11.1529 151.66 11.0852 152.219 11.0154C152.219 7.83119 152.219 4.64702 152.219 1.36636C151.676 1.36636 151.134 1.36636 150.574 1.36636C150.574 1.02761 150.574 0.688872 150.574 0.339865ZM153.659 1.36636C153.659 2.85682 153.659 4.34728 153.659 5.88291C155.897 5.98865 155.897 5.98866 157.977 5.26702C158.525 4.57491 158.64 4.04717 158.581 3.18837C158.379 2.35739 158.252 2.06149 157.565 1.57165C156.782 1.29055 155.97 1.34353 155.149 1.35352C154.657 1.35776 154.165 1.36199 153.659 1.36636Z" fill="#0038A8"/>
<path d="M100.607 0.339865C101.635 0.319468 102.663 0.304616 103.691 0.294756C104.04 0.290642 104.389 0.285051 104.739 0.277915C105.242 0.267881 105.746 0.263279 106.25 0.25967C106.482 0.253313 106.482 0.253313 106.718 0.246827C107.857 0.24635 108.511 0.511775 109.449 1.16106C110.195 2.1697 110.212 3.23751 110.066 4.44583C109.748 5.31857 109.418 5.80302 108.627 6.29351C108.793 6.46129 108.959 6.62907 109.13 6.80194C109.779 7.57909 109.814 8.26096 109.822 9.24467C109.827 9.39578 109.832 9.54689 109.838 9.70258C109.85 10.0716 109.856 10.4409 109.861 10.8101C110.268 10.9456 110.675 11.0811 111.094 11.2207C111.094 11.5594 111.094 11.8981 111.094 12.2471C110.808 12.2752 110.521 12.2949 110.233 12.3113C110.073 12.3232 109.914 12.3351 109.749 12.3474C108.968 12.1924 108.687 11.8493 108.216 11.2207C108.124 10.629 108.081 10.1415 108.087 9.55261C108.125 8.49202 108.125 8.49202 107.735 7.53973C106.95 7.03526 106.097 7.05057 105.195 6.99922C104.699 6.96958 104.203 6.93994 103.692 6.9094C103.692 8.26437 103.692 9.61934 103.692 11.0154C104.235 11.0831 104.777 11.1509 105.337 11.2207C105.269 11.5594 105.201 11.8981 105.131 12.2471C103.638 12.2471 102.145 12.2471 100.607 12.2471C100.607 11.9084 100.607 11.5697 100.607 11.2207C101.15 11.1529 101.693 11.0852 102.252 11.0154C102.252 7.83119 102.252 4.64702 102.252 1.36636C101.71 1.36636 101.167 1.36636 100.607 1.36636C100.607 1.02761 100.607 0.688872 100.607 0.339865ZM103.692 1.36636C103.692 2.85682 103.692 4.34728 103.692 5.88291C105.93 5.98865 105.93 5.98866 108.01 5.26702C108.558 4.57491 108.673 4.04717 108.614 3.18837C108.413 2.35739 108.286 2.06149 107.599 1.57165C106.815 1.29055 106.003 1.34353 105.183 1.35352C104.691 1.35776 104.199 1.36199 103.692 1.36636Z" fill="#0038A8"/>
<path d="M88.8867 19.6378C90.4474 19.6378 92.0081 19.6378 93.6161 19.6378C93.6161 19.9766 93.6161 20.3153 93.6161 20.6643C93.0732 20.6643 92.5304 20.6643 91.9711 20.6643C91.9711 22.0193 91.9711 23.3742 91.9711 24.7703C93.4613 24.7078 93.4613 24.7078 93.9974 24.313C94.0783 24.2088 94.1592 24.1046 94.2426 23.9972C94.3356 23.8821 94.4287 23.767 94.5245 23.6483C94.6149 23.5274 94.7053 23.4065 94.7984 23.2819C94.892 23.1641 94.9856 23.0463 95.082 22.925C95.3512 22.5849 95.6146 22.2408 95.878 21.8961C96.1515 21.5534 96.4254 21.211 96.7005 20.8696C96.2933 20.7341 95.8862 20.5986 95.4667 20.459C95.4667 20.188 95.4667 19.917 95.4667 19.6378C96.9596 19.6378 98.4524 19.6378 99.9905 19.6378C99.9905 19.9766 99.9905 20.3153 99.9905 20.6643C99.7911 20.6558 99.5918 20.6474 99.3864 20.6386C98.1312 20.818 97.4438 21.9967 96.7005 22.9226C96.5409 23.1182 96.3813 23.3137 96.2169 23.5152C95.8257 23.999 95.4387 24.4855 95.0555 24.9756C95.917 26.3149 96.8486 27.5955 97.8092 28.8651C98.5511 29.8582 98.5511 29.8582 98.5511 30.3133C99.0939 30.3133 99.6368 30.3133 100.196 30.3133C100.298 30.8214 100.298 30.8214 100.402 31.3398C97.9454 31.6498 97.9454 31.6498 97.0378 30.9837C96.6066 30.4394 96.2442 29.8768 95.878 29.2868C95.6973 29.0337 95.5143 28.7823 95.3294 28.5322C93.8687 26.5535 93.8687 26.5535 93.6161 25.7968C93.0732 25.7968 92.5304 25.7968 91.9711 25.7968C91.9711 27.2872 91.9711 28.7777 91.9711 30.3133C92.4461 30.3133 92.9211 30.3133 93.4105 30.3133C93.4783 30.6521 93.5462 30.9908 93.6161 31.3398C92.0554 31.3398 90.4947 31.3398 88.8867 31.3398C88.8867 31.0688 88.8867 30.7978 88.8867 30.5186C89.298 30.3133 89.298 30.3133 90.5317 30.3133C90.5317 27.1291 90.5317 23.945 90.5317 20.6643C90.0567 20.6643 89.5817 20.6643 89.0923 20.6643C89.0245 20.3256 88.9566 19.9868 88.8867 19.6378Z" fill="#0038A8"/>
<path d="M221.515 0.339799C222.509 0.324476 223.504 0.31335 224.499 0.305967C224.837 0.302886 225.175 0.298695 225.513 0.293336C226.001 0.285792 226.489 0.282355 226.977 0.279653C227.125 0.276474 227.274 0.273295 227.428 0.27002C228.679 0.269616 229.795 0.5258 230.81 1.30294C232.259 2.98844 232.525 4.63452 232.472 6.82593C232.335 8.43823 231.888 9.974 230.659 11.0979C228.871 12.4973 226.752 12.2986 224.599 12.2727C224.299 12.2707 224 12.2688 223.7 12.2671C222.972 12.2626 222.243 12.2556 221.515 12.2471C221.515 11.9083 221.515 11.5696 221.515 11.2206C221.926 11.0153 221.926 11.0153 223.16 11.0153C223.16 7.83112 223.16 4.64695 223.16 1.36629C222.617 1.36629 222.074 1.36629 221.515 1.36629C221.515 1.02755 221.515 0.688805 221.515 0.339799ZM224.599 1.36629C224.599 4.55046 224.599 7.73463 224.599 11.0153C227.803 11.2754 227.803 11.2754 229.328 10.3994C230.612 9.08868 230.842 7.87322 230.845 6.1138C230.85 5.95687 230.855 5.79994 230.86 5.63825C230.866 4.46218 230.598 3.58199 229.945 2.59808C228.322 1.01941 226.98 1.36629 224.599 1.36629Z" fill="#0038A8"/>
<path d="M88.8867 0.339844C91.8724 0.339844 94.8581 0.339844 97.9342 0.339844C97.9342 1.42382 97.9342 2.50779 97.9342 3.62461C97.5949 3.62461 97.2557 3.62461 96.9061 3.62461C96.8043 3.52299 96.8043 3.52299 96.7005 3.41931C96.7005 2.74183 96.7005 2.06435 96.7005 1.36633C95.1398 1.36633 93.5791 1.36633 91.9711 1.36633C91.9711 2.7213 91.9711 4.07627 91.9711 5.47229C92.4796 5.44649 92.4796 5.44649 92.9984 5.42017C93.4399 5.39899 93.8814 5.37788 94.3229 5.35681C94.5468 5.3453 94.7706 5.33379 95.0013 5.32193C95.214 5.31201 95.4267 5.30208 95.6458 5.29186C95.8429 5.28218 96.04 5.2725 96.243 5.26253C96.7005 5.267 96.7005 5.267 96.9061 5.47229C96.9318 5.98554 96.9318 5.98554 96.9061 6.49878C96.7005 6.70408 96.7005 6.70408 96.243 6.70854C96.0459 6.69887 95.8489 6.68919 95.6458 6.67922C95.4331 6.6693 95.2204 6.65937 95.0013 6.64915C94.7774 6.63764 94.5536 6.62612 94.3229 6.61426C94.0983 6.60355 93.8736 6.59283 93.6422 6.58178C93.0851 6.55507 92.5281 6.52705 91.9711 6.49878C91.9711 7.98925 91.9711 9.47971 91.9711 11.0153C93.5996 11.0153 95.2282 11.0153 96.9061 11.0153C97.0079 9.99911 97.0079 9.99911 97.1117 8.96236C97.5189 8.96236 97.926 8.96236 98.3455 8.96236C98.3455 10.0463 98.3455 11.1303 98.3455 12.2471C95.2919 12.2471 92.2384 12.2471 89.0923 12.2471C89.0245 11.9084 88.9566 11.5696 88.8867 11.2206C89.4296 11.1529 89.9724 11.0851 90.5317 11.0153C90.5317 7.83117 90.5317 4.647 90.5317 1.36633C90.0567 1.36633 89.5817 1.36633 89.0923 1.36633C89.0245 1.02759 88.9566 0.68885 88.8867 0.339844Z" fill="#0038A8"/>
<path d="M234.469 0.339844C237.455 0.339844 240.441 0.339844 243.517 0.339844C243.517 1.42382 243.517 2.50779 243.517 3.62461C243.177 3.62461 242.838 3.62461 242.489 3.62461C242.387 3.52299 242.387 3.52299 242.283 3.41931C242.283 2.74183 242.283 2.06435 242.283 1.36633C240.722 1.36633 239.162 1.36633 237.554 1.36633C237.554 2.7213 237.554 4.07627 237.554 5.47229C238.062 5.44649 238.062 5.44649 238.581 5.42017C239.022 5.39899 239.464 5.37788 239.905 5.35681C240.129 5.3453 240.353 5.33379 240.584 5.32193C240.796 5.31201 241.009 5.30208 241.228 5.29186C241.425 5.28218 241.622 5.2725 241.826 5.26253C242.283 5.267 242.283 5.267 242.489 5.47229C242.514 5.98554 242.514 5.98554 242.489 6.49878C242.283 6.70408 242.283 6.70408 241.826 6.70854C241.628 6.69887 241.431 6.68919 241.228 6.67922C241.016 6.6693 240.803 6.65937 240.584 6.64915C240.36 6.63764 240.136 6.62612 239.905 6.61426C239.681 6.60355 239.456 6.59283 239.225 6.58178C238.668 6.55507 238.111 6.52705 237.554 6.49878C237.554 7.98925 237.554 9.47971 237.554 11.0153C239.182 11.0153 240.811 11.0153 242.489 11.0153C242.59 9.99911 242.59 9.99911 242.694 8.96236C243.101 8.96236 243.509 8.96236 243.928 8.96236C243.928 10.0463 243.928 11.1303 243.928 12.2471C240.874 12.2471 237.821 12.2471 234.675 12.2471C234.607 11.9084 234.539 11.5696 234.469 11.2206C235.012 11.1529 235.555 11.0851 236.114 11.0153C236.114 7.83117 236.114 4.647 236.114 1.36633C235.639 1.36633 235.164 1.36633 234.675 1.36633C234.607 1.02759 234.539 0.68885 234.469 0.339844Z" fill="#0038A8"/>
<path d="M138.854 0.339844C141.839 0.339844 144.825 0.339844 147.901 0.339844C147.901 1.42382 147.901 2.50779 147.901 3.62461C147.562 3.62461 147.222 3.62461 146.873 3.62461C146.667 3.21402 146.667 3.21402 146.667 1.36633C145.107 1.36633 143.546 1.36633 141.938 1.36633C141.938 2.7213 141.938 4.07627 141.938 5.47229C142.446 5.44649 142.446 5.44649 142.965 5.42017C143.407 5.39899 143.848 5.37788 144.29 5.35681C144.514 5.3453 144.737 5.33379 144.968 5.32193C145.181 5.31201 145.393 5.30208 145.613 5.29186C145.81 5.28218 146.007 5.2725 146.21 5.26253C146.667 5.267 146.667 5.267 146.873 5.47229C146.899 5.98554 146.899 5.98554 146.873 6.49878C146.667 6.70408 146.667 6.70408 146.21 6.70854C146.013 6.69887 145.816 6.68919 145.613 6.67922C145.4 6.6693 145.187 6.65937 144.968 6.64915C144.744 6.63764 144.52 6.62612 144.29 6.61426C144.065 6.60355 143.84 6.59283 143.609 6.58178C143.052 6.55507 142.495 6.52705 141.938 6.49878C141.938 7.98925 141.938 9.47971 141.938 11.0153C143.566 11.0153 145.195 11.0153 146.873 11.0153C146.975 9.99911 146.975 9.99911 147.079 8.96236C147.486 8.96236 147.893 8.96236 148.312 8.96236C148.312 10.0463 148.312 11.1303 148.312 12.2471C145.259 12.2471 142.205 12.2471 139.059 12.2471C138.991 11.9084 138.923 11.5696 138.854 11.2206C139.396 11.1529 139.939 11.0851 140.499 11.0153C140.499 7.83117 140.499 4.647 140.499 1.36633C140.024 1.36633 139.549 1.36633 139.059 1.36633C138.991 1.02759 138.923 0.68885 138.854 0.339844Z" fill="#0038A8"/>
<path d="M189.438 0.339896C189.882 0.27975 189.882 0.27975 190.389 0.301403C190.557 0.30696 190.725 0.312517 190.898 0.318243C191.027 0.325389 191.155 0.332534 191.288 0.339896C191.687 1.50087 192.086 2.66203 192.484 3.82335C192.619 4.21762 192.755 4.61184 192.89 5.00601C193.086 5.57567 193.282 6.1455 193.477 6.71536C193.537 6.88888 193.596 7.0624 193.658 7.24118C193.716 7.40954 193.773 7.57791 193.833 7.75137C193.889 7.91532 193.945 8.07926 194.003 8.24817C194.232 8.9581 194.423 9.67797 194.609 10.4002C194.766 10.889 194.766 10.889 195.439 11.1437C195.725 11.1818 195.725 11.1818 196.017 11.2207C196.017 11.5594 196.017 11.8982 196.017 12.2472C194.525 12.2472 193.032 12.2472 191.494 12.2472C191.494 11.9084 191.494 11.5697 191.494 11.2207C192.037 11.1529 192.579 11.0852 193.139 11.0154C193.027 10.6891 193.027 10.6891 192.914 10.3562C192.817 10.0712 192.721 9.78629 192.625 9.50132C192.576 9.35788 192.527 9.21445 192.476 9.06666C192.111 7.98243 192.111 7.98244 192.111 7.52533C190.821 7.52533 189.532 7.52533 188.204 7.52533C188.064 8.04614 188.064 8.04614 187.921 8.57748C187.697 9.39973 187.459 10.211 187.176 11.0154C187.888 11.117 187.888 11.117 188.615 11.2207C188.731 11.6185 188.731 11.6185 188.821 12.0419C188.615 12.2472 188.615 12.2472 188.214 12.2705C187.957 12.2689 187.957 12.2689 187.695 12.2672C187.51 12.2666 187.326 12.2659 187.135 12.2652C186.843 12.2626 186.843 12.2626 186.546 12.26C186.351 12.2591 186.155 12.2582 185.954 12.2572C185.47 12.2548 184.986 12.2514 184.502 12.2472C184.435 11.9084 184.367 11.5697 184.297 11.2207C185.009 11.1191 185.009 11.1191 185.736 11.0154C185.765 10.8988 185.794 10.7822 185.824 10.6621C186.297 8.83988 186.907 7.06681 187.519 5.2875C187.704 4.74966 187.887 4.21125 188.07 3.67278C188.188 3.32951 188.305 2.98628 188.423 2.64308C188.477 2.4827 188.532 2.32232 188.588 2.15708C188.819 1.48787 189.042 0.932197 189.438 0.339896ZM190.054 1.77698C189.813 2.45239 189.574 3.12829 189.335 3.8043C189.266 3.99669 189.197 4.18909 189.127 4.38731C189.029 4.6632 189.029 4.6632 188.93 4.94467C188.87 5.11453 188.809 5.2844 188.747 5.45941C188.595 5.87435 188.595 5.87435 188.615 6.29354C189.633 6.29354 190.651 6.29354 191.699 6.29354C191.224 4.80307 190.749 3.31261 190.26 1.77698C190.192 1.77698 190.124 1.77698 190.054 1.77698Z" fill="#0038A8"/>
<path d="M126.105 19.6378C129.091 19.6378 132.076 19.6378 135.152 19.6378C135.152 20.654 135.152 21.6703 135.152 22.7173C134.813 22.785 134.474 22.8528 134.124 22.9226C134.023 22.821 134.023 22.821 133.919 22.7173C133.919 22.0398 133.919 21.3623 133.919 20.6643C132.358 20.6643 130.797 20.6643 129.189 20.6643C129.189 22.0193 129.189 23.3742 129.189 24.7703C129.393 24.7025 129.596 24.6348 129.806 24.565C130.123 24.546 130.441 24.5381 130.759 24.5377C130.941 24.5374 131.124 24.5372 131.312 24.5369C131.502 24.5377 131.692 24.5385 131.888 24.5393C132.08 24.5385 132.271 24.5377 132.469 24.5369C132.651 24.5372 132.833 24.5374 133.021 24.5377C133.272 24.5381 133.272 24.5381 133.528 24.5384C133.919 24.565 133.919 24.565 134.124 24.7703C134.133 25.1123 134.133 25.4547 134.124 25.7968C133.106 26.0811 132.12 25.9796 131.079 25.9122C130.455 25.8741 129.832 25.836 129.189 25.7968C129.189 27.2872 129.189 28.7777 129.189 30.3133C130.818 30.3133 132.446 30.3133 134.124 30.3133C134.124 29.8391 134.124 29.3648 134.124 28.8762C134.227 28.3758 134.227 28.3758 134.33 28.055C134.673 28.0463 135.015 28.0467 135.358 28.055C136.135 28.8308 135.564 30.2427 135.564 31.3398C132.442 31.3398 129.321 31.3398 126.105 31.3398C126.173 31.0011 126.241 30.6623 126.311 30.3133C126.786 30.3133 127.261 30.3133 127.75 30.3133C127.75 27.1291 127.75 23.945 127.75 20.6643C127.275 20.6643 126.8 20.6643 126.311 20.6643C126.243 20.3256 126.175 19.9868 126.105 19.6378Z" fill="#0038A8"/>
<path d="M169.697 19.6378C170.376 19.6378 171.054 19.6378 171.753 19.6378C172.087 20.6008 172.419 21.564 172.751 22.5273C172.864 22.8534 172.976 23.1795 173.089 23.5055C173.199 23.8222 173.308 24.139 173.417 24.4559C173.526 24.7727 173.636 25.0894 173.746 25.4059C174.017 26.1919 174.269 26.9771 174.488 27.7792C174.531 27.9305 174.573 28.0818 174.617 28.2377C174.696 28.523 174.771 28.8095 174.841 29.0972C174.952 29.5339 174.952 29.5339 175.249 30.108C175.872 30.4208 175.872 30.4208 176.483 30.5186C176.483 30.7896 176.483 31.0606 176.483 31.3398C174.99 31.3398 173.497 31.3398 171.959 31.3398C172.027 31.0011 172.095 30.6623 172.165 30.3133C172.64 30.3133 173.115 30.3133 173.604 30.3133C173.493 29.987 173.493 29.987 173.379 29.6541C173.283 29.3692 173.186 29.0842 173.09 28.7992C173.041 28.6558 172.992 28.5124 172.941 28.3646C172.576 27.2804 172.576 27.2804 172.576 26.8232C171.287 26.891 169.997 26.9587 168.669 27.0285C168.33 28.0448 167.991 29.061 167.641 30.108C168.116 30.2435 168.591 30.379 169.08 30.5186C169.08 30.7896 169.08 31.0606 169.08 31.3398C167.655 31.3398 166.23 31.3398 164.762 31.3398C164.762 31.0688 164.762 30.7978 164.762 30.5186C165.475 30.417 165.475 30.417 166.202 30.3133C166.229 30.1849 166.256 30.0565 166.285 29.9242C166.785 27.756 167.551 25.6834 168.296 23.5898C168.432 23.2054 168.568 22.821 168.704 22.4366C169.034 21.5033 169.365 20.5704 169.697 19.6378ZM170.52 21.0749C169.488 23.2594 169.488 23.2594 169.08 25.5915C170.098 25.5915 171.116 25.5915 172.165 25.5915C171.69 24.101 171.215 22.6105 170.725 21.0749C170.657 21.0749 170.59 21.0749 170.52 21.0749Z" fill="#0038A8"/>
<path d="M181.418 0.545102C181.418 0.409606 181.418 0.274109 181.418 0.134506C181.825 0.134506 182.232 0.134506 182.652 0.134506C182.652 1.35398 182.652 2.57345 182.652 3.82987C182.312 3.89762 181.973 3.96537 181.624 4.03517C181.52 3.73604 181.417 3.43658 181.315 3.13699C181.258 2.97027 181.201 2.80354 181.142 2.63176C181.007 2.18749 181.007 2.18749 181.007 1.77689C179.876 1.36847 178.891 1.22821 177.717 1.57159C177.152 2.01416 176.939 2.29045 176.835 3.00226C176.844 3.47938 176.901 3.8057 177.1 4.24047C177.678 4.62902 178.1 4.83229 178.745 5.06166C182.189 6.31665 182.189 6.31665 182.934 7.60222C183.242 8.89095 183.09 9.85884 182.446 11.0153C181.324 12.1351 180.364 12.4673 178.809 12.5294C177.483 12.5128 176.465 12.1421 175.249 11.6312C175.249 10.5472 175.249 9.46325 175.249 8.34643C175.588 8.34643 175.928 8.34643 176.277 8.34643C176.483 8.55172 176.483 8.55172 176.503 9.06577C176.501 9.27299 176.498 9.4802 176.496 9.69369C176.494 9.90144 176.492 10.1092 176.49 10.3232C176.488 10.4839 176.485 10.6445 176.483 10.81C177.245 10.9834 177.964 11.0547 178.745 11.0666C178.953 11.0719 179.16 11.0772 179.375 11.0827C180.071 11.005 180.446 10.8117 181.007 10.3994C181.371 9.78749 181.422 9.44403 181.379 8.73136C181.201 8.10289 181.083 7.93304 180.595 7.52523C180.224 7.34609 180.224 7.34609 179.814 7.2245C179.589 7.14968 179.589 7.14968 179.359 7.07334C179.046 6.97333 178.733 6.87336 178.421 6.77341C177.246 6.38315 176.213 5.96846 175.48 4.92052C175.095 3.78622 175.025 2.71036 175.558 1.61009C176.818 -0.261935 179.515 -0.336029 181.418 0.545102Z" fill="#0038A8"/>
<path d="M126.105 0.339844C127.53 0.339844 128.955 0.339844 130.423 0.339844C130.491 0.610837 130.559 0.88183 130.629 1.16104C130.423 1.36633 130.423 1.36633 130.043 1.38638C129.621 1.3797 129.2 1.37302 128.778 1.36633C129.184 2.56158 129.59 3.75655 129.997 4.95128C130.135 5.35806 130.273 5.76491 130.411 6.17184C130.609 6.7555 130.808 7.33889 131.007 7.92224C131.069 8.10529 131.131 8.28835 131.195 8.47695C131.252 8.64546 131.31 8.81396 131.369 8.98757C131.42 9.13665 131.471 9.28572 131.523 9.43931C131.631 9.78513 131.631 9.78513 131.862 9.98885C133.389 5.82233 133.389 5.82233 134.947 1.57163C134.472 1.50388 133.997 1.43614 133.507 1.36633C133.406 0.858221 133.406 0.858221 133.302 0.339844C134.659 0.339844 136.016 0.339844 137.414 0.339844C137.414 0.678585 137.414 1.01733 137.414 1.36633C137.075 1.36633 136.736 1.36633 136.386 1.36633C136.354 1.56673 136.354 1.56673 136.322 1.77117C136.137 2.58405 135.855 3.34621 135.567 4.12743C135.475 4.37769 135.475 4.37769 135.382 4.633C135.252 4.98567 135.122 5.33819 134.992 5.69057C134.795 6.22344 134.6 6.75703 134.405 7.2907C133.781 8.98983 133.157 10.6609 132.274 12.2471C131.799 12.2471 131.324 12.2471 130.834 12.2471C130.002 10.0667 129.209 7.87522 128.453 5.66717C128.286 5.1801 128.118 4.69346 127.95 4.20682C127.843 3.89569 127.736 3.58454 127.629 3.27336C127.579 3.12861 127.529 2.98386 127.478 2.83473C127.133 1.82404 127.133 1.82404 127.133 1.36633C126.794 1.36633 126.455 1.36633 126.105 1.36633C126.105 1.02759 126.105 0.68885 126.105 0.339844Z" fill="#0038A8"/>
<path d="M162.089 0.339844C163.514 0.339844 164.939 0.339844 166.407 0.339844C166.475 0.543089 166.543 0.746334 166.613 0.955738C166.545 1.09123 166.477 1.22673 166.407 1.36633C165.865 1.36633 165.322 1.36633 164.762 1.36633C165.168 2.56158 165.574 3.75655 165.981 4.95128C166.12 5.35806 166.258 5.76491 166.396 6.17184C166.594 6.7555 166.793 7.33889 166.991 7.92224C167.053 8.10529 167.115 8.28835 167.179 8.47695C167.237 8.64546 167.294 8.81396 167.354 8.98757C167.404 9.13665 167.455 9.28572 167.507 9.43931C167.615 9.78513 167.615 9.78513 167.847 9.98885C169.374 5.82233 169.374 5.82233 170.931 1.57163C170.456 1.50388 169.981 1.43614 169.492 1.36633C169.39 0.858221 169.39 0.858221 169.286 0.339844C170.643 0.339844 172 0.339844 173.399 0.339844C173.331 0.678585 173.263 1.01733 173.193 1.36633C172.922 1.36633 172.65 1.36633 172.371 1.36633C172.339 1.56673 172.339 1.56673 172.306 1.77117C172.122 2.58405 171.84 3.34621 171.551 4.12743C171.46 4.37769 171.46 4.37769 171.366 4.633C171.236 4.98567 171.106 5.33819 170.976 5.69057C170.779 6.22344 170.584 6.75703 170.39 7.2907C169.766 8.98983 169.142 10.6609 168.258 12.2471C167.783 12.2471 167.308 12.2471 166.819 12.2471C166.266 10.8999 165.756 9.5449 165.286 8.16683C165.223 7.98388 165.161 7.80093 165.096 7.61243C164.965 7.23025 164.835 6.84797 164.704 6.4656C164.504 5.87838 164.302 5.29159 164.101 4.70483C163.973 4.33195 163.846 3.95905 163.718 3.58612C163.658 3.41056 163.598 3.235 163.535 3.05413C163.48 2.89227 163.425 2.7304 163.369 2.56364C163.32 2.42121 163.271 2.27878 163.221 2.13204C163.117 1.77693 163.117 1.77693 163.117 1.36633C162.778 1.36633 162.439 1.36633 162.089 1.36633C162.089 1.02759 162.089 0.68885 162.089 0.339844Z" fill="#0038A8"/>
<path d="M175.866 19.6378C177.359 19.6378 178.852 19.6378 180.39 19.6378C180.39 19.9766 180.39 20.3153 180.39 20.6643C179.847 20.6643 179.304 20.6643 178.745 20.6643C179.695 23.442 180.645 26.2197 181.624 29.0815C182.041 28.6648 182.149 28.4478 182.346 27.9082C182.404 27.752 182.461 27.5959 182.52 27.435C182.581 27.2664 182.642 27.0979 182.705 26.9243C182.768 26.7517 182.831 26.5791 182.897 26.4013C183.099 25.8495 183.299 25.2971 183.5 24.7446C183.637 24.3706 183.774 23.9966 183.91 23.6227C184.246 22.7054 184.58 21.7877 184.914 20.8696C184.439 20.8019 183.964 20.7341 183.474 20.6643C183.373 20.1562 183.373 20.1562 183.269 19.6378C184.626 19.6378 185.983 19.6378 187.381 19.6378C187.313 19.9766 187.245 20.3153 187.176 20.6643C186.904 20.6643 186.633 20.6643 186.353 20.6643C186.316 20.8331 186.316 20.8331 186.277 21.0054C185.744 23.1652 184.871 25.2087 184.053 27.2723C183.897 27.6675 183.741 28.0627 183.586 28.458C183.207 29.4191 182.827 30.3796 182.446 31.3398C181.903 31.3398 181.361 31.3398 180.801 31.3398C180.214 30.0766 179.715 28.8034 179.269 27.4849C179.206 27.3016 179.143 27.1184 179.079 26.9296C178.948 26.5462 178.817 26.1627 178.687 25.7791C178.487 25.1899 178.285 24.6014 178.083 24.0128C177.956 23.639 177.828 23.2652 177.701 22.8913C177.64 22.7151 177.58 22.5389 177.518 22.3574C177.463 22.1948 177.408 22.0323 177.351 21.8649C177.303 21.7218 177.254 21.5788 177.204 21.4314C177.1 21.0749 177.1 21.0749 177.1 20.6643C176.761 20.6643 176.421 20.6643 176.072 20.6643C176.004 20.3256 175.936 19.9868 175.866 19.6378Z" fill="#0038A8"/>
<path d="M262.64 0.339844C264.2 0.339844 265.761 0.339844 267.369 0.339844C267.301 0.678585 267.233 1.01733 267.163 1.36633C266.688 1.36633 266.213 1.36633 265.724 1.36633C265.724 4.55051 265.724 7.73468 265.724 11.0153C266.267 11.0831 266.81 11.1508 267.369 11.2206C267.301 11.5594 267.233 11.8981 267.163 12.2471C265.671 12.2471 264.178 12.2471 262.64 12.2471C262.64 11.9084 262.64 11.5696 262.64 11.2206C263.051 11.0153 263.051 11.0153 264.285 11.0153C264.285 7.83117 264.285 4.647 264.285 1.36633C263.742 1.36633 263.199 1.36633 262.64 1.36633C262.64 1.02759 262.64 0.68885 262.64 0.339844Z" fill="#0038A8"/>
</svg>
