<svg width="268" height="33" viewBox="0 0 268 33" fill="none" xmlns="http://www.w3.org/2000/svg">
<path d="M0.46784 1.09883C1.07928 1.0219 1.07928 1.0219 1.88063 1.022C2.02764 1.02118 2.17464 1.02037 2.3261 1.01953C2.82119 1.01754 3.31617 1.01998 3.81125 1.02239C4.16517 1.02189 4.51908 1.02113 4.873 1.02012C5.83611 1.01818 6.79918 1.02013 7.76229 1.02286C8.76844 1.02518 9.77459 1.02434 10.7807 1.02394C12.4707 1.02375 14.1605 1.02603 15.8505 1.02981C17.8064 1.03416 19.7624 1.03488 21.7184 1.03359C23.5971 1.03243 25.4759 1.03358 27.3546 1.03589C28.1554 1.03684 28.9563 1.03702 29.7571 1.03659C30.6996 1.0362 31.642 1.03786 32.5844 1.04112C32.9311 1.04199 33.2778 1.04216 33.6244 1.04159C34.0961 1.04094 34.5677 1.04279 35.0394 1.04531C35.3039 1.04573 35.5683 1.04615 35.8408 1.04658C36.4522 1.09883 36.4522 1.09883 36.8635 1.50942C36.9454 2.38346 36.9311 3.26051 36.9284 4.13795C36.9277 4.57373 36.9325 5.00922 36.9378 5.44497C36.9382 5.72177 36.9384 5.99858 36.9382 6.27538C36.9388 6.52757 36.9394 6.77976 36.94 7.03959C36.8635 7.66836 36.8635 7.66836 36.6133 8.01058C36.1304 8.37098 35.8372 8.36248 35.237 8.36473C35.0289 8.36701 34.8207 8.36929 34.6062 8.37164C34.2639 8.37071 34.2639 8.37071 33.9147 8.36976C33.6743 8.37153 33.4339 8.37329 33.1862 8.37511C32.3894 8.38027 31.5927 8.38115 30.7959 8.38209C30.2441 8.38503 29.6922 8.38823 29.1404 8.39179C27.8349 8.3997 26.5295 8.40467 25.224 8.40844C22.884 8.4153 20.5441 8.42713 18.2042 8.44006C17.5176 8.44375 16.8309 8.44684 16.1442 8.44865C15.3795 8.45069 14.6149 8.45385 13.8502 8.45718C13.5067 8.4575 13.5067 8.4575 13.1562 8.45783C12.8457 8.45951 12.8457 8.45951 12.5289 8.46122C12.348 8.46174 12.167 8.46227 11.9805 8.46281C11.5715 8.4445 11.5715 8.4445 11.366 8.69485C11.3454 9.11788 11.3391 9.54161 11.3387 9.96513C11.3384 10.2229 11.3381 10.4807 11.3379 10.7462C11.3383 10.8811 11.3387 11.016 11.3392 11.155C11.3403 11.5673 11.3392 11.9795 11.3379 12.3918C11.3382 12.7785 11.3382 12.7785 11.3387 13.1729C11.339 13.5306 11.339 13.5306 11.3394 13.8955C11.3036 14.4269 11.3036 14.4269 11.5716 14.6485C12.0561 14.6746 12.5342 14.6872 13.019 14.6902C13.1704 14.6916 13.3219 14.693 13.4779 14.6944C13.982 14.698 14.486 14.6992 14.9901 14.6998C15.2489 14.7005 15.2489 14.7005 15.5129 14.7013C18.5887 14.7045 21.6335 14.528 24.6959 14.2517C28.7511 13.888 28.7511 13.888 30.2835 14.0326C30.4192 14.1681 30.5549 14.3036 30.6947 14.4432C30.6789 15.7963 30.0585 16.7601 29.371 17.8948C29.2675 18.0709 29.164 18.247 29.0573 18.4285C28.2949 19.7134 28.2949 19.7134 27.816 20.1915C26.1987 20.3673 24.5126 20.1227 22.901 19.967C22.5312 19.9328 22.5312 19.9328 22.154 19.898C21.1094 19.8014 20.0651 19.7025 19.0207 19.6036C18.2537 19.5313 17.4866 19.4604 16.7194 19.3896C16.4874 19.3671 16.2554 19.3447 16.0163 19.3216C14.5391 19.1855 13.0552 19.076 11.5716 19.1651C11.2892 19.4003 11.2892 19.4003 11.3426 20.0344C11.3427 20.3287 11.3438 20.623 11.3459 20.9173C11.3463 21.1493 11.3463 21.1493 11.3468 21.3859C11.3479 21.8817 11.3505 22.3775 11.3531 22.8732C11.3541 23.2086 11.3551 23.5439 11.3559 23.8793C11.3582 24.703 11.3617 25.5268 11.366 26.3505C19.1035 26.5109 26.7373 26.0985 34.1321 23.5554C35.0407 23.258 35.729 23.2515 36.6578 23.4763C36.993 24.1457 36.897 24.8835 36.898 25.6191C36.8987 25.7907 36.8994 25.9623 36.9001 26.1391C36.9011 26.5022 36.9016 26.8653 36.9016 27.2284C36.902 27.7853 36.9058 28.3422 36.9096 28.8991C36.9103 29.2514 36.9107 29.6037 36.9109 29.956C36.9123 30.1233 36.9138 30.2905 36.9153 30.4628C36.9105 31.6413 36.9105 31.6413 36.4522 32.0988C35.8408 32.1511 35.8408 32.1511 35.0394 32.1523C34.8924 32.1531 34.7454 32.1539 34.5939 32.1547C34.0989 32.1569 33.6039 32.156 33.1088 32.1552C32.7549 32.1561 32.401 32.1572 32.0471 32.1584C31.084 32.1611 30.1209 32.1613 29.1578 32.1607C28.3549 32.1605 27.5521 32.1615 26.7493 32.1625C24.856 32.1648 22.9628 32.1649 21.0696 32.1636C19.1136 32.1624 17.1576 32.1649 15.2017 32.1693C13.5247 32.1729 11.8478 32.1741 10.1708 32.1735C9.16816 32.1731 8.16554 32.1737 7.16291 32.1765C6.22046 32.1791 5.27807 32.1787 4.33562 32.176C3.98896 32.1755 3.64229 32.1761 3.29563 32.1778C2.82391 32.1799 2.35235 32.1783 1.88063 32.1757C1.61619 32.1757 1.35174 32.1757 1.07928 32.1758C0.877502 32.1504 0.675728 32.125 0.46784 32.0988C-0.00685152 31.3879 0.00496346 31.121 0.00436781 30.2829C0.00320816 30.0325 0.0020485 29.782 0.000853709 29.524C0.00165333 29.2461 0.00249563 28.9681 0.00337633 28.6902C0.00281915 28.3978 0.00208696 28.1054 0.00119257 27.813C-0.000684549 27.0186 4.56481e-05 26.2242 0.00134847 25.4297C0.0023884 24.599 0.0014244 23.7682 0.000778407 22.9375C2.98518e-05 21.5423 0.00101721 20.1471 0.00297472 18.7519C0.00521289 17.1381 0.00448795 15.5242 0.00222361 13.9104C0.000358428 12.5257 9.35049e-05 11.141 0.00117026 9.75625C0.00181199 8.92882 0.00189528 8.1014 0.000538381 7.27397C-0.000648038 6.49613 0.000171689 5.71833 0.00255114 4.9405C0.00309575 4.65472 0.00293734 4.36895 0.00203187 4.08318C0.000911435 3.69371 0.00256432 3.30423 0.00436781 2.91476C0.00452286 2.6966 0.00467791 2.47845 0.00483766 2.25369C0.0565898 1.71472 0.0565898 1.71472 0.46784 1.09883Z" fill="#FB7139"/>
<path d="M68.4245 0.924058C68.735 0.926082 69.0454 0.927435 69.3559 0.928149C70.004 0.931276 70.6517 0.939685 71.2997 0.952427C72.1311 0.968746 72.9622 0.976093 73.7938 0.980064C74.5872 0.984152 75.3806 0.992315 76.174 1.00104C76.3256 1.00244 76.4771 1.00383 76.6333 1.00527C77.0605 1.01001 77.4876 1.01761 77.9149 1.02621C78.158 1.03025 78.4011 1.03429 78.6516 1.03845C79.2222 1.09888 79.2222 1.09888 79.6335 1.50948C79.7492 2.06122 79.7492 2.06122 79.6335 2.74127C79.3197 3.13703 78.9732 3.46207 78.6006 3.80304C78.2157 4.15841 77.8786 4.52469 77.5387 4.92256C76.8903 5.67322 76.2216 6.40271 75.5467 7.12951C74.3397 8.43025 73.1419 9.73876 71.9716 11.0727C71.8239 11.2407 71.6763 11.4088 71.5242 11.5819C71.393 11.7325 71.2617 11.8831 71.1266 12.0382C70.7252 12.4601 70.5154 12.5858 69.9336 12.6279C69.7492 12.6316 69.5647 12.6352 69.3747 12.6389C69.1673 12.6442 68.9599 12.6496 68.7462 12.6551C68.4101 12.6637 68.4101 12.6637 68.0671 12.6726C63.6055 12.825 59.1837 13.2751 55.2099 15.4417C54.7529 15.675 54.7529 15.675 54.3416 15.675C54.3416 15.8783 54.3416 16.0815 54.3416 16.2909C54.4792 16.2862 54.6168 16.2814 54.7585 16.2765C60.9592 16.1602 66.7318 17.9405 71.2671 22.2317C72.0008 22.9947 72.5966 23.8366 73.2085 24.6977C74.6115 26.6002 76.1639 28.3305 77.9858 29.8418C78.4992 30.2842 78.7892 30.5396 78.9106 31.2191C78.811 31.6883 78.811 31.6883 78.3997 32.0989C77.8962 32.1717 77.8962 32.1717 77.2539 32.2009C77.0134 32.2121 76.7729 32.2233 76.5251 32.2349C75.5603 32.2674 74.5954 32.2956 73.6302 32.3134C72.8997 32.327 72.1709 32.3471 71.4412 32.3847C66.3579 32.6406 66.3579 32.6406 64.761 31.3498C64.0375 30.641 63.4353 29.8717 62.8666 29.0357C62.426 28.4087 61.9147 27.8783 61.3843 27.3257C61.207 27.1317 61.0296 26.9377 60.8469 26.7379C60.2614 26.0978 59.673 25.4604 59.0838 24.8236C58.9809 24.7124 58.878 24.6011 58.7719 24.4865C58.5637 24.2615 58.3554 24.0365 58.1472 23.8115C57.8426 23.4821 57.5383 23.1525 57.234 22.8228C57.0324 22.6044 56.8308 22.386 56.6292 22.1676C56.5298 22.0599 56.4305 21.9522 56.3281 21.8413C55.7535 21.2196 55.1762 20.6006 54.5962 19.9839C54.4662 19.8455 54.3362 19.707 54.2022 19.5644C53.9496 19.2957 53.6966 19.0274 53.4433 18.7594C51.9241 17.1432 51.9241 17.1432 51.7705 16.4168C51.9192 15.6471 52.3794 15.224 52.9151 14.687C53.1254 14.4677 53.3356 14.2482 53.5456 14.0286C53.648 13.9232 53.7503 13.8177 53.8558 13.709C54.2017 13.3482 54.5301 12.9747 54.8557 12.5956C55.7321 11.5869 56.6421 10.6087 57.5474 9.62587C59.0839 7.95615 59.0839 7.95615 60.5875 6.25699C61.3292 5.4041 62.0984 4.57721 62.8697 3.75102C62.969 3.64433 63.0683 3.53765 63.1706 3.42773C63.2692 3.32539 63.3678 3.22306 63.4693 3.11762C63.8106 2.74982 63.8106 2.74982 64.0648 2.3211C65.1675 0.705799 66.6493 0.87974 68.4245 0.924058Z" fill="#FB7139"/>
<path d="M40.359 1.09887C40.796 1.02204 40.796 1.02204 41.3429 1.02243C41.5474 1.02115 41.7519 1.01987 41.9625 1.01855C42.184 1.02045 42.4055 1.02234 42.6337 1.02428C42.8603 1.02418 43.087 1.02408 43.3205 1.02397C43.8003 1.02446 44.2802 1.02646 44.76 1.02985C45.4965 1.03469 46.2329 1.03407 46.9695 1.0327C47.4348 1.03385 47.9001 1.03531 48.3655 1.03712C48.587 1.03693 48.8084 1.03674 49.0366 1.03655C49.2411 1.03851 49.4456 1.04046 49.6563 1.04248C49.8367 1.04342 50.0172 1.04437 50.2032 1.04534C50.6402 1.09887 50.6402 1.09887 51.0515 1.50946C51.1032 2.03015 51.1032 2.03015 51.1037 2.70178C51.1048 2.95568 51.106 3.20958 51.1072 3.47117C51.1064 3.75408 51.1055 4.03698 51.1047 4.31988C51.1052 4.6166 51.106 4.91332 51.1068 5.21003C51.1087 6.01721 51.108 6.82437 51.1067 7.63155C51.1057 8.47499 51.1066 9.31843 51.1073 10.1619C51.108 11.5785 51.107 12.9951 51.1051 14.4117C51.1028 16.0511 51.1036 17.6905 51.1058 19.3299C51.1077 20.7357 51.1079 22.1414 51.1069 23.5472C51.1062 24.3876 51.1061 25.228 51.1075 26.0684C51.1087 26.8584 51.1079 27.6483 51.1055 28.4383C51.1049 28.7288 51.1051 29.0193 51.106 29.3098C51.1071 29.7052 51.1055 30.1006 51.1037 30.496C51.1035 30.7176 51.1034 30.9392 51.1032 31.1676C51.0515 31.6883 51.0515 31.6883 50.6402 32.0989C50.2032 32.1524 50.2032 32.1524 49.6563 32.1553C49.3495 32.1582 49.3495 32.1582 49.0366 32.1612C48.8151 32.161 48.5937 32.1608 48.3655 32.1606C48.1388 32.1615 47.9122 32.1624 47.6787 32.1633C47.1988 32.1645 46.719 32.1646 46.2391 32.1637C45.5026 32.163 44.7662 32.1678 44.0297 32.173C43.5643 32.1735 43.099 32.1737 42.6337 32.1734C42.4122 32.1753 42.1907 32.1772 41.9625 32.1792C41.7581 32.1779 41.5536 32.1766 41.3429 32.1753C41.1624 32.1754 40.9819 32.1756 40.796 32.1757C40.6517 32.1503 40.5075 32.125 40.359 32.0989C39.8843 31.388 39.8961 31.121 39.8955 30.2829C39.8943 30.0325 39.8932 29.7821 39.892 29.5241C39.8928 29.2461 39.8936 28.9681 39.8945 28.6902C39.8939 28.3978 39.8932 28.1055 39.8923 27.8131C39.8904 27.0186 39.8912 26.2242 39.8925 25.4297C39.8935 24.599 39.8925 23.7683 39.8919 22.9375C39.8911 21.5423 39.8921 20.1472 39.8941 18.752C39.8963 17.1381 39.8956 15.5243 39.8933 13.9104C39.8915 12.5257 39.8912 11.141 39.8923 9.75629C39.8929 8.92886 39.893 8.10144 39.8917 7.274C39.8905 6.49617 39.8913 5.71837 39.8937 4.94054C39.8942 4.65476 39.8941 4.36899 39.8931 4.08322C39.892 3.69374 39.8937 3.30427 39.8955 2.9148C39.8956 2.69664 39.8958 2.47849 39.896 2.25372C39.9477 1.71476 39.9477 1.71476 40.359 1.09887Z" fill="#FB7139"/>
<path d="M197.251 1.0989C198.812 1.0989 200.372 1.0989 201.98 1.0989C201.912 1.43764 201.845 1.77638 201.775 2.12539C201.3 2.12539 200.825 2.12539 200.335 2.12539C200.335 3.48035 200.335 4.83532 200.335 6.23135C201.846 6.17941 201.846 6.17941 202.406 5.71098C202.507 5.57836 202.607 5.44575 202.711 5.30911C202.825 5.16435 202.938 5.01959 203.055 4.87044C203.223 4.64219 203.223 4.64219 203.394 4.40933C203.511 4.25874 203.627 4.10816 203.747 3.95302C204.208 3.35533 204.646 2.75279 205.065 2.12539C204.658 2.12539 204.25 2.12539 203.831 2.12539C203.763 1.78664 203.695 1.4479 203.625 1.0989C205.186 1.0989 206.747 1.0989 208.355 1.0989C208.287 1.43764 208.219 1.77638 208.149 2.12539C207.931 2.13809 207.712 2.15079 207.487 2.16388C206.551 2.36482 206.347 2.60236 205.784 3.35717C205.63 3.55962 205.475 3.76208 205.316 3.97066C205.165 4.1747 205.014 4.37874 204.859 4.58896C204.581 4.94455 204.303 5.29961 204.024 5.65395C203.822 5.91461 203.621 6.17542 203.42 6.43664C203.698 7.02274 204.013 7.54419 204.389 8.07261C204.496 8.22372 204.604 8.37483 204.714 8.53052C204.826 8.6864 204.937 8.84227 205.052 9.00287C205.163 9.15874 205.273 9.31462 205.387 9.47521C205.69 9.90042 205.992 10.3252 206.298 10.7479C206.401 10.8976 206.504 11.0473 206.611 11.2016C206.895 11.62 206.895 11.62 207.441 11.6942C207.637 11.7037 207.832 11.7133 208.033 11.7231C208.326 11.7405 208.326 11.7405 208.624 11.7584C209.082 11.7716 209.541 11.7744 210 11.7744C210.027 11.6605 210.055 11.5466 210.083 11.4293C210.571 9.53161 211.23 7.69461 211.882 5.84852C212.084 5.27639 212.284 4.70376 212.484 4.13105C212.612 3.76774 212.739 3.40446 212.867 3.04121C212.927 2.86973 212.987 2.69824 213.049 2.52157C213.472 1.32787 213.472 1.32787 213.701 1.0989C214.013 1.08416 214.326 1.08167 214.639 1.08606C214.809 1.08792 214.979 1.08977 215.154 1.09168C215.285 1.09406 215.416 1.09644 215.552 1.0989C215.951 2.25597 216.35 3.41337 216.748 4.57107C216.883 4.96398 217.018 5.3568 217.154 5.74953C218.6 9.93795 218.6 9.93795 219.047 11.7744C219.454 11.8421 219.861 11.9099 220.281 11.9797C220.281 12.3184 220.281 12.6572 220.281 13.0062C218.856 13.0062 217.431 13.0062 215.963 13.0062C215.895 12.6674 215.827 12.3287 215.757 11.9797C216.3 11.9119 216.843 11.8442 217.402 11.7744C217.328 11.5569 217.254 11.3393 217.177 11.1152C217.081 10.8302 216.985 10.5453 216.888 10.2603C216.839 10.1169 216.79 9.97345 216.74 9.82567C216.374 8.74144 216.374 8.74144 216.374 8.28433C215.085 8.28433 213.796 8.28433 212.467 8.28433C212.327 8.80514 212.327 8.80514 212.184 9.33648C211.96 10.1587 211.722 10.97 211.439 11.7744C211.982 11.8421 212.525 11.9099 213.084 11.9797C213.016 12.3184 212.948 12.6572 212.878 13.0062C211.921 13.0728 210.964 13.1208 210.004 13.1528C209.679 13.1661 209.354 13.1843 209.029 13.2075C206.422 13.3895 206.422 13.3895 205.546 12.7612C204.828 12.0466 204.334 11.2097 203.831 10.3373C203.633 10.0418 203.434 9.7474 203.231 9.45517C202.993 9.09674 202.759 8.73766 202.532 8.37254C202.271 7.96528 202.271 7.96528 201.775 7.46313C201.3 7.39539 200.825 7.32764 200.335 7.25784C200.335 8.7483 200.335 10.2388 200.335 11.7744C200.742 11.7744 201.15 11.7744 201.569 11.7744C201.705 11.8421 201.841 11.9099 201.98 11.9797C201.912 12.3184 201.845 12.6572 201.775 13.0062C200.282 13.0062 198.789 13.0062 197.251 13.0062C197.251 12.6674 197.251 12.3287 197.251 11.9797C197.662 11.7744 197.662 11.7744 198.896 11.7744C198.896 8.59022 198.896 5.40605 198.896 2.12539C198.353 2.12539 197.81 2.12539 197.251 2.12539C197.251 1.78664 197.251 1.4479 197.251 1.0989ZM214.318 2.53598C214.077 3.25008 213.838 3.96441 213.598 4.67878C213.495 4.98464 213.495 4.98464 213.39 5.29668C213.325 5.49053 213.26 5.68438 213.193 5.8841C213.103 6.15342 213.103 6.15342 213.011 6.42817C212.868 6.80665 212.868 6.80665 212.878 7.05254C213.896 7.05254 214.914 7.05254 215.963 7.05254C215.801 6.49206 215.638 5.93181 215.474 5.37166C215.429 5.2138 215.383 5.05594 215.336 4.8933C215.101 4.08925 214.855 3.30717 214.523 2.53598C214.456 2.53598 214.388 2.53598 214.318 2.53598Z" fill="#FB7139"/>
<path d="M246.19 1.09888C247.411 1.09888 248.633 1.09888 249.891 1.09888C250.438 2.1905 250.923 3.22409 251.334 4.36199C251.387 4.50858 251.441 4.65517 251.496 4.8062C251.608 5.11258 251.719 5.41913 251.83 5.72585C252 6.19576 252.172 6.66485 252.344 7.13392C252.453 7.43313 252.562 7.73239 252.67 8.03169C252.747 8.24148 252.747 8.24148 252.826 8.45551C253.037 9.04434 253.181 9.50112 253.181 10.132C253.317 10.132 253.453 10.132 253.592 10.132C253.612 9.96642 253.632 9.80086 253.652 9.63027C253.833 8.72798 254.149 7.92454 254.493 7.07337C254.595 6.81625 254.595 6.81625 254.699 6.55393C254.916 6.00967 255.135 5.46611 255.353 4.92255C255.501 4.55237 255.649 4.18213 255.796 3.81186C256.157 2.90692 256.52 2.00295 256.882 1.09888C258.104 1.09888 259.325 1.09888 260.584 1.09888C260.584 1.43762 260.584 1.77636 260.584 2.12537C260.109 2.12537 259.634 2.12537 259.144 2.12537C259.144 5.30954 259.144 8.49371 259.144 11.7744C259.551 11.7744 259.959 11.7744 260.378 11.7744C260.584 11.9797 260.584 11.9797 260.584 13.0062C259.023 13.0062 257.462 13.0062 255.854 13.0062C255.854 12.6674 255.854 12.3287 255.854 11.9797C256.266 11.7744 256.266 11.7744 257.499 11.7744C257.499 8.92894 257.499 6.08351 257.499 3.15186C256.588 5.56827 256.588 5.56827 255.679 7.98513C255.563 8.29204 255.447 8.59894 255.331 8.90581C255.273 9.06037 255.215 9.21493 255.155 9.37418C254.741 10.4663 254.283 11.5332 253.798 12.5956C253.391 12.5956 252.984 12.5956 252.564 12.5956C251.479 9.61464 250.393 6.63371 249.274 3.56245C249.206 6.27239 249.139 8.98232 249.069 11.7744C249.612 11.8421 250.154 11.9099 250.714 11.9797C250.714 12.3184 250.714 12.6572 250.714 13.0062C249.221 13.0062 247.728 13.0062 246.19 13.0062C246.19 12.6674 246.19 12.3287 246.19 11.9797C246.601 11.7744 246.601 11.7744 247.835 11.7744C247.835 8.5902 247.835 5.40603 247.835 2.12537C247.292 2.12537 246.749 2.12537 246.19 2.12537C246.19 1.78663 246.19 1.44788 246.19 1.09888Z" fill="#FB7139"/>
<path d="M109.578 20.3199C109.739 20.3453 109.9 20.3707 110.066 20.3969C110.134 20.3291 110.202 20.2614 110.272 20.1916C110.614 20.1832 110.957 20.1828 111.3 20.1916C111.249 20.4033 111.198 20.615 111.146 20.8331C111.082 21.8232 111.351 22.0694 111.917 22.8604C112.264 23.9996 112.401 25.0349 112.392 26.2222C112.391 26.4504 112.391 26.4504 112.39 26.6832C112.354 28.4053 112.018 29.9249 110.889 31.2777C109.527 32.4153 108.15 32.5666 106.429 32.4453C105.759 32.3824 105.108 32.3 104.446 32.1798C104.265 32.1531 104.084 32.1264 103.897 32.0988C103.795 32.2005 103.795 32.2005 103.692 32.3041C103.349 32.3125 103.006 32.3129 102.664 32.3041C102.714 32.1009 102.765 31.8977 102.818 31.6882C102.945 30.8437 102.674 30.3345 102.254 29.6136C101.705 28.5835 101.789 27.4489 101.777 26.312C101.771 26.1256 101.765 25.9391 101.759 25.747C101.744 24.1379 102.165 22.861 103.126 21.5645C104.991 19.7451 107.162 19.904 109.578 20.3199ZM104.244 22.4883C103.093 23.9624 103.133 25.7892 103.28 27.5823C103.437 28.2881 103.641 28.9597 103.897 29.6353C104.033 29.6353 104.169 29.6353 104.309 29.6353C104.618 29.1837 104.902 28.732 105.182 28.2623C106.065 26.8146 106.988 25.3976 107.933 23.9896C108.062 23.797 108.191 23.6044 108.324 23.406C108.63 22.9502 108.937 22.4946 109.244 22.0392C108.549 21.3132 108.126 21.2423 107.123 21.1667C105.915 21.2485 105.072 21.6098 104.244 22.4883ZM109.86 22.6551C109.784 22.7758 109.708 22.8965 109.629 23.0209C108.089 25.4502 106.538 27.8693 104.925 30.2512C105.088 30.6617 105.088 30.6617 105.337 31.0724C106.387 31.4221 107.59 31.4773 108.655 31.1373C109.662 30.6115 110.247 29.8847 110.618 28.8213C111.131 26.8692 111.121 24.7163 110.272 22.8604C110.136 22.7927 110 22.7249 109.86 22.6551Z" fill="#FB7139"/>
<path d="M137.62 20.3969C138.853 20.2158 140.103 20.0509 141.321 20.3969C142.171 21.1427 142.619 21.9882 143.124 22.9886C143.494 23.7005 143.916 24.3777 144.336 25.0612C144.647 25.5689 144.953 26.0795 145.257 26.5919C145.86 27.6085 146.469 28.6219 147.078 29.6353C147.146 26.9253 147.214 24.2154 147.284 21.4233C146.741 21.4233 146.198 21.4233 145.639 21.4233C145.537 20.9152 145.537 20.9152 145.433 20.3969C146.858 20.3969 148.283 20.3969 149.752 20.3969C149.752 20.7356 149.752 21.0743 149.752 21.4233C149.344 21.4233 148.937 21.4233 148.518 21.4233C148.518 24.9463 148.518 28.4692 148.518 32.0988C146.873 32.0988 146.873 32.0988 146.407 31.6951C146.287 31.5086 146.168 31.3222 146.045 31.1301C145.909 30.9234 145.773 30.7167 145.633 30.5038C145.5 30.2849 145.366 30.0661 145.228 29.8406C145.097 29.6323 144.967 29.424 144.832 29.2094C144.438 28.5687 144.054 27.9228 143.673 27.2743C143.416 26.84 143.158 26.4059 142.901 25.972C142.79 25.7832 142.678 25.5943 142.564 25.3998C141.96 24.4065 141.329 23.4301 140.704 22.4498C140.636 25.2953 140.568 28.1407 140.498 31.0724C141.109 31.0724 141.72 31.0724 142.349 31.0724C142.417 31.4111 142.485 31.7498 142.555 32.0988C140.926 32.0988 139.298 32.0988 137.62 32.0988C137.62 31.8279 137.62 31.5569 137.62 31.2777C138.031 31.0724 138.031 31.0724 139.265 31.0724C139.265 27.8882 139.265 24.704 139.265 21.4233C138.79 21.4233 138.315 21.4233 137.825 21.4233C137.757 21.0846 137.69 20.7459 137.62 20.3969Z" fill="#FB7139"/>
<path d="M188.82 20.3968C190.053 20.2295 191.302 20.0758 192.522 20.3968C193.302 21.0617 193.683 21.8653 194.118 22.7725C194.635 23.7877 195.262 24.7416 195.863 25.7089C196.104 26.1059 196.345 26.5031 196.586 26.9006C197.141 27.8183 197.71 28.7256 198.279 29.6353C198.279 26.9253 198.279 24.2154 198.279 21.4233C197.804 21.4233 197.329 21.4233 196.84 21.4233C196.738 20.9152 196.738 20.9152 196.634 20.3968C198.059 20.3968 199.484 20.3968 200.952 20.3968C200.952 20.7356 200.952 21.0743 200.952 21.4233C200.477 21.4233 200.002 21.4233 199.513 21.4233C199.513 24.9463 199.513 28.4692 199.513 32.0988C197.868 32.0988 197.868 32.0988 197.51 31.832C197.438 31.7052 197.365 31.5783 197.29 31.4477C197.202 31.301 197.114 31.1543 197.023 31.0032C196.933 30.8397 196.843 30.6762 196.75 30.5078C196.601 30.2552 196.601 30.2552 196.448 29.9975C196.224 29.6174 196.002 29.2359 195.782 28.8533C195.282 27.9953 194.765 27.1491 194.246 26.3028C193.461 25.0213 192.684 23.7354 191.905 22.4498C191.837 25.2953 191.769 28.1407 191.699 31.0723C192.31 31.0723 192.92 31.0723 193.55 31.0723C193.618 31.4111 193.685 31.7498 193.755 32.0988C192.127 32.0988 190.498 32.0988 188.82 32.0988C188.888 31.7601 188.956 31.4214 189.026 31.0723C189.501 31.0723 189.976 31.0723 190.465 31.0723C190.465 27.8882 190.465 24.704 190.465 21.4233C189.99 21.4233 189.515 21.4233 189.026 21.4233C188.958 21.0846 188.89 20.7459 188.82 20.3968Z" fill="#FB7139"/>
<path d="M112.534 1.09888C114.094 1.09888 115.655 1.09888 117.263 1.09888C117.263 1.43762 117.263 1.77636 117.263 2.12537C116.72 2.12537 116.177 2.12537 115.618 2.12537C115.618 3.48033 115.618 4.8353 115.618 6.23133C117.586 6.23133 119.554 6.23133 121.581 6.23133C121.581 4.87636 121.581 3.52139 121.581 2.12537C121.106 2.12537 120.631 2.12537 120.142 2.12537C120.04 1.61725 120.04 1.61725 119.936 1.09888C121.497 1.09888 123.058 1.09888 124.666 1.09888C124.666 1.43762 124.666 1.77636 124.666 2.12537C124.123 2.12537 123.58 2.12537 123.021 2.12537C123.021 5.30954 123.021 8.49371 123.021 11.7744C123.563 11.8421 124.106 11.9099 124.666 11.9797C124.666 12.3184 124.666 12.6572 124.666 13.0062C123.173 13.0062 121.68 13.0062 120.142 13.0062C120.074 12.6674 120.006 12.3287 119.936 11.9797C120.479 11.9119 121.022 11.8442 121.581 11.7744C121.581 10.2839 121.581 8.79345 121.581 7.25782C119.613 7.25782 117.646 7.25782 115.618 7.25782C115.618 8.74828 115.618 10.2387 115.618 11.7744C116.025 11.7744 116.432 11.7744 116.852 11.7744C116.988 11.8421 117.123 11.9099 117.263 11.9797C117.263 12.3184 117.263 12.6572 117.263 13.0062C115.77 13.0062 114.277 13.0062 112.739 13.0062C112.671 12.6674 112.604 12.3287 112.534 11.9797C113.077 11.9119 113.619 11.8442 114.179 11.7744C114.179 8.5902 114.179 5.40603 114.179 2.12537C113.704 2.12537 113.229 2.12537 112.739 2.12537C112.671 1.78663 112.604 1.44788 112.534 1.09888Z" fill="#FB7139"/>
<path d="M151.602 20.3969C153.163 20.3969 154.723 20.3969 156.331 20.3969C156.264 20.7356 156.196 21.0743 156.126 21.4233C155.651 21.4233 155.176 21.4233 154.686 21.4233C154.686 22.7106 154.686 23.9978 154.686 25.324C156.654 25.324 158.622 25.324 160.65 25.324C160.65 24.0368 160.65 22.7496 160.65 21.4233C160.175 21.4233 159.7 21.4233 159.21 21.4233C159.108 20.9152 159.108 20.9152 159.005 20.3969C160.565 20.3969 162.126 20.3969 163.734 20.3969C163.666 20.7356 163.598 21.0743 163.528 21.4233C163.053 21.4233 162.578 21.4233 162.089 21.4233C162.089 24.6075 162.089 27.7917 162.089 31.0723C162.564 31.0723 163.039 31.0723 163.528 31.0723C163.63 31.5805 163.63 31.5805 163.734 32.0988C162.173 32.0988 160.613 32.0988 159.005 32.0988C159.072 31.7601 159.14 31.4214 159.21 31.0723C159.685 31.0723 160.16 31.0723 160.65 31.0723C160.65 29.5819 160.65 28.0914 160.65 26.5558C158.682 26.5558 156.714 26.5558 154.686 26.5558C154.686 28.0463 154.686 29.5367 154.686 31.0723C155.161 31.0723 155.636 31.0723 156.126 31.0723C156.194 31.4111 156.262 31.7498 156.331 32.0988C154.771 32.0988 153.21 32.0988 151.602 32.0988C151.67 31.7601 151.738 31.4214 151.808 31.0723C152.283 31.0723 152.758 31.0723 153.247 31.0723C153.247 27.8882 153.247 24.704 153.247 21.4233C152.772 21.4233 152.297 21.4233 151.808 21.4233C151.74 21.0846 151.672 20.7459 151.602 20.3969Z" fill="#FB7139"/>
<path d="M114.59 20.3969C115.592 20.3816 116.594 20.3705 117.597 20.3631C117.938 20.36 118.278 20.3558 118.619 20.3505C119.11 20.343 119.601 20.3395 120.092 20.3368C120.319 20.332 120.319 20.332 120.55 20.3271C121.529 20.3268 122.188 20.4987 123.02 21.0128C123.626 21.6794 123.826 22.2269 123.894 23.13C123.838 23.9625 123.673 24.4183 123.226 25.1188C122.776 25.5037 122.776 25.5037 122.404 25.7347C122.594 25.8405 122.785 25.9464 122.982 26.0555C123.741 26.5642 123.987 27.1173 124.254 27.993C124.374 29.1133 124.178 29.8799 123.637 30.8671C123.136 31.3419 123.136 31.3419 122.609 31.6883C122.497 31.7624 122.384 31.8365 122.268 31.9128C121.565 32.1847 120.875 32.1493 120.132 32.139C119.894 32.1381 119.894 32.1381 119.652 32.1373C119.147 32.135 118.642 32.1298 118.137 32.1246C117.794 32.1225 117.451 32.1206 117.108 32.119C116.269 32.1144 115.429 32.1074 114.59 32.0989C114.658 31.7602 114.726 31.4214 114.795 31.0724C115.27 31.0724 115.745 31.0724 116.235 31.0724C116.235 27.8883 116.235 24.7041 116.235 21.4234C115.692 21.4234 115.149 21.4234 114.59 21.4234C114.59 21.0847 114.59 20.7459 114.59 20.3969ZM117.674 21.4234C117.674 22.7106 117.674 23.9979 117.674 25.3241C118.162 25.3368 118.65 25.3495 119.152 25.3626C119.304 25.3682 119.455 25.3738 119.612 25.3796C120.522 25.391 121.062 25.2548 121.787 24.7082C122.279 24.2169 122.264 24.0729 122.275 23.3994C122.261 22.715 122.239 22.5065 121.825 21.9367C120.973 21.3529 120.17 21.3987 119.178 21.4106C118.682 21.4148 118.185 21.4191 117.674 21.4234ZM117.674 26.5559C117.674 28.0463 117.674 29.5368 117.674 31.0724C118.158 31.0851 118.641 31.0978 119.139 31.1109C119.289 31.1165 119.439 31.1221 119.593 31.1279C120.725 31.1422 121.524 30.8619 122.378 30.1229C122.743 29.3536 122.773 28.6204 122.609 27.7877C122.161 27.2219 121.813 26.877 121.17 26.5559C120.576 26.5411 119.989 26.5368 119.396 26.543C118.544 26.5494 118.544 26.5494 117.674 26.5559Z" fill="#FB7139"/>
<path d="M150.574 1.0989C151.602 1.0785 152.63 1.06365 153.658 1.05379C154.007 1.04968 154.356 1.04408 154.705 1.03695C155.209 1.02691 155.713 1.02231 156.217 1.0187C156.449 1.01235 156.449 1.01235 156.685 1.00586C157.823 1.00538 158.478 1.27081 159.416 1.92009C160.162 2.92873 160.179 3.99654 160.033 5.20486C159.715 6.0776 159.385 6.56205 158.594 7.05254C158.76 7.18248 158.926 7.31242 159.097 7.4463C159.837 8.1849 159.782 8.99476 159.789 9.99087C159.794 10.1625 159.799 10.3341 159.804 10.5109C159.817 10.932 159.823 11.3532 159.827 11.7744C160.438 11.876 160.438 11.876 161.061 11.9797C161.061 12.3184 161.061 12.6572 161.061 13.0062C160.775 13.0342 160.487 13.054 160.2 13.0703C160.04 13.0822 159.88 13.0942 159.716 13.1064C158.935 12.9515 158.654 12.6083 158.182 11.9797C158.091 11.3881 158.047 10.9005 158.054 10.3116C158.092 9.25105 158.092 9.25105 157.702 8.29876C156.916 7.79429 156.064 7.80961 155.162 7.75825C154.666 7.72861 154.17 7.69897 153.659 7.66843C153.659 9.0234 153.659 10.3784 153.659 11.7744C154.201 11.8421 154.744 11.9099 155.304 11.9797C155.236 12.3184 155.168 12.6572 155.098 13.0062C153.605 13.0062 152.112 13.0062 150.574 13.0062C150.574 12.6674 150.574 12.3287 150.574 11.9797C151.117 11.9119 151.66 11.8442 152.219 11.7744C152.219 8.59022 152.219 5.40605 152.219 2.12539C151.676 2.12539 151.134 2.12539 150.574 2.12539C150.574 1.78665 150.574 1.4479 150.574 1.0989ZM153.659 2.12539C153.659 3.61585 153.659 5.10632 153.659 6.64194C155.897 6.74769 155.897 6.74769 157.977 6.02605C158.525 5.33394 158.64 4.80621 158.581 3.94741C158.379 3.11642 158.252 2.82053 157.565 2.33069C156.782 2.04959 155.97 2.10257 155.149 2.11256C154.657 2.11679 154.165 2.12103 153.659 2.12539Z" fill="#FB7139"/>
<path d="M100.607 1.0989C101.635 1.0785 102.663 1.06365 103.691 1.05379C104.04 1.04968 104.389 1.04408 104.739 1.03695C105.242 1.02691 105.746 1.02231 106.25 1.0187C106.482 1.01235 106.482 1.01235 106.718 1.00586C107.857 1.00538 108.511 1.27081 109.449 1.92009C110.195 2.92873 110.212 3.99654 110.066 5.20486C109.748 6.0776 109.418 6.56205 108.627 7.05254C108.793 7.22032 108.959 7.38811 109.13 7.56097C109.779 8.33813 109.814 9.01999 109.822 10.0037C109.827 10.1548 109.832 10.3059 109.838 10.4616C109.85 10.8307 109.856 11.1999 109.861 11.5691C110.268 11.7046 110.675 11.8401 111.094 11.9797C111.094 12.3184 111.094 12.6572 111.094 13.0062C110.808 13.0342 110.521 13.054 110.233 13.0703C110.073 13.0822 109.914 13.0942 109.749 13.1064C108.968 12.9515 108.687 12.6083 108.216 11.9797C108.124 11.3881 108.081 10.9005 108.087 10.3116C108.125 9.25105 108.125 9.25105 107.735 8.29876C106.95 7.79429 106.097 7.80961 105.195 7.75825C104.699 7.72861 104.203 7.69897 103.692 7.66843C103.692 9.0234 103.692 10.3784 103.692 11.7744C104.235 11.8421 104.777 11.9099 105.337 11.9797C105.269 12.3184 105.201 12.6572 105.131 13.0062C103.638 13.0062 102.145 13.0062 100.607 13.0062C100.607 12.6674 100.607 12.3287 100.607 11.9797C101.15 11.9119 101.693 11.8442 102.252 11.7744C102.252 8.59022 102.252 5.40605 102.252 2.12539C101.71 2.12539 101.167 2.12539 100.607 2.12539C100.607 1.78665 100.607 1.4479 100.607 1.0989ZM103.692 2.12539C103.692 3.61585 103.692 5.10632 103.692 6.64194C105.93 6.74769 105.93 6.74769 108.01 6.02605C108.558 5.33394 108.673 4.80621 108.614 3.94741C108.413 3.11642 108.286 2.82053 107.599 2.33069C106.815 2.04959 106.003 2.10257 105.183 2.11256C104.691 2.11679 104.199 2.12103 103.692 2.12539Z" fill="#FB7139"/>
<path d="M88.8867 20.3969C90.4474 20.3969 92.0081 20.3969 93.6161 20.3969C93.6161 20.7356 93.6161 21.0743 93.6161 21.4233C93.0732 21.4233 92.5304 21.4233 91.9711 21.4233C91.9711 22.7783 91.9711 24.1333 91.9711 25.5293C93.4613 25.4668 93.4613 25.4668 93.9974 25.072C94.0783 24.9678 94.1592 24.8636 94.2426 24.7562C94.3356 24.6411 94.4287 24.526 94.5245 24.4074C94.6149 24.2864 94.7053 24.1655 94.7984 24.0409C94.892 23.9231 94.9856 23.8054 95.082 23.684C95.3512 23.3439 95.6146 22.9998 95.878 22.6551C96.1515 22.3124 96.4254 21.97 96.7005 21.6286C96.2933 21.4931 95.8862 21.3576 95.4667 21.218C95.4667 20.947 95.4667 20.6761 95.4667 20.3969C96.9596 20.3969 98.4524 20.3969 99.9905 20.3969C99.9905 20.7356 99.9905 21.0743 99.9905 21.4233C99.7911 21.4149 99.5918 21.4064 99.3864 21.3977C98.1312 21.5771 97.4438 22.7558 96.7005 23.6816C96.5409 23.8772 96.3813 24.0728 96.2169 24.2743C95.8257 24.758 95.4387 25.2446 95.0555 25.7346C95.917 27.0739 96.8486 28.3545 97.8092 29.6241C98.5511 30.6173 98.5511 30.6173 98.5511 31.0723C99.0939 31.0723 99.6368 31.0723 100.196 31.0723C100.298 31.5805 100.298 31.5805 100.402 32.0988C97.9454 32.4088 97.9454 32.4088 97.0378 31.7428C96.6066 31.1984 96.2442 30.6358 95.878 30.0459C95.6973 29.7928 95.5143 29.5413 95.3294 29.2912C93.8687 27.3125 93.8687 27.3125 93.6161 26.5558C93.0732 26.5558 92.5304 26.5558 91.9711 26.5558C91.9711 28.0463 91.9711 29.5367 91.9711 31.0723C92.4461 31.0723 92.9211 31.0723 93.4105 31.0723C93.4783 31.4111 93.5462 31.7498 93.6161 32.0988C92.0554 32.0988 90.4947 32.0988 88.8867 32.0988C88.8867 31.8278 88.8867 31.5569 88.8867 31.2776C89.298 31.0723 89.298 31.0723 90.5317 31.0723C90.5317 27.8882 90.5317 24.704 90.5317 21.4233C90.0567 21.4233 89.5817 21.4233 89.0923 21.4233C89.0245 21.0846 88.9566 20.7459 88.8867 20.3969Z" fill="#FB7139"/>
<path d="M221.515 1.09883C222.509 1.08351 223.504 1.07238 224.499 1.065C224.837 1.06192 225.175 1.05773 225.513 1.05237C226.001 1.04483 226.489 1.04139 226.977 1.03869C227.125 1.03551 227.274 1.03233 227.428 1.02905C228.679 1.02865 229.795 1.28483 230.81 2.06197C232.259 3.74747 232.525 5.39355 232.472 7.58497C232.335 9.19727 231.888 10.733 230.659 11.8569C228.871 13.2563 226.752 13.0576 224.599 13.0318C224.299 13.0297 224 13.0278 223.7 13.0262C222.972 13.0217 222.243 13.0146 221.515 13.0061C221.515 12.6674 221.515 12.3286 221.515 11.9796C221.926 11.7743 221.926 11.7743 223.16 11.7743C223.16 8.59016 223.16 5.40598 223.16 2.12532C222.617 2.12532 222.074 2.12532 221.515 2.12532C221.515 1.78658 221.515 1.44784 221.515 1.09883ZM224.599 2.12532C224.599 5.30949 224.599 8.49367 224.599 11.7743C227.803 12.0345 227.803 12.0345 229.328 11.1584C230.612 9.84772 230.842 8.63225 230.845 6.87284C230.85 6.71591 230.855 6.55897 230.86 6.39728C230.866 5.22122 230.598 4.34102 229.945 3.35711C228.322 1.77844 226.98 2.12532 224.599 2.12532Z" fill="#FB7139"/>
<path d="M88.8867 1.09888C91.8724 1.09888 94.8581 1.09888 97.9342 1.09888C97.9342 2.18285 97.9342 3.26682 97.9342 4.38364C97.5949 4.38364 97.2557 4.38364 96.9061 4.38364C96.8043 4.28202 96.8043 4.28202 96.7005 4.17835C96.7005 3.50086 96.7005 2.82338 96.7005 2.12537C95.1398 2.12537 93.5791 2.12537 91.9711 2.12537C91.9711 3.48033 91.9711 4.8353 91.9711 6.23133C92.4796 6.20552 92.4796 6.20552 92.9984 6.1792C93.4399 6.15803 93.8814 6.13691 94.3229 6.11585C94.5468 6.10433 94.7706 6.09282 95.0013 6.08096C95.214 6.07104 95.4267 6.06111 95.6458 6.05089C95.8429 6.04121 96.04 6.03154 96.243 6.02157C96.7005 6.02603 96.7005 6.02603 96.9061 6.23133C96.9318 6.74457 96.9318 6.74457 96.9061 7.25782C96.7005 7.46311 96.7005 7.46311 96.243 7.46758C96.0459 7.4579 95.8489 7.44822 95.6458 7.43825C95.4331 7.42833 95.2204 7.41841 95.0013 7.40818C94.7774 7.39667 94.5536 7.38516 94.3229 7.3733C94.0983 7.36258 93.8736 7.35186 93.6422 7.34082C93.0851 7.3141 92.5281 7.28608 91.9711 7.25782C91.9711 8.74828 91.9711 10.2387 91.9711 11.7744C93.5996 11.7744 95.2282 11.7744 96.9061 11.7744C97.0079 10.7581 97.0079 10.7581 97.1117 9.72139C97.5189 9.72139 97.926 9.72139 98.3455 9.72139C98.3455 10.8054 98.3455 11.8893 98.3455 13.0062C95.2919 13.0062 92.2384 13.0062 89.0923 13.0062C89.0245 12.6674 88.9566 12.3287 88.8867 11.9797C89.4296 11.9119 89.9724 11.8442 90.5317 11.7744C90.5317 8.5902 90.5317 5.40603 90.5317 2.12537C90.0567 2.12537 89.5817 2.12537 89.0923 2.12537C89.0245 1.78663 88.9566 1.44788 88.8867 1.09888Z" fill="#FB7139"/>
<path d="M234.469 1.09888C237.455 1.09888 240.441 1.09888 243.517 1.09888C243.517 2.18285 243.517 3.26682 243.517 4.38364C243.177 4.38364 242.838 4.38364 242.489 4.38364C242.387 4.28202 242.387 4.28202 242.283 4.17835C242.283 3.50086 242.283 2.82338 242.283 2.12537C240.722 2.12537 239.162 2.12537 237.554 2.12537C237.554 3.48033 237.554 4.8353 237.554 6.23133C238.062 6.20552 238.062 6.20552 238.581 6.1792C239.022 6.15803 239.464 6.13691 239.905 6.11585C240.129 6.10433 240.353 6.09282 240.584 6.08096C240.796 6.07104 241.009 6.06111 241.228 6.05089C241.425 6.04121 241.622 6.03154 241.826 6.02157C242.283 6.02603 242.283 6.02603 242.489 6.23133C242.514 6.74457 242.514 6.74457 242.489 7.25782C242.283 7.46311 242.283 7.46311 241.826 7.46758C241.628 7.4579 241.431 7.44822 241.228 7.43825C241.016 7.42833 240.803 7.41841 240.584 7.40818C240.36 7.39667 240.136 7.38516 239.905 7.3733C239.681 7.36258 239.456 7.35186 239.225 7.34082C238.668 7.3141 238.111 7.28608 237.554 7.25782C237.554 8.74828 237.554 10.2387 237.554 11.7744C239.182 11.7744 240.811 11.7744 242.489 11.7744C242.59 10.7581 242.59 10.7581 242.694 9.72139C243.101 9.72139 243.509 9.72139 243.928 9.72139C243.928 10.8054 243.928 11.8893 243.928 13.0062C240.874 13.0062 237.821 13.0062 234.675 13.0062C234.607 12.6674 234.539 12.3287 234.469 11.9797C235.012 11.9119 235.555 11.8442 236.114 11.7744C236.114 8.5902 236.114 5.40603 236.114 2.12537C235.639 2.12537 235.164 2.12537 234.675 2.12537C234.607 1.78663 234.539 1.44788 234.469 1.09888Z" fill="#FB7139"/>
<path d="M138.854 1.09888C141.839 1.09888 144.825 1.09888 147.901 1.09888C147.901 2.18285 147.901 3.26682 147.901 4.38364C147.562 4.38364 147.222 4.38364 146.873 4.38364C146.667 3.97305 146.667 3.97305 146.667 2.12537C145.107 2.12537 143.546 2.12537 141.938 2.12537C141.938 3.48033 141.938 4.8353 141.938 6.23133C142.446 6.20552 142.446 6.20552 142.965 6.1792C143.407 6.15803 143.848 6.13691 144.29 6.11585C144.514 6.10433 144.737 6.09282 144.968 6.08096C145.181 6.07104 145.393 6.06111 145.613 6.05089C145.81 6.04121 146.007 6.03154 146.21 6.02157C146.667 6.02603 146.667 6.02603 146.873 6.23133C146.899 6.74457 146.899 6.74457 146.873 7.25782C146.667 7.46311 146.667 7.46311 146.21 7.46758C146.013 7.4579 145.816 7.44822 145.613 7.43825C145.4 7.42833 145.187 7.41841 144.968 7.40818C144.744 7.39667 144.52 7.38516 144.29 7.3733C144.065 7.36258 143.84 7.35186 143.609 7.34082C143.052 7.3141 142.495 7.28608 141.938 7.25782C141.938 8.74828 141.938 10.2387 141.938 11.7744C143.566 11.7744 145.195 11.7744 146.873 11.7744C146.975 10.7581 146.975 10.7581 147.079 9.72139C147.486 9.72139 147.893 9.72139 148.312 9.72139C148.312 10.8054 148.312 11.8893 148.312 13.0062C145.259 13.0062 142.205 13.0062 139.059 13.0062C138.991 12.6674 138.923 12.3287 138.854 11.9797C139.396 11.9119 139.939 11.8442 140.499 11.7744C140.499 8.5902 140.499 5.40603 140.499 2.12537C140.024 2.12537 139.549 2.12537 139.059 2.12537C138.991 1.78663 138.923 1.44788 138.854 1.09888Z" fill="#FB7139"/>
<path d="M189.438 1.09893C189.882 1.03878 189.882 1.03878 190.389 1.06044C190.557 1.06599 190.725 1.07155 190.898 1.07728C191.027 1.08442 191.155 1.09157 191.288 1.09893C191.687 2.25991 192.086 3.42106 192.484 4.58238C192.619 4.97665 192.755 5.37087 192.89 5.76505C193.086 6.3347 193.282 6.90453 193.477 7.47439C193.537 7.64791 193.596 7.82143 193.658 8.00021C193.716 8.16858 193.773 8.33694 193.833 8.51041C193.889 8.67435 193.945 8.83829 194.003 9.0072C194.232 9.71713 194.423 10.437 194.609 11.1592C194.766 11.6481 194.766 11.6481 195.439 11.9027C195.725 11.9408 195.725 11.9408 196.017 11.9797C196.017 12.3185 196.017 12.6572 196.017 13.0062C194.525 13.0062 193.032 13.0062 191.494 13.0062C191.494 12.6675 191.494 12.3287 191.494 11.9797C192.037 11.912 192.579 11.8442 193.139 11.7744C193.027 11.4481 193.027 11.4481 192.914 11.1152C192.817 10.8303 192.721 10.5453 192.625 10.2604C192.576 10.1169 192.527 9.97348 192.476 9.8257C192.111 8.74147 192.111 8.74147 192.111 8.28436C190.821 8.28436 189.532 8.28436 188.204 8.28436C188.064 8.80517 188.064 8.80517 187.921 9.33651C187.697 10.1588 187.459 10.97 187.176 11.7744C187.888 11.876 187.888 11.876 188.615 11.9797C188.731 12.3775 188.731 12.3775 188.821 12.8009C188.615 13.0062 188.615 13.0062 188.214 13.0295C187.957 13.0279 187.957 13.0279 187.695 13.0263C187.51 13.0256 187.326 13.0249 187.135 13.0243C186.843 13.0217 186.843 13.0217 186.546 13.019C186.351 13.0181 186.155 13.0172 185.954 13.0162C185.47 13.0138 184.986 13.0104 184.502 13.0062C184.435 12.6675 184.367 12.3287 184.297 11.9797C185.009 11.8781 185.009 11.8781 185.736 11.7744C185.765 11.6579 185.794 11.5413 185.824 11.4212C186.297 9.59891 186.907 7.82585 187.519 6.04653C187.704 5.50869 187.887 4.97028 188.07 4.43181C188.188 4.08855 188.305 3.74531 188.423 3.40212C188.477 3.24173 188.532 3.08135 188.588 2.91611C188.819 2.2469 189.042 1.69123 189.438 1.09893ZM190.054 2.53602C189.813 3.21142 189.574 3.88733 189.335 4.56333C189.266 4.75573 189.197 4.94812 189.127 5.14635C189.029 5.42224 189.029 5.42224 188.93 5.7037C188.87 5.87357 188.809 6.04343 188.747 6.21845C188.595 6.63338 188.595 6.63338 188.615 7.05257C189.633 7.05257 190.651 7.05257 191.699 7.05257C191.224 5.56211 190.749 4.07164 190.26 2.53602C190.192 2.53602 190.124 2.53602 190.054 2.53602Z" fill="#FB7139"/>
<path d="M126.105 20.3969C129.091 20.3969 132.076 20.3969 135.152 20.3969C135.152 21.4131 135.152 22.4293 135.152 23.4763C134.813 23.5441 134.474 23.6118 134.124 23.6816C134.023 23.58 134.023 23.58 133.919 23.4763C133.919 22.7988 133.919 22.1214 133.919 21.4233C132.358 21.4233 130.797 21.4233 129.189 21.4233C129.189 22.7783 129.189 24.1333 129.189 25.5293C129.393 25.4616 129.596 25.3938 129.806 25.324C130.123 25.305 130.441 25.2972 130.759 25.2967C130.941 25.2965 131.124 25.2962 131.312 25.2959C131.502 25.2967 131.692 25.2975 131.888 25.2983C132.08 25.2975 132.271 25.2968 132.469 25.2959C132.651 25.2962 132.833 25.2965 133.021 25.2967C133.272 25.2971 133.272 25.2971 133.528 25.2974C133.919 25.324 133.919 25.324 134.124 25.5293C134.133 25.8714 134.133 26.2137 134.124 26.5558C133.106 26.8401 132.12 26.7386 131.079 26.6713C130.455 26.6332 129.832 26.5951 129.189 26.5558C129.189 28.0463 129.189 29.5367 129.189 31.0723C130.818 31.0723 132.446 31.0723 134.124 31.0723C134.124 30.5981 134.124 30.1239 134.124 29.6353C134.227 29.1348 134.227 29.1348 134.33 28.8141C134.673 28.8053 135.015 28.8057 135.358 28.8141C136.135 29.5898 135.564 31.0018 135.564 32.0988C132.442 32.0988 129.321 32.0988 126.105 32.0988C126.173 31.7601 126.241 31.4214 126.311 31.0723C126.786 31.0723 127.261 31.0723 127.75 31.0723C127.75 27.8882 127.75 24.704 127.75 21.4233C127.275 21.4233 126.8 21.4233 126.311 21.4233C126.243 21.0846 126.175 20.7459 126.105 20.3969Z" fill="#FB7139"/>
<path d="M169.697 20.3969C170.376 20.3969 171.054 20.3969 171.753 20.3969C172.087 21.3598 172.419 22.323 172.751 23.2864C172.864 23.6125 172.976 23.9385 173.089 24.2645C173.199 24.5812 173.308 24.898 173.417 25.2149C173.526 25.5317 173.636 25.8484 173.746 26.1649C174.017 26.9509 174.269 27.7362 174.488 28.5382C174.531 28.6895 174.573 28.8408 174.617 28.9967C174.696 29.282 174.771 29.5685 174.841 29.8562C174.952 30.2929 174.952 30.2929 175.249 30.867C175.872 31.1798 175.872 31.1798 176.483 31.2776C176.483 31.5486 176.483 31.8196 176.483 32.0988C174.99 32.0988 173.497 32.0988 171.959 32.0988C172.027 31.7601 172.095 31.4214 172.165 31.0723C172.64 31.0723 173.115 31.0723 173.604 31.0723C173.493 30.746 173.493 30.746 173.379 30.4131C173.283 30.1282 173.186 29.8432 173.09 29.5583C173.041 29.4148 172.992 29.2714 172.941 29.1236C172.576 28.0394 172.576 28.0394 172.576 27.5823C171.287 27.65 169.997 27.7178 168.669 27.7876C168.33 28.8038 167.991 29.82 167.641 30.867C168.116 31.0025 168.591 31.138 169.08 31.2776C169.08 31.5486 169.08 31.8196 169.08 32.0988C167.655 32.0988 166.23 32.0988 164.762 32.0988C164.762 31.8278 164.762 31.5569 164.762 31.2776C165.475 31.176 165.475 31.176 166.202 31.0723C166.229 30.9439 166.256 30.8155 166.285 30.6832C166.785 28.515 167.551 26.4424 168.296 24.3488C168.432 23.9645 168.568 23.5801 168.704 23.1956C169.034 22.2623 169.365 21.3294 169.697 20.3969ZM170.52 21.8339C169.488 24.0184 169.488 24.0184 169.08 26.3505C170.098 26.3505 171.116 26.3505 172.165 26.3505C171.69 24.86 171.215 23.3696 170.725 21.8339C170.657 21.8339 170.59 21.8339 170.52 21.8339Z" fill="#FB7139"/>
<path d="M181.418 1.30414C181.418 1.16864 181.418 1.03314 181.418 0.89354C181.825 0.89354 182.232 0.89354 182.652 0.89354C182.652 2.11301 182.652 3.33248 182.652 4.5889C182.312 4.65665 181.973 4.7244 181.624 4.7942C181.52 4.49507 181.417 4.19561 181.315 3.89602C181.258 3.7293 181.201 3.56257 181.142 3.3908C181.007 2.94652 181.007 2.94652 181.007 2.53592C179.876 2.12751 178.891 1.98724 177.717 2.33063C177.152 2.77319 176.939 3.04949 176.835 3.7613C176.844 4.23841 176.901 4.56474 177.1 4.9995C177.678 5.38805 178.1 5.59132 178.745 5.82069C182.189 7.07568 182.189 7.07568 182.934 8.36125C183.242 9.64998 183.09 10.6179 182.446 11.7743C181.324 12.8941 180.364 13.2263 178.809 13.2884C177.483 13.2718 176.465 12.9012 175.249 12.3902C175.249 11.3063 175.249 10.2223 175.249 9.10546C175.588 9.10546 175.928 9.10546 176.277 9.10546C176.483 9.31076 176.483 9.31076 176.503 9.8248C176.501 10.032 176.498 10.2392 176.496 10.4527C176.494 10.6605 176.492 10.8682 176.49 11.0823C176.488 11.2429 176.485 11.4035 176.483 11.569C177.245 11.7424 177.964 11.8137 178.745 11.8257C178.953 11.831 179.16 11.8362 179.375 11.8417C180.071 11.7641 180.446 11.5707 181.007 11.1584C181.371 10.5465 181.422 10.2031 181.379 9.49039C181.201 8.86193 181.083 8.69208 180.595 8.28427C180.224 8.10512 180.224 8.10512 179.814 7.98354C179.589 7.90871 179.589 7.90871 179.359 7.83237C179.046 7.73237 178.733 7.63239 178.421 7.53244C177.246 7.14218 176.213 6.7275 175.48 5.67955C175.095 4.54525 175.025 3.4694 175.558 2.36912C176.818 0.497099 179.515 0.423004 181.418 1.30414Z" fill="#FB7139"/>
<path d="M126.105 1.09888C127.53 1.09888 128.955 1.09888 130.423 1.09888C130.491 1.36987 130.559 1.64086 130.629 1.92007C130.423 2.12537 130.423 2.12537 130.043 2.14542C129.621 2.13873 129.2 2.13205 128.778 2.12537C129.184 3.32061 129.59 4.51559 129.997 5.71031C130.135 6.11709 130.273 6.52395 130.411 6.93087C130.609 7.51453 130.808 8.09793 131.007 8.68127C131.069 8.86433 131.131 9.04738 131.195 9.23599C131.252 9.40449 131.31 9.57299 131.369 9.7466C131.42 9.89568 131.471 10.0448 131.523 10.1983C131.631 10.5442 131.631 10.5442 131.862 10.7479C133.389 6.58136 133.389 6.58136 134.947 2.33066C134.472 2.26292 133.997 2.19517 133.507 2.12537C133.406 1.61725 133.406 1.61725 133.302 1.09888C134.659 1.09888 136.016 1.09888 137.414 1.09888C137.414 1.43762 137.414 1.77636 137.414 2.12537C137.075 2.12537 136.736 2.12537 136.386 2.12537C136.354 2.32576 136.354 2.32576 136.322 2.5302C136.137 3.34308 135.855 4.10524 135.567 4.88646C135.475 5.13672 135.475 5.13672 135.382 5.39203C135.252 5.7447 135.122 6.09722 134.992 6.44961C134.795 6.98247 134.6 7.51606 134.405 8.04974C133.781 9.74886 133.157 11.4199 132.274 13.0062C131.799 13.0062 131.324 13.0062 130.834 13.0062C130.002 10.8258 129.209 8.63425 128.453 6.4262C128.286 5.93913 128.118 5.45249 127.95 4.96586C127.843 4.65473 127.736 4.34357 127.629 4.03239C127.579 3.88764 127.529 3.7429 127.478 3.59376C127.133 2.58308 127.133 2.58308 127.133 2.12537C126.794 2.12537 126.455 2.12537 126.105 2.12537C126.105 1.78663 126.105 1.44788 126.105 1.09888Z" fill="#FB7139"/>
<path d="M162.089 1.09888C163.514 1.09888 164.939 1.09888 166.407 1.09888C166.475 1.30212 166.543 1.50537 166.613 1.71477C166.545 1.85027 166.477 1.98576 166.407 2.12537C165.865 2.12537 165.322 2.12537 164.762 2.12537C165.168 3.32061 165.574 4.51559 165.981 5.71031C166.12 6.11709 166.258 6.52395 166.396 6.93087C166.594 7.51453 166.793 8.09793 166.991 8.68127C167.053 8.86433 167.115 9.04738 167.179 9.23599C167.237 9.40449 167.294 9.57299 167.354 9.7466C167.404 9.89568 167.455 10.0448 167.507 10.1983C167.615 10.5442 167.615 10.5442 167.847 10.7479C169.374 6.58136 169.374 6.58136 170.931 2.33066C170.456 2.26292 169.981 2.19517 169.492 2.12537C169.39 1.61725 169.39 1.61725 169.286 1.09888C170.643 1.09888 172 1.09888 173.399 1.09888C173.331 1.43762 173.263 1.77636 173.193 2.12537C172.922 2.12537 172.65 2.12537 172.371 2.12537C172.339 2.32576 172.339 2.32576 172.306 2.5302C172.122 3.34308 171.84 4.10524 171.551 4.88646C171.46 5.13672 171.46 5.13672 171.366 5.39203C171.236 5.7447 171.106 6.09722 170.976 6.44961C170.779 6.98247 170.584 7.51606 170.39 8.04974C169.766 9.74886 169.142 11.4199 168.258 13.0062C167.783 13.0062 167.308 13.0062 166.819 13.0062C166.266 11.6589 165.756 10.3039 165.286 8.92586C165.223 8.74291 165.161 8.55996 165.096 8.37147C164.965 7.98928 164.835 7.607 164.704 7.22464C164.504 6.63741 164.302 6.05063 164.101 5.46387C163.973 5.09099 163.846 4.71808 163.718 4.34515C163.658 4.16959 163.598 3.99404 163.535 3.81316C163.48 3.6513 163.425 3.48944 163.369 3.32267C163.32 3.18024 163.271 3.03782 163.221 2.89107C163.117 2.53596 163.117 2.53596 163.117 2.12537C162.778 2.12537 162.439 2.12537 162.089 2.12537C162.089 1.78663 162.089 1.44788 162.089 1.09888Z" fill="#FB7139"/>
<path d="M175.866 20.3969C177.359 20.3969 178.852 20.3969 180.39 20.3969C180.39 20.7356 180.39 21.0743 180.39 21.4233C179.847 21.4233 179.304 21.4233 178.745 21.4233C179.695 24.201 180.645 26.9787 181.624 29.8406C182.041 29.4238 182.149 29.2068 182.346 28.6672C182.404 28.5111 182.461 28.3549 182.52 28.194C182.581 28.0255 182.642 27.857 182.705 27.6833C182.768 27.5107 182.831 27.3382 182.897 27.1604C183.099 26.6085 183.299 26.0561 183.5 25.5036C183.637 25.1296 183.774 24.7557 183.91 24.3817C184.246 23.4645 184.58 22.5467 184.914 21.6286C184.439 21.5609 183.964 21.4931 183.474 21.4233C183.373 20.9152 183.373 20.9152 183.269 20.3969C184.626 20.3969 185.983 20.3969 187.381 20.3969C187.313 20.7356 187.245 21.0743 187.176 21.4233C186.904 21.4233 186.633 21.4233 186.353 21.4233C186.316 21.5922 186.316 21.5922 186.277 21.7644C185.744 23.9243 184.871 25.9678 184.053 28.0314C183.897 28.4266 183.741 28.8218 183.586 29.217C183.207 30.1781 182.827 31.1386 182.446 32.0988C181.903 32.0988 181.361 32.0988 180.801 32.0988C180.214 30.8357 179.715 29.5624 179.269 28.2439C179.206 28.0606 179.143 27.8774 179.079 27.6886C178.948 27.3052 178.817 26.9217 178.687 26.5381C178.487 25.949 178.285 25.3604 178.083 24.7719C177.956 24.3981 177.828 24.0242 177.701 23.6503C177.64 23.4741 177.58 23.2979 177.518 23.1164C177.463 22.9539 177.408 22.7914 177.351 22.6239C177.303 22.4809 177.254 22.3378 177.204 22.1904C177.1 21.8339 177.1 21.8339 177.1 21.4233C176.761 21.4233 176.421 21.4233 176.072 21.4233C176.004 21.0846 175.936 20.7459 175.866 20.3969Z" fill="#FB7139"/>
<path d="M262.64 1.09888C264.2 1.09888 265.761 1.09888 267.369 1.09888C267.301 1.43762 267.233 1.77636 267.163 2.12537C266.688 2.12537 266.213 2.12537 265.724 2.12537C265.724 5.30954 265.724 8.49371 265.724 11.7744C266.267 11.8421 266.81 11.9099 267.369 11.9797C267.301 12.3184 267.233 12.6572 267.163 13.0062C265.671 13.0062 264.178 13.0062 262.64 13.0062C262.64 12.6674 262.64 12.3287 262.64 11.9797C263.051 11.7744 263.051 11.7744 264.285 11.7744C264.285 8.5902 264.285 5.40603 264.285 2.12537C263.742 2.12537 263.199 2.12537 262.64 2.12537C262.64 1.78663 262.64 1.44788 262.64 1.09888Z" fill="#FB7139"/>
</svg>
